SplineFontDB: 3.0
FontName: CMUBright-Oblique
FullName: CMU Bright Oblique
FamilyName: CMU Bright
Weight: Medium
Copyright: Converted by Andrey V. Panov from TeX fonts
UComments: "2009-6-18: Created." 
Version: 0.7.0
ItalicAngle: -12
UnderlinePosition: -100
UnderlineWidth: 50
Ascent: 800
Descent: 200
LayerCount: 2
Layer: 0 0 "+BBcEMAQ0BD0EOAQ5 +BD8EOwQwBD0A"  1
Layer: 1 0 "+BB8ENQRABDUENAQ9BDgEOQAA +BD8EOwQwBD0A"  0
NeedsXUIDChange: 1
XUID: [1067 9073313]
FSType: 0
OS2Version: 0
OS2_WeightWidthSlopeOnly: 0
OS2_UseTypoMetrics: 1
CreationTime: 1245317980
ModificationTime: 1245318341
PfmFamily: 17
TTFWeight: 500
TTFWidth: 5
LineGap: 200
VLineGap: 90
OS2TypoAscent: 0
OS2TypoAOffset: 1
OS2TypoDescent: 0
OS2TypoDOffset: 1
OS2TypoLinegap: 200
OS2WinAscent: 897
OS2WinAOffset: 0
OS2WinDescent: 264
OS2WinDOffset: 0
HheadAscent: 897
HheadAOffset: 0
HheadDescent: -264
HheadDOffset: 0
Lookup: 1 0 0 "Case substitutions"  {"Case substitutions subtable"  } ['case' ('cyrl' <'dflt' > 'grek' <'dflt' > 'latn' <'dflt' > ) ]
Lookup: 3 0 0 "Greek alternatives"  {"Greek alternatives subtable"  } ['salt' ('grek' <'dflt' > ) ]
Lookup: 1 0 0 "Greek substitutions"  {"Greek substitutions subtable"  } ['locl' ('grek' <'dflt' > ) ]
Lookup: 4 0 1 "Latin Dutch ligatures"  {"Latin Dutch ligatures subtable"  } ['liga' ('latn' <'NLD ' > ) ]
Lookup: 4 0 1 "Latin ligatures excepting Turkic"  {"Latin ligatures excepting Turkic subtable"  } ['liga' ('latn' <'dflt' 'NLD ' 'VIT ' > ) ]
Lookup: 4 0 1 "Latin ligatures"  {"Latin ligatures subtable"  } ['liga' ('latn' <'dflt' 'NLD ' 'VIT ' 'TRK ' 'AZE ' > ) ]
Lookup: 4 0 1 "Cyrillic ligatures"  {"Cyrillic ligatures subtable"  } ['liga' ('cyrl' <'dflt' 'MKD ' 'SRB ' > ) ]
Lookup: 3 0 0 "Latin alternatives"  {"Latin alternatives subtable"  } ['salt' ('latn' <'dflt' > ) ]
Lookup: 3 0 0 "Stilistic set 01"  {"Stilistic set 01 subtable"  } ['ss01' ('latn' <'dflt' > 'grek' <'dflt' > 'cyrl' <'dflt' > ) ]

StartChar: .notdef
Encoding: 0 0 0
Width: 760
Flags: HW
HStem: 10 60<105 655> 705 60<105 655>
VStem: 10 60<112 663> 690 60<112 663>
DStem2: 105 705 70 663 0.702289 -0.711892<5.31938 389.612 448.699 832.991> 70 112 105 70 0.702289 0.711892<0 384.292 443.379 827.672>
LayerCount: 2
Fore
SplineSet
10 10 m 1
 10 765 l 1
 750 765 l 1
 750 10 l 1
 10 10 l 1
70 112 m 1
 346 388 l 1
 70 663 l 1
 70 112 l 1
105 70 m 1
 655 70 l 1
 380 346 l 1
 105 70 l 1
105 705 m 1
 380 429 l 1
 655 705 l 1
 105 705 l 1
414 388 m 1
 690 112 l 1
 690 663 l 1
 414 388 l 1
EndSplineSet
EndChar

StartChar: uni262D
Encoding: 9773 9773 1
Width: 700
Flags: HW
TeX: 117 0
HStem: -1 21G<56 93 593.5 601> 39 76<321.786 462.78> 102 51<140.549 177.987>
VStem: 129 54<101.776 137.734> 556 82<197.341 366.709>
DStem2: 123 357 178 301 0.707107 0.707107<0 86.9741 130.108 182.434>
LayerCount: 2
Fore
SplineSet
40 18 m 0
 40 64 129 102 129 128 c 0
 129 148 134 153 148 153 c 0xb8
 162 153 164 157 182 180 c 1
 229 156 307 115 390 115 c 0
 438 115 463 128 463 129 c 0
 463 135 406 186 240 363 c 1
 178 301 l 1
 123 357 l 1
 252 486 l 1
 347 470 l 1
 271 393 l 1
 484 190 l 1
 513 165 l 1
 519 165 556 218 556 295 c 0
 556 473 346 588 346 593 c 1
 394 593 638 478 638 267 c 0
 638 167 592 118 580 100 c 1
 636 44 637 42 637 38 c 0xd8
 637 17 605 -1 597 -1 c 2
 596 -1 l 2
 591 -1 590 1 529 62 c 1
 500 51 474 39 428 39 c 0xd8
 297 39 201 138 188 138 c 0
 183 138 182 134 182 130 c 0
 182 126 183 123 183 118 c 0
 183 108 178 102 168 102 c 0
 131 102 122 0 64 -0 c 0
 48 0 40 7 40 18 c 0
EndSplineSet
EndChar

StartChar: florin
Encoding: 402 402 2
Width: 321
Flags: HW
TeX: 102 0
HStem: -175 53<-66.9061 74.4131> 422 50<129 204 276 390> 652 51<334.821 502.472>
DStem2: 76.8026 -175 140.416 -175 0.207912 0.978148<69.303 610.4 674.277 827.089>
LayerCount: 2
Fore
SplineSet
-103 -146 m 1
 -75 -95 l 1
 -50 -113 -28 -122 4 -122 c 0
 38 -122 80 -107 96 -77 c 0
 100 -71 101 -62 114 -0 c 2
 204 422 l 1
 118 422 l 1
 129 472 l 1
 214 472 l 1
 235 568 235 574 248 598 c 0
 264 629 320 703 430 703 c 0
 465 703 496 697 512 695 c 1
 499 638 l 1
 474 647 452 652 418 652 c 0
 352 652 319 623 308 605 c 0
 300 592 300 585 276 472 c 1
 401 472 l 1
 390 422 l 1
 267 422 l 1
 174 -17 l 2
 168 -42 165 -68 152 -91 c 0
 139 -116 91 -175 13 -175 c 0
 -35 -175 -68 -164 -103 -146 c 1
EndSplineSet
EndChar

StartChar: longs
Encoding: 383 383 3
Width: 321
Flags: HW
TeX: 108 0
HStem: -0 21G<114 181.28> 652 51<335.438 502.472>
DStem2: 114 -0 177 -0 0.207912 0.978148<13.0984 648.18>
AnchorPoint: "above" 428 695 basechar 0
AnchorPoint: "below" 145 0 basechar 0
LayerCount: 2
Fore
SplineSet
114 -0 m 1
 204 422 l 2
 230 542 231 567 248 598 c 0
 264 629 320 703 430 703 c 0
 465 703 496 697 512 695 c 1
 499 638 l 1
 474 647 452 652 418 652 c 0
 352 652 321 623 310 605 c 0
 302 592 302 585 278 472 c 2
 177 -0 l 1
 114 -0 l 1
EndSplineSet
EndChar

StartChar: uni03F5
Encoding: 1013 1013 4
Width: 452
Flags: HW
HStem: -8 54<269.562 391> 206 61<161 379> 427 54<342.646 484>
VStem: 89 59<135.736 202.838>
CounterMasks: 1 e0
LayerCount: 2
Fore
SplineSet
89 195 m 0
 89 363 284 481 495 481 c 1
 484 427 l 1
 372 425 221 394 161 267 c 1
 392 267 l 1
 379 206 l 1
 148 206 l 1
 154 79 292 48 403 46 c 1
 391 -8 l 1
 215 -8 89 71 89 195 c 0
EndSplineSet
EndChar

StartChar: circumflex.cap
Encoding: 65536 -1 5
Width: 525
Flags: HW
HStem: 727 170
VStem: 261 313
DStem2: 261 727 311 727 0.698639 0.715474<34.932 221.561>
AnchorPoint: "above" 414 711 mark 0
LayerCount: 2
Fore
SplineSet
261 727 m 1
 427 897 l 1
 490 897 l 1
 574 727 l 1
 523 727 l 1
 445 857 l 1
 311 727 l 1
 261 727 l 1
EndSplineSet
EndChar

StartChar: caron.cap
Encoding: 65539 -1 8
Width: 525
Flags: HW
HStem: 727 162
VStem: 299 305
DStem2: 426 769 445 727 0.700468 0.713684<0 175.302>
AnchorPoint: "above" 414 711 mark 0
LayerCount: 2
Fore
SplineSet
299 889 m 1
 350 889 l 1
 426 769 l 1
 554 889 l 1
 604 889 l 1
 445 727 l 1
 389 727 l 1
 299 889 l 1
EndSplineSet
EndChar

StartChar: ring.cap
Encoding: 65540 -1 9
Width: 525
Flags: HW
HStem: 677 50<372.501 472.013> 844 50<386.862 486.956>
VStem: 311 58<731.268 826.61> 491 58<744.73 840.367>
AnchorPoint: "above" 414 711 mark 0
LayerCount: 2
Fore
SplineSet
311 765 m 0
 311 830 378 894 453 894 c 0
 503 894 549 863 549 807 c 0
 549 742 484 677 407 677 c 0
 358 677 311 709 311 765 c 0
369 764 m 0
 369 742 382 727 415 727 c 0
 455 727 491 743 491 807 c 0
 491 836 471 844 445 844 c 2
 443 844 l 2
 400 844 379 827 371 781 c 0
 370 774 369 768 369 764 c 0
EndSplineSet
EndChar

StartChar: breve.cap
Encoding: 65541 -1 10
Width: 525
Flags: HW
HStem: 727 55<361.036 504.963>
VStem: 276 52<813.423 889> 571 51<844.332 889>
AnchorPoint: "above" 413 711 mark 0
LayerCount: 2
Fore
SplineSet
276 857 m 0
 276 876 280 886 280 889 c 1
 330 889 l 1
 329 882 328 875 328 868 c 0
 328 817 373 782 428 782 c 0
 491 782 557 827 571 889 c 1
 622 889 l 1
 596 787 502 727 417 727 c 0
 337 727 276 779 276 857 c 0
EndSplineSet
EndChar

StartChar: uni026A
Encoding: 618 618 11
Width: 163
Flags: HW
HStem: 0 21G<39 128.4> 452 20G<135 224>
VStem: 39 185
DStem2: 39 0 124 0 0.207912 0.978148<17.6725 51.1944 53.2735 447.084 449.163 482.477>
AnchorPoint: "affricate-below" 128 -167 basechar 0
AnchorPoint: "affricate-above" 311 695 basechar 0
AnchorPoint: "below" 81 0 basechar 0
AnchorPoint: "above" 184 484 basechar 0
LayerCount: 2
Back
SplineSet
49 0 m 1
 149 472 l 1
 214 472 l 1
 114 0 l 1
 49 0 l 1
EndSplineSet
Fore
SplineSet
39 0 m 1
 50 50 l 1
 60 50 l 1
 139 422 l 1
 129 422 l 1
 139 472 l 1
 224 472 l 1
 214 422 l 1
 204 422 l 1
 125 50 l 1
 135 50 l 1
 124 0 l 1
 39 0 l 1
EndSplineSet
EndChar

StartChar: grave
Encoding: 96 96 12
Width: 525
Flags: HW
TeX: 666 0
HStem: 538 129
VStem: 243 187
DStem2: 308 667 243 667 0.68712 -0.726544<0 142.51>
LayerCount: 2
Fore
SplineSet
243 667 m 1
 308 667 l 1
 430 538 l 1
 379 538 l 1
 243 667 l 1
EndSplineSet
EndChar

StartChar: acute
Encoding: 180 180 13
Width: 525
Flags: HW
TeX: 666 0
ItalicCorrection: 83
HStem: 538 129
VStem: 322 242
LayerCount: 2
Fore
SplineSet
322 538 m 1
 500 667 492 667 513 667 c 0
 530 667 547 667 564 667 c 1
 373 538 l 1
 322 538 l 1
EndSplineSet
EndChar

StartChar: circumflex
Encoding: 710 710 14
Width: 525
Flags: HW
TeX: 666 0
HStem: 537 138
VStem: 220 313
DStem2: 220 537 270 537 0.757249 0.653127<37.8624 203.369> 431 675 399 642 0.594391 -0.804176<7.5173 141.29>
LayerCount: 2
Fore
SplineSet
220 537 m 1
 380 675 l 1
 431 675 l 1
 533 537 l 1
 482 537 l 1
 399 642 l 1
 398 642 l 1
 270 537 l 1
 220 537 l 1
EndSplineSet
EndChar

StartChar: tilde
Encoding: 732 732 15
Width: 525
Flags: HW
TeX: 666 0
ItalicCorrection: 83
HStem: 536 50<396.647 505.155> 584 50<265.441 374.353>
VStem: 521 50<603.122 635>
LayerCount: 2
Fore
SplineSet
200 535 m 1
 206 554 l 1
 223 598 271 634 321 634 c 0x60
 376 634 409 586 459 586 c 0
 507 586 521 635 521 635 c 1
 571 635 l 1
 559 580 506 536 450 536 c 0xa0
 395 536 362 584 312 584 c 0x60
 264 584 250 535 250 535 c 1
 200 535 l 1
EndSplineSet
EndChar

StartChar: ring
Encoding: 730 730 18
Width: 730
Flags: HW
TeX: 666 0
HStem: 510 33<434.491 530.815> 640 32<449.534 543.985>
VStem: 372 58<546.432 626.459> 549 58<556.38 636.326>
LayerCount: 2
Fore
SplineSet
372 580 m 0
 372 623 428 672 507 672 c 0
 563 672 607 645 607 603 c 0
 607 561 553 510 472 510 c 0
 416 510 372 538 372 580 c 0
430 576 m 0
 430 551 447 543 478 543 c 0
 505 543 549 549 549 606 c 0
 549 631 532 640 501 640 c 2
 499 640 l 2
 484 640 430 638 430 576 c 0
EndSplineSet
EndChar

StartChar: caron
Encoding: 711 711 19
Width: 525
Flags: HW
TeX: 666 0
HStem: 536 131
VStem: 255 296
DStem2: 305 667 255 667 0.587069 -0.809537<0 124.539> 383 569 401 536 0.753198 0.657793<0 153.341>
LayerCount: 2
Fore
SplineSet
255 667 m 1
 305 667 l 1
 382 569 l 1
 383 569 l 1
 501 667 l 1
 551 667 l 1
 401 536 l 1
 350 536 l 1
 255 667 l 1
EndSplineSet
EndChar

StartChar: breve
Encoding: 728 728 20
Width: 525
Flags: HW
TeX: 666 0
ItalicCorrection: 79
HStem: 526 55<309.648 469.076> 647 20G<232 283 524 575>
VStem: 230 52<606.69 667> 524 51<627.715 667>
LayerCount: 2
Fore
SplineSet
230 640 m 0
 230 649 231 658 233 667 c 1
 283 667 l 1
 282 661 282 655 282 651 c 0
 282 609 327 581 385 581 c 0
 445 581 511 611 524 666 c 1
 524 667 l 1
 575 667 l 1
 552 577 458 526 374 526 c 0
 293 526 230 572 230 640 c 0
EndSplineSet
EndChar

StartChar: macron
Encoding: 175 175 21
Width: 525
Flags: HW
TeX: 656 0
ItalicCorrection: 95
HStem: 620 54<215 583>
LayerCount: 2
Fore
SplineSet
204 620 m 1
 215 674 l 1
 594 674 l 1
 583 620 l 1
 204 620 l 1
EndSplineSet
EndChar

StartChar: cedilla
Encoding: 184 184 23
Width: 467
Flags: HW
TeX: 0 145
HStem: -163 145
VStem: 96 158
DStem2: 96 -163 154 -163 0.593767 0.804637<34.4385 180.205>
LayerCount: 2
Fore
SplineSet
96 -163 m 1
 203 -18 l 1
 254 -18 l 1
 154 -163 l 1
 96 -163 l 1
EndSplineSet
EndChar

StartChar: ogonek
Encoding: 731 731 24
Width: 292
Flags: HW
TeX: 0 166
HStem: -194 61<28.3061 116.62>
VStem: -44 71<-130.525 -75.4182>
LayerCount: 2
Fore
SplineSet
-44 -126 m 0
 -44 -91 -13 -59 21 -38 c 0
 61 -13 110 1 160 39 c 1
 166 26 171 13 175 -0 c 1
 122 -39 73 -40 40 -79 c 0
 29 -92 27 -100 27 -106 c 0
 27 -111 31 -133 63 -133 c 0
 108 -133 144 -90 156 -77 c 1
 191 -106 l 1
 191 -107 l 1
 127 -184 72 -194 42 -194 c 0
 -6 -194 -44 -167 -44 -126 c 0
EndSplineSet
EndChar

StartChar: guilsinglleft
Encoding: 8249 8249 26
Width: 408
Flags: HW
TeX: 500 0
ItalicCorrection: 47
VStem: 169 217
LayerCount: 2
Fore
SplineSet
169 250 m 1
 336 450 l 1
 386 450 l 1
 234 250 l 1
 301 50 l 1
 251 50 l 1
 169 250 l 1
EndSplineSet
EndChar

StartChar: guilsinglright
Encoding: 8250 8250 27
Width: 408
Flags: HW
TeX: 500 0
ItalicCorrection: 47
VStem: 127 217
DStem2: 127 50 177 50 0.640939 0.767592<32.047 251.582>
LayerCount: 2
Fore
SplineSet
127 50 m 1
 280 250 l 1
 212 450 l 1
 262 450 l 1
 344 250 l 1
 177 50 l 1
 127 50 l 1
EndSplineSet
EndChar

StartChar: guillemotleft.lat
Encoding: 61696 61696 31
Width: 525
Flags: HW
TeX: 500 0
ItalicCorrection: 88
DStem2: 169 250 234 250 0.688749 0.724999<44.7687 275.862> 344 250 409 250 0.688749 0.724999<44.7687 275.862>
LayerCount: 2
Fore
SplineSet
169 250 m 1
 359 450 l 1
 409 450 l 1
 234 250 l 1
 325 50 l 1
 274 50 l 1
 169 250 l 1
344 250 m 1
 534 450 l 1
 584 450 l 1
 409 250 l 1
 500 50 l 1
 449 50 l 1
 344 250 l 1
EndSplineSet
EndChar

StartChar: guillemotright.lat
Encoding: 61697 61697 32
Width: 525
Flags: HW
TeX: 500 0
DStem2: 45 50 95 50 0.688749 0.724999<34.4375 266.22> 220 50 270 50 0.688749 0.724999<34.4375 266.22>
LayerCount: 2
Fore
SplineSet
45 50 m 1
 221 250 l 1
 130 450 l 1
 180 450 l 1
 285 250 l 1
 95 50 l 1
 45 50 l 1
220 50 m 1
 396 250 l 1
 305 450 l 1
 355 450 l 1
 460 250 l 1
 270 50 l 1
 220 50 l 1
EndSplineSet
EndChar

StartChar: endash
Encoding: 8211 8211 33
Width: 525
Flags: HW
TeX: 472 0
ItalicCorrection: 91
HStem: 267 50<66 581>
LayerCount: 2
Fore
SplineSet
56 267 m 1
 66 317 l 1
 591 317 l 1
 581 267 l 1
 56 267 l 1
EndSplineSet
EndChar

StartChar: emdash
Encoding: 8212 8212 34
Width: 1050
Flags: HW
TeX: 472 0
ItalicCorrection: 91
HStem: 267 50<66 1106>
LayerCount: 2
Fore
SplineSet
56 267 m 1
 66 317 l 1
 1116 317 l 1
 1106 267 l 1
 56 267 l 1
EndSplineSet
Substitution2: "Cyrillic substitutions subtable" emdash.cyr
AlternateSubs2: "Cyrillic alternatives subtable" emdash.cyr
EndChar

StartChar: dotlessi
Encoding: 305 305 36
Width: 225
Flags: HW
TeX: 472 0
ItalicCorrection: 48
HStem: -0 21G<80 147.28> 452 20G<175.763 244>
VStem: 80 164
DStem2: 80 -0 143 -0 0.207912 0.978148<13.0984 482.477>
AnchorPoint: "below" 111 0 basechar 0
AnchorPoint: "above" 214 484 basechar 0
LayerCount: 2
Fore
SplineSet
80 -0 m 1
 180 472 l 1
 244 472 l 1
 143 -0 l 1
 80 -0 l 1
EndSplineSet
EndChar

StartChar: dotlessj
Encoding: 567 567 37
Width: 254
Flags: HW
TeX: 472 166
ItalicCorrection: 48
HStem: -175 53<-81.521 71.3925> 452 20G<206.725 274>
DStem2: 72.8555 -175 136.416 -175 0.207912 0.978148<70.0392 661.583>
AnchorPoint: "below" 44 -167 basechar 0
AnchorPoint: "above" 244 484 basechar 0
LayerCount: 2
Fore
SplineSet
-107 -146 m 1
 -79 -95 l 1
 -53 -113 -31 -122 -0 -122 c 0
 36 -122 77 -106 92 -77 c 0
 96 -69 97 -60 99 -52 c 2
 211 472 l 1
 274 472 l 1
 170 -17 l 2
 162 -54 157 -113 87 -154 c 0
 53 -174 25 -175 9 -175 c 0
 -42 -175 -81 -160 -107 -146 c 1
EndSplineSet
EndChar

StartChar: ff
Encoding: 64256 64256 38
Width: 612
Flags: HW
TeX: 694 0
ItalicCorrection: 220
HStem: 0 21G<114 181.265 405 473.218> 422 50<129 204 276 390 568 682> 652 51<335.854 502.011 628.282 794.05>
DStem2: 114 0 177 0 0.207912 0.978148<13.0984 431.49 495.367 648.647> 405 0 469 0 0.207912 0.978148<13.3063 444.589 495.575 647.704>
LayerCount: 2
Fore
SplineSet
405 0 m 1
 522 548 l 2
 544 650 634 703 721 703 c 0
 746 703 771 701 803 695 c 1
 791 638 l 1
 760 648 741 652 710 652 c 0
 668 652 620 639 599 605 c 0
 593 595 591 578 568 472 c 1
 693 472 l 1
 682 422 l 1
 558 422 l 1
 469 0 l 1
 405 0 l 1
EndSplineSet
Refer: 113 102 S 1 0 0 1 0 0 2
Ligature2: "Latin ligatures subtable" f f
EndChar

StartChar: fi
Encoding: 64257 64257 39
Width: 550
Flags: HW
TeX: 694 0
ItalicCorrection: 100
HStem: 0 21G<114 181.265 405 472.28> 422 50<129 204 276 398> 452 20<500.763 569> 632 63<552 602> 652 51<326.915 447.144>
VStem: 405 164 539 76
DStem2: 114 0 177 0 0.207912 0.978148<13.0984 431.49 495.367 658.176> 405 -0 468 -0 0.207912 0.978148<13.0984 482.477>
LayerCount: 2
Fore
SplineSet
114 0 m 1
 204 422 l 1
 118 422 l 1
 129 472 l 1xc0
 214 472 l 1
 229 544 234 569 243 591 c 0
 267 648 323 703 396 703 c 0xa8
 416 703 436 700 456 695 c 1x90
 444 637 l 1
 422 646 409 652 385 652 c 0
 337 652 313 619 305 601 c 0
 300 589 298 576 276 472 c 1xc8
 409 472 l 1xa0
 398 422 l 1
 267 422 l 1
 177 0 l 1
 114 0 l 1
EndSplineSet
Refer: 36 305 S 1 0 0 1 325 -0 2
Refer: 367 183 S 1 0 0 1 396 414 2
Ligature2: "Latin ligatures excepting Turkic subtable" f i
EndChar

StartChar: fl
Encoding: 64258 64258 40
Width: 550
Flags: HW
TeX: 694 0
ItalicCorrection: 96
HStem: 0 21G<114 181.265 405 472.259> 422 50<129 204 276 398> 652 51<327.125 447.235> 675 20<552 616>
VStem: 405 211
DStem2: 114 0 177 0 0.207912 0.978148<13.0984 431.49 495.367 657.8> 405 0 468 0 0.207912 0.978148<13.0984 709.397>
LayerCount: 2
Fore
SplineSet
114 0 m 1
 204 422 l 1
 118 422 l 1
 129 472 l 1
 214 472 l 1
 229 544 234 569 243 591 c 0
 267 648 323 703 396 703 c 0xe8
 416 703 436 700 456 695 c 1xd8
 444 638 l 1
 426 646 409 652 385 652 c 0
 345 652 316 628 305 601 c 0
 300 589 298 576 276 472 c 1
 409 472 l 1
 398 422 l 1
 267 422 l 1
 177 0 l 1
 114 0 l 1
EndSplineSet
Refer: 119 108 S 1 0 0 1 325 0 2
Ligature2: "Latin ligatures subtable" f l
EndChar

StartChar: ffi
Encoding: 64259 64259 41
Width: 842
Flags: HW
TeX: 694 0
ItalicCorrection: 100
HStem: 0 21G<114 181.265 406 473.265 697 764.28> 422 50<129 204 276 398 568 690> 452 20<792.763 861> 632 63<844 894> 652 51<332.004 473.963 618.663 738.896>
VStem: 697 164 831 76
DStem2: 114 0 177 0 0.207912 0.978148<13.0984 431.49 495.367 652.861> 406 0 469 0 0.207912 0.978148<13.0984 444.589 495.367 657.289> 697 0 760 0 0.207912 0.978148<13.0984 482.477>
LayerCount: 2
Fore
SplineSet
114 0 m 1
 204 422 l 1
 118 422 l 1
 129 472 l 1xc0
 214 472 l 1
 236 575 236 577 248 600 c 0
 262 628 313 703 412 703 c 0xa8
 433 703 455 701 483 695 c 1x90
 471 638 l 1
 452 645 430 652 403 652 c 0
 346 652 318 622 308 605 c 0
 302 594 299 579 276 472 c 1xc8
 409 472 l 1xa0
 398 422 l 1
 267 422 l 1
 177 0 l 1
 114 0 l 1
406 0 m 1
 515 515 l 2
 521 543 526 572 538 599 c 0
 550 624 598 703 688 703 c 0xc8
 706 703 725 701 748 695 c 1x90
 736 638 l 1
 717 646 700 652 676 652 c 0
 636 652 608 628 597 601 c 0
 592 589 590 576 568 472 c 1xc8
 701 472 l 1xa0
 690 422 l 1
 559 422 l 1
 469 0 l 1
 406 0 l 1
EndSplineSet
Refer: 36 305 S 1 0 0 1 617 0 2
Refer: 367 183 S 1 0 0 1 688 414 2
Ligature2: "Latin ligatures excepting Turkic subtable" ff i
Ligature2: "Latin ligatures excepting Turkic subtable" f f i
EndChar

StartChar: ffl
Encoding: 64260 64260 42
Width: 842
Flags: HW
TeX: 694 0
ItalicCorrection: 96
HStem: 0 21G<114 181.265 406 473.265 697 764.259> 422 50<129 204 276 398 568 690> 652 51<332.004 473.963 618.421 739.343> 675 20<844 908>
VStem: 697 211
DStem2: 114 0 177 0 0.207912 0.978148<13.0984 431.49 495.367 652.861> 406 0 469 0 0.207912 0.978148<13.0984 444.589 495.367 659.002> 697 0 760 0 0.207912 0.978148<13.0984 709.397>
LayerCount: 2
Fore
SplineSet
114 0 m 1
 204 422 l 1
 118 422 l 1
 129 472 l 1
 214 472 l 1
 236 575 236 577 248 600 c 0
 262 628 313 703 412 703 c 0xe8
 433 703 455 701 483 695 c 1xd8
 471 638 l 1
 452 645 430 652 403 652 c 0
 346 652 318 622 308 605 c 0
 302 594 299 579 276 472 c 1
 409 472 l 1
 398 422 l 1
 267 422 l 1
 177 0 l 1
 114 0 l 1
406 0 m 1
 515 515 l 2
 524 555 531 629 607 678 c 0
 627 691 654 703 689 703 c 0xe8
 709 703 729 700 748 695 c 1xd8
 736 638 l 1
 718 646 701 652 677 652 c 0
 637 652 608 628 597 601 c 0
 592 589 590 576 568 472 c 1
 701 472 l 1
 690 422 l 1
 559 422 l 1
 469 0 l 1
 406 0 l 1
EndSplineSet
Refer: 119 108 S 1 0 0 1 617 0 2
Ligature2: "Latin ligatures subtable" ff l
Ligature2: "Latin ligatures subtable" f f l
EndChar

StartChar: uni2423
Encoding: 9251 9251 43
Width: 525
Flags: HW
TeX: 472 83
ItalicCorrection: 38
HStem: -101 36<65 431>
DStem2: 21.4735 -101 57.348 -101 0.207912 0.978148<44.263 366.759> 423.348 -101 459.348 -101 0.207912 0.978148<36.8043 367.811>
LayerCount: 2
Fore
SplineSet
26 -85 m 0
 26 -82 26 -78 27 -75 c 2
 93 232 l 2
 95 241 97 267 117 267 c 0
 123 267 131 264 131 251 c 0
 131 244 129 237 127 225 c 2
 65 -65 l 1
 431 -65 l 1
 494 231 l 2
 496 240 499 267 519 267 c 0
 524 267 533 264 533 252 c 0
 533 246 532 243 528 223 c 2
 467 -65 l 2
 462 -87 462 -91 447 -99 c 1
 441 -101 436 -101 430 -101 c 2
 48 -101 l 2
 39 -101 26 -101 26 -85 c 0
EndSplineSet
EndChar

StartChar: exclam
Encoding: 33 33 44
Width: 325
Flags: HW
TeX: 694 0
ItalicCorrection: 53
HStem: 0 78<123 201> 675 20G<271 349>
LayerCount: 2
Fore
SplineSet
168 177 m 1
 271 695 l 1
 349 695 l 1
 231 177 l 1
 168 177 l 1
EndSplineSet
Refer: 57 46 N 1 0 0 1 17 0 2
EndChar

StartChar: numbersign
Encoding: 35 35 46
Width: 875
Flags: HW
TeX: 694 166
ItalicCorrection: 53
HStem: -166 21G<160 178.5 397 415.5> 132 51<92.3467 279 361 516 599 847.67> 345 51<137.488 386 469 624 706 893.565> 674 20G<569.5 587.5 806.5 824.5>
DStem2: 152 -120 200 -137 0.450403 0.892825<-25.3758 282.193 364.66 520.558 603.476 816.448> 389 -120 437 -137 0.450403 0.892825<-25.3758 282.193 365.111 521.008 603.476 816.448>
LayerCount: 2
Fore
SplineSet
92 158 m 0
 92 168 97 183 125 183 c 2
 305 183 l 1
 386 345 l 1
 170 345 l 2
 155 345 137 349 137 373 c 0
 137 379 140 396 172 396 c 2
 412 396 l 1
 547 663 l 2
 552 673 560 694 579 694 c 0
 596 694 601 680 603 673 c 1
 603 666 l 1
 601 658 604 662 469 396 c 1
 650 396 l 1
 784 663 l 2
 789 673 797 694 816 694 c 0
 833 694 838 680 840 673 c 1
 840 666 l 1
 838 658 841 662 706 396 c 1
 861 396 l 1
 889 395 894 378 894 370 c 0
 894 360 889 345 861 345 c 2
 680 345 l 1
 599 183 l 1
 816 183 l 2
 839 183 848 170 848 158 c 0
 848 151 845 143 839 139 c 0
 835 136 831 132 813 132 c 2
 573 132 l 1
 437 -137 l 2
 432 -147 425 -166 406 -166 c 0
 388 -166 384 -150 382 -145 c 1
 382 -138 l 1
 383 -132 386 -126 389 -120 c 2
 516 132 l 1
 336 132 l 1
 200 -137 l 2
 195 -147 188 -166 169 -166 c 0
 151 -166 147 -150 145 -145 c 1
 145 -138 l 1
 146 -132 149 -126 152 -120 c 2
 279 132 l 1
 124 132 l 1
 96 133 92 149 92 158 c 0
361 183 m 1
 542 183 l 1
 624 345 l 1
 443 345 l 1
 361 183 l 1
EndSplineSet
EndChar

StartChar: dollar
Encoding: 36 36 47
Width: 525
Flags: HW
TeX: 750 55
ItalicCorrection: 110
HStem: -7 53<159.658 235> 649 53<437 511.289>
VStem: 164 63<444.373 564.298> 449 62<143.559 274.528>
DStem2: 225 -55 276 -55 0.207912 0.978148<10.6035 49.0302 114.949 393.064 468.367 718.825 784.535 822.962>
LayerCount: 2
Fore
SplineSet
60 61 m 1
 82 119 l 1
 132 74 176 53 247 46 c 1
 308 331 l 1
 281 337 164 361 164 481 c 0
 164 571 244 683 386 701 c 1
 396 750 l 1
 447 750 l 1
 437 702 l 1
 497 699 536 683 586 647 c 1
 565 592 l 1
 526 621 497 645 425 649 c 1
 371 391 l 1
 379 389 511 369 511 232 c 0
 511 120 411 8 287 -6 c 1
 286 -7 l 1
 276 -55 l 1
 225 -55 l 1
 235 -7 l 1
 127 1 70 53 60 61 c 1
227 503 m 0
 227 482 233 424 323 403 c 1
 375 648 l 1
 278 632 227 561 227 503 c 0
298 47 m 1
 376 60 449 129 449 211 c 0
 449 250 431 300 356 319 c 1
 298 47 l 1
EndSplineSet
EndChar

StartChar: percent
Encoding: 37 37 48
Width: 875
Flags: HW
TeX: 750 55
ItalicCorrection: 29
HStem: -55 50<626.086 718.039> 297 50<680.688 773.119> 347 51<243.242 337.196> 699 51<297.876 392.337>
VStem: 168 58<415.829 594.182> 413 59<500.278 679.034> 549 59<11.985 193.756> 794 60<96.6044 277.117>
DStem2: 194 -7 216 -44 0.63454 0.77289<-31.4267 982.305>
LayerCount: 2
Fore
SplineSet
168 490 m 0
 168 623 267 750 363 750 c 0
 429 750 472 689 472 605 c 0
 472 479 376 347 278 347 c 0
 212 347 168 407 168 490 c 0
178 -35 m 0
 178 -25 188 -15 194 -7 c 2
 804 736 l 2
 810 743 817 749 825 749 c 0
 835 749 845 740 845 730 c 0
 845 719 837 712 824 696 c 2
 216 -44 l 2
 211 -50 205 -55 197 -55 c 0
 186 -55 178 -45 178 -35 c 0
226 480 m 0
 226 415 263 398 288 398 c 0
 353 398 413 509 413 600 c 0
 413 649 395 699 352 699 c 0
 251 699 226 522 226 480 c 0
EndSplineSet
Refer: 690 8320 S 1 0 0 1 438 0 2
EndChar

StartChar: ampersand
Encoding: 38 38 49
Width: 783
Flags: HW
TeX: 694 0
ItalicCorrection: 46
HStem: -17 53<170.953 361.14 540.297 722.379> 661 50<396.111 490.225>
VStem: 70 67<68.8561 189.868> 279 60<400.019 568.013> 501 59<523.58 651.789>
DStem2: 287 356 297 307 0.797309 0.603571<-229.661 -21.6019 71.4002 263.579>
LayerCount: 2
Fore
SplineSet
70 113 m 0
 70 163 97 206 130 237 c 0
 144 250 160 262 287 356 c 1
 282 382 279 410 279 437 c 0
 279 615 376 711 462 711 c 0
 520 711 560 665 560 599 c 0
 560 550 547 500 402 386 c 0
 386 374 371 361 355 350 c 1
 382 239 475 115 475 115 c 1
 551 162 668 282 737 431 c 1
 787 417 l 1
 746 330 664 200 543 104 c 1
 510 79 l 1
 534 61 562 37 622 37 c 0
 645 37 681 39 735 57 c 1
 724 1 l 1
 683 -10 655 -17 610 -17 c 0
 547 -17 501 3 454 45 c 1
 409 18 321 -17 232 -17 c 0
 139 -17 70 35 70 113 c 0
137 127 m 0
 137 76 177 36 244 36 c 0
 318 36 378 62 420 81 c 1
 381 133 328 206 298 307 c 1
 297 307 l 1
 201 236 137 201 137 127 c 0
339 468 m 0
 339 445 341 422 344 399 c 1
 356 407 416 452 456 495 c 0
 491 533 501 556 501 596 c 0
 501 625 489 661 451 661 c 0
 415 661 339 635 339 468 c 0
EndSplineSet
EndChar

StartChar: quoteright
Encoding: 8217 8217 50
Width: 292
Flags: HW
TeX: 694 0
ItalicCorrection: 69
HStem: 505 190
VStem: 214 119
LayerCount: 2
Fore
SplineSet
214 505 m 1
 261 616 l 1
 238 616 l 1
 254 695 l 1
 333 695 l 1
 322 645 l 1
 315 616 l 1
 253 505 l 1
 214 505 l 1
EndSplineSet
EndChar

StartChar: parenleft
Encoding: 40 40 51
Width: 408
Flags: HW
TeX: 750 222
ItalicCorrection: 130
VStem: 129 63<-53.4475 274.787>
LayerCount: 2
Fore
SplineSet
129 102 m 0
 129 309 222 560 408 713 c 0
 424 726 441 738 458 750 c 1
 509 750 l 1
 291 596 192 310 192 91 c 0
 192 -105 271 -185 302 -222 c 1
 251 -222 l 1
 222 -191 129 -105 129 102 c 0
EndSplineSet
EndChar

StartChar: parenright
Encoding: 41 41 52
Width: 408
Flags: HW
TeX: 750 222
ItalicCorrection: 26
VStem: 326 63<256.458 581.54>
LayerCount: 2
Fore
SplineSet
10 -221 m 1
 219 -74 326 205 326 437 c 0
 326 633 248 714 217 750 c 1
 267 750 l 1
 296 719 389 633 389 426 c 0
 389 221 299 -28 114 -182 c 0
 97 -196 79 -209 61 -222 c 1
 10 -221 l 1
EndSplineSet
EndChar

StartChar: asterisk
Encoding: 42 42 53
Width: 525
Flags: HW
TeX: 750 0
ItalicCorrection: 115
VStem: 367 74<648.324 717.421>
LayerCount: 2
Fore
SplineSet
171 434 m 2
 172 442 l 1
 180 462 166 453 350 535 c 1
 214 609 211 608 211 623 c 0
 211 639 225 655 241 655 c 2
 244 655 l 2
 253 655 256 651 367 558 c 1
 388 715 383 749 420 749 c 0
 430 749 441 742 441 731 c 0
 441 720 432 693 393 558 c 1
 552 656 546 654 557 655 c 1
 557 655 579 655 579 634 c 0
 579 610 572 612 400 535 c 1
 538 460 539 462 539 447 c 0
 539 431 524 415 508 415 c 0
 496 415 484 427 383 511 c 1
 362 352 367 320 330 320 c 0
 319 320 309 328 309 339 c 0
 309 350 318 376 357 511 c 1
 221 427 205 415 192 415 c 0
 176 415 171 430 171 434 c 2
EndSplineSet
EndChar

StartChar: plus
Encoding: 43 43 54
Width: 642
Flags: HW
TeX: 527 -1
ItalicCorrection: 26
HStem: 239 51<115.293 345 408 637.651>
VStem: 405 47<422.247 525.769>
LayerCount: 2
Fore
SplineSet
115 264 m 0
 115 287 137 290 152 290 c 2
 356 290 l 1
 403 511 400 503 405 512 c 0
 409 520 418 526 427 526 c 0
 442 526 452 513 452 502 c 0
 452 492 445 464 408 290 c 1
 604 290 l 2
 633 290 638 274 638 264 c 0
 638 254 634 239 606 239 c 2
 397 239 l 1
 352 28 354 2 326 2 c 0
 314 2 302 14 302 25 c 0
 302 38 311 76 345 239 c 1
 147 239 l 2
 119 239 115 254 115 264 c 0
EndSplineSet
EndChar

StartChar: comma
Encoding: 44 44 55
Width: 292
Flags: HW
TeX: 77 111
HStem: -111 189
VStem: 83 118
LayerCount: 2
Fore
SplineSet
83 -111 m 1
 130 0 l 1
 107 0 l 1
 123 78 l 1
 201 78 l 1
 188 14 l 1
 184 0 l 1
 122 -111 l 1
 83 -111 l 1
EndSplineSet
EndChar

StartChar: hyphen
Encoding: 45 45 56
Width: 350
Flags: HW
TeX: 472 0
ItalicCorrection: 21
HStem: 211 50<66 336>
VStem: 56 290
LayerCount: 2
Fore
SplineSet
56 211 m 1
 66 261 l 1
 346 261 l 1
 336 211 l 1
 56 211 l 1
EndSplineSet
EndChar

StartChar: period
Encoding: 46 46 57
Width: 292
Flags: HW
TeX: 77 0
HStem: 0 78<122 184>
VStem: 106 95
LayerCount: 2
Fore
SplineSet
106 0 m 1
 122 78 l 1
 201 78 l 1
 184 0 l 1
 106 0 l 1
EndSplineSet
EndChar

StartChar: slash
Encoding: 47 47 58
Width: 525
Flags: HW
TeX: 750 222
ItalicCorrection: 130
DStem2: 27 -171 69 -200 0.514776 0.857325<-27.0331 1072.46>
LayerCount: 2
Fore
SplineSet
17 -197 m 0
 17 -187 24 -176 27 -171 c 2
 568 730 l 2
 573 738 581 749 595 749 c 0
 608 749 619 739 619 725 c 0
 619 714 609 700 603 690 c 2
 69 -200 l 2
 56 -220 48 -221 41 -222 c 1
 28 -222 17 -210 17 -197 c 0
EndSplineSet
EndChar

StartChar: zero
Encoding: 48 48 59
Width: 525
Flags: HW
TeX: 656 0
ItalicCorrection: 110
HStem: -17 51<203.156 342.786> 622 50<315.482 461.669>
VStem: 101 63<76.9254 328.196> 501 60<342.064 579.27>
LayerCount: 2
Fore
SplineSet
101 175 m 0
 101 244 115 306 130 368 c 0
 198 652 349 672 404 672 c 0
 467 672 561 643 561 480 c 0
 561 412 547 351 532 289 c 0
 468 21 331 -17 258 -17 c 0
 195 -17 101 13 101 175 c 0
164 168 m 0
 164 52 227 34 269 34 c 0
 424 34 463 268 475 322 c 0
 489 389 501 422 501 490 c 0
 501 605 437 622 394 622 c 0
 230 622 200 395 180 299 c 0
 175 273 164 220 164 168 c 0
EndSplineSet
Substitution2: "LGC old numerals subtable" zerooldstyle
EndChar

StartChar: one
Encoding: 49 49 60
Width: 525
Flags: HW
TeX: 656 0
ItalicCorrection: 110
HStem: 0 50<121 253 318 439> 556 51<234 347.793> 652 20G<423 450>
DStem2: 242.372 0 307.372 0 0.207912 0.978148<64.6313 597.92>
LayerCount: 2
Fore
SplineSet
111 0 m 1
 121 50 l 1
 253 50 l 1
 366 585 l 1
 321 564 272 556 223 556 c 1
 234 607 l 1
 354 607 412 653 434 672 c 1
 450 672 l 1
 318 50 l 1
 449 50 l 1
 439 0 l 1
 111 0 l 1
EndSplineSet
Substitution2: "LGC old numerals subtable" oneoldstyle
EndChar

StartChar: two
Encoding: 50 50 61
Width: 525
Flags: HW
TeX: 656 0
ItalicCorrection: 110
HStem: -0 56<122 472> 619 53<292.171 450.947>
VStem: 508 68<420.833 565.52>
DStem2: 78 65 122 56 0.793261 0.608882<29.4236 431.49>
LayerCount: 2
Fore
SplineSet
52 -0 m 1
 63 53 60 51 78 65 c 2
 263 207 l 1
 366 282 508 371 508 499 c 0
 508 580 438 619 366 619 c 0
 253 619 205 515 178 459 c 1
 151 504 l 1
 176 558 247 672 392 672 c 0
 505 672 576 608 576 511 c 0
 576 360 419 280 306 195 c 2
 122 56 l 1
 484 56 l 1
 472 -0 l 1
 52 -0 l 1
EndSplineSet
Substitution2: "LGC old numerals subtable" twooldstyle
EndChar

StartChar: three
Encoding: 51 51 62
Width: 525
Flags: HW
TeX: 656 0
ItalicCorrection: 110
HStem: -17 52<177.686 356.909> 329 50<255 388.031> 622 50<306.275 472.893>
VStem: 453 70<134.85 287.473> 499 67<477.1 596.012>
LayerCount: 2
Fore
SplineSet
64 96 m 1
 84 147 l 1
 107 107 124 88 154 69 c 0
 184 50 225 35 272 35 c 0
 386 35 453 132 453 218 c 0xf0
 453 321 365 329 329 329 c 2
 245 329 l 1
 255 379 l 1
 347 386 353 385 384 398 c 0
 471 434 499 510 499 546 c 0
 499 599 452 622 399 622 c 0
 325 622 257 581 214 530 c 1
 198 509 l 1
 176 554 l 1
 271 664 370 672 409 672 c 0
 500 672 566 620 566 550 c 0xe8
 566 511 540 414 405 355 c 1
 491 329 523 269 523 213 c 0
 523 104 405 -17 262 -17 c 0
 218 -17 122 -6 64 96 c 1
EndSplineSet
Substitution2: "LGC old numerals subtable" threeoldstyle
EndChar

StartChar: four
Encoding: 52 52 63
Width: 525
Flags: HW
TeX: 656 0
ItalicCorrection: 110
HStem: 0 21G<317 385.199> 181 53<143 356 431 533> 644 20G<427.93 522>
DStem2: 317 0 381 0 0.207912 0.978148<13.3063 185.153 252.588 621.18>
LayerCount: 2
Fore
SplineSet
67 181 m 1
 78 234 l 1
 445 664 l 1
 522 664 l 1
 431 234 l 1
 544 234 l 1
 533 181 l 1
 419 181 l 1
 381 0 l 1
 317 0 l 1
 356 181 l 1
 67 181 l 1
143 234 m 1
 370 234 l 1
 449 607 l 1
 425 566 330 454 143 234 c 1
EndSplineSet
Substitution2: "LGC old numerals subtable" fouroldstyle
EndChar

StartChar: five
Encoding: 53 53 64
Width: 525
Flags: HW
TeX: 656 0
ItalicCorrection: 110
HStem: -17 52<170.059 343.6> 371 51<276.779 419.739> 602 53<281 565>
VStem: 453 68<160.597 337.57>
DStem2: 88.2572 -17 150.103 -17 0.207912 0.978148<332.658 374.034 411.571 645.547>
LayerCount: 2
Fore
SplineSet
65 82 m 1
 104 128 l 1
 128 76 180 35 255 35 c 0
 414 35 453 193 453 266 c 0
 453 343 406 371 354 371 c 0
 331 371 266 367 211 297 c 1
 155 297 l 1
 230 655 l 1
 576 655 l 1
 565 602 l 1
 281 602 l 1
 233 373 l 1
 272 402 314 422 368 422 c 0
 460 422 521 351 521 255 c 0
 521 102 379 -17 244 -17 c 0
 208 -17 117 -9 65 82 c 1
EndSplineSet
Substitution2: "LGC old numerals subtable" fiveoldstyle
EndChar

StartChar: six
Encoding: 54 54 65
Width: 525
Flags: HW
TeX: 656 0
ItalicCorrection: 110
HStem: -17 52<204.504 350.508> 401 50<305.679 424.514> 622 50<366.02 567.332>
VStem: 105 60<75.6229 247.846> 461 64<176.828 365.129>
LayerCount: 2
Fore
SplineSet
105 184 m 0
 105 261 126 349 141 392 c 0
 182 508 301 672 466 672 c 0
 488 672 524 671 575 653 c 1
 564 601 l 1
 522 616 497 622 455 622 c 0
 297 622 209 448 191 333 c 1
 236 400 317 451 401 451 c 0
 500 451 525 343 525 291 c 0
 525 261 517 194 490 141 c 0
 466 94 383 -17 259 -17 c 0
 197 -17 105 16 105 184 c 0
165 164 m 0
 165 105 178 83 194 66 c 0
 213 45 240 35 271 35 c 0
 313 35 341 47 365 65 c 0
 421 107 437 158 449 216 c 0
 459 262 461 278 461 294 c 0
 461 326 450 401 355 401 c 0
 265 401 181 320 171 217 c 1
 169 217 l 1
 167 199 165 182 165 164 c 0
EndSplineSet
Substitution2: "LGC old numerals subtable" sixoldstyle
EndChar

StartChar: seven
Encoding: 55 55 66
Width: 525
Flags: HW
TeX: 656 0
ItalicCorrection: 110
HStem: -8 21G<168 241> 600 55<182 564>
VStem: 168 67<-8 68.8304>
LayerCount: 2
Fore
SplineSet
168 -8 m 1
 230 273 398 470 564 600 c 1
 170 600 l 1
 182 655 l 1
 619 655 l 1
 608 602 l 1
 300 331 247 44 235 -8 c 1
 168 -8 l 1
EndSplineSet
Substitution2: "LGC old numerals subtable" sevenoldstyle
EndChar

StartChar: eight
Encoding: 56 56 67
Width: 525
Flags: HW
TeX: 656 0
ItalicCorrection: 110
HStem: -17 52<186.781 360.602> 329 51<273.047 402.774> 622 50<300.62 479.935>
VStem: 78 66<75.1945 229.692> 162 60<413.011 546.396> 458 64<132.931 286.171> 515 61<455.502 588.191>
LayerCount: 2
Fore
SplineSet
78 145 m 0
 78 229 138 315 270 354 c 1
 195 375 162 427 162 476 c 0
 162 570 273 672 405 672 c 0
 502 672 576 615 576 530 c 0xfa
 576 495 559 400 404 354 c 1
 487 331 522 269 522 213 c 0xfc
 522 105 404 -17 259 -17 c 0
 157 -17 78 48 78 145 c 0
144 143 m 0
 144 57 214 35 269 35 c 0
 404 35 458 141 458 220 c 0xfc
 458 307 385 329 332 329 c 0
 207 329 144 231 144 143 c 0
222 473 m 0
 222 417 261 384 328 380 c 2
 350 379 l 1
 477 383 515 474 515 529 c 0
 515 593 466 622 395 622 c 0xfa
 264 622 222 533 222 473 c 0
EndSplineSet
Substitution2: "LGC old numerals subtable" eightoldstyle
EndChar

StartChar: nine
Encoding: 57 57 68
Width: 525
Flags: HW
TeX: 656 0
ItalicCorrection: 110
HStem: -17 52<142.765 306.344> 204 51<238.486 355.9> 622 50<313.203 460.663>
VStem: 138 64<290.278 480.117> 498 60<408.301 583.957>
LayerCount: 2
Fore
SplineSet
82 29 m 1
 82 30 l 1
 118 75 l 1
 149 49 176 35 224 35 c 0
 317 35 410 111 456 260 c 1
 466 296 l 1
 472 324 l 1
 429 257 346 204 262 204 c 0
 163 204 138 312 138 365 c 0
 138 395 146 460 172 513 c 0
 199 566 284 672 409 672 c 0
 469 672 558 639 558 474 c 0
 558 412 542 316 517 250 c 0
 478 146 367 -17 212 -17 c 0
 148 -17 115 2 82 29 c 1
202 361 m 0
 202 329 213 255 308 255 c 0
 390 255 477 323 492 438 c 1
 494 438 l 1
 496 440 498 488 498 498 c 0
 498 604 437 622 397 622 c 0
 353 622 322 611 291 585 c 0
 243 545 227 503 213 439 c 0
 203 393 202 376 202 361 c 0
EndSplineSet
Substitution2: "LGC old numerals subtable" nineoldstyle
EndChar

StartChar: less
Encoding: 60 60 71
Width: 642
Flags: HW
TeX: 552 25
ItalicCorrection: 59
DStem2: 214 261 165 235 0.8 -0.6<0 424.545> 173 296 214 261 0.869664 0.493645<18.3786 536.961>
LayerCount: 2
Fore
SplineSet
144 264 m 0
 144 282 163 290 173 296 c 2
 624 552 l 2
 630 555 636 558 642 558 c 0
 656 558 667 546 667 533 c 0
 667 514 641 504 637 501 c 2
 214 261 l 1
 532 23 l 2
 541 16 552 9 552 -5 c 0
 552 -19 540 -30 527 -30 c 0
 515 -30 503 -18 493 -11 c 2
 165 235 l 2
 155 242 144 251 144 264 c 0
EndSplineSet
EndChar

StartChar: equal
Encoding: 61 61 72
Width: 642
Flags: HW
TeX: 380 -147
ItalicCorrection: 51
HStem: 142 50<94.2388 616.73> 336 50<135.311 658.685>
LayerCount: 2
Fore
SplineSet
94 167 m 0
 94 191 115 192 127 192 c 2
 587 192 l 1
 614 191 617 175 617 166 c 0
 617 156 612 142 584 142 c 2
 127 142 l 2
 99 142 94 157 94 167 c 0
135 360 m 0
 135 367 138 386 167 386 c 2
 628 386 l 1
 656 385 659 368 659 360 c 0
 659 354 656 336 625 336 c 2
 168 336 l 2
 138 336 135 353 135 360 c 0
EndSplineSet
EndChar

StartChar: greater
Encoding: 62 62 73
Width: 642
Flags: HW
TeX: 552 25
DStem2: 116 27 129 -24 0.869664 0.493645<-32.2404 486.342> 261 539 221 505 0.799411 -0.600784<-38.9388 385.65>
LayerCount: 2
Fore
SplineSet
87 -5 m 0
 87 14 112 24 116 27 c 2
 539 267 l 1
 221 505 l 2
 212 512 201 519 201 533 c 0
 201 547 213 558 226 558 c 0
 238 558 251 546 261 539 c 2
 587 294 l 2
 607 279 608 274 609 263 c 1
 607 249 604 246 580 232 c 2
 129 -24 l 2
 123 -27 117 -30 111 -30 c 0
 97 -30 87 -18 87 -5 c 0
EndSplineSet
EndChar

StartChar: question
Encoding: 63 63 74
Width: 496
Flags: HW
TeX: 694 0
ItalicCorrection: 118
HStem: 0 78<210 272> 652 51<266.956 472.267>
VStem: 194 95 239 63<177 262.188> 493 65<512.97 630.873>
LayerCount: 2
Fore
SplineSet
196 650 m 1
 246 678 310 703 385 703 c 0xd8
 534 703 558 632 558 584 c 0
 558 482 462 431 455 426 c 0
 319 328 313 224 302 177 c 1
 239 177 l 1
 248 222 263 355 412 462 c 0
 429 474 493 503 493 582 c 0
 493 641 444 652 379 652 c 0
 297 652 249 624 204 597 c 1
 196 650 l 1
EndSplineSet
Refer: 57 46 S 1 0 0 1 88 -0 2
EndChar

StartChar: at
Encoding: 64 64 75
Width: 700
Flags: HW
TeX: 694 0
ItalicCorrection: 74
HStem: -8 50<319.19 529.841> 124 51<431.447 554.617> 520 50<494.498 618.996> 652 51<437.326 620.518>
VStem: 124 62<176.114 396.502> 329 62<218.478 396.703> 659 77<346.066 559.866>
LayerCount: 2
Fore
SplineSet
124 272 m 0
 124 499 341 703 556 703 c 0
 663 703 736 649 736 505 c 0
 736 436 715 340 705 311 c 0
 667 203 569 124 478 124 c 0
 388 124 329 195 329 293 c 0
 329 439 452 570 572 570 c 0
 632 570 664 538 672 531 c 1
 665 577 646 652 544 652 c 0
 370 652 186 478 186 281 c 0
 186 144 278 42 419 42 c 0
 502 42 550 64 604 82 c 0
 607 83 615 83 626 83 c 2
 659 83 l 1
 592 33 507 -8 406 -8 c 0
 246 -8 124 104 124 272 c 0
391 300 m 0
 391 228 430 175 489 175 c 0
 572 175 659 281 659 396 c 0
 659 468 620 520 561 520 c 0
 476 520 391 411 391 300 c 0
EndSplineSet
EndChar

StartChar: A
Encoding: 65 65 76
Width: 675
Flags: HW
TeX: 694 0
HStem: 0 21G<29 105.905 568.571 645> 210 53<251 527> 683 20G<437.051 527.442>
DStem2: 29 0 94 0 0.512879 0.858461<33.3371 277.724 339.634 765.471> 524 703 467 630 0.169625 -0.985509<62.2735 434.133 487.891 700.955>
AnchorPoint: "ogonek" 611 0 basechar 0
AnchorPoint: "below" 337 0 basechar 0
AnchorPoint: "above" 488 711 basechar 0
LayerCount: 2
Fore
SplineSet
29 0 m 1
 449 703 l 1
 524 703 l 1
 645 0 l 1
 572 0 l 1
 536 210 l 1
 219 210 l 1
 94 0 l 1
 29 0 l 1
251 263 m 1
 527 263 l 1
 487 499 l 1
 467 630 l 1
 251 263 l 1
EndSplineSet
EndChar

StartChar: B
Encoding: 66 66 77
Width: 687
Flags: HW
TeX: 694 0
ItalicCorrection: 81
HStem: 0 53<178 472.309> 336 50<249 488.162> 641 54<303 567.988>
VStem: 604 67<149.845 266.175> 646 66<479.33 584.328>
DStem2: 99 0 166.734 0 0.207912 0.978148<68.2668 357.557 408.752 669.407>
AnchorPoint: "below" 341 0 basechar 0
AnchorPoint: "above" 493 711 basechar 0
LayerCount: 2
Fore
SplineSet
99 0 m 1
 246 694 l 1
 247 695 l 1
 472 695 l 2
 519 695 576 691 630 662 c 0
 683 633 712 591 712 544 c 0xe8
 712 508 688 407 494 363 c 1
 626 344 671 269 671 214 c 0xf0
 671 114 549 17 408 2 c 0
 388 0 367 0 347 0 c 2
 99 0 l 1
178 53 m 1
 335 53 l 2
 508 53 604 136 604 208 c 0xf0
 604 254 561 336 384 336 c 2
 238 336 l 1
 178 53 l 1
249 386 m 1
 375 386 l 2xe8
 574 386 648 484 646 537 c 1
 641 574 625 595 568 620 c 0
 527 638 486 641 434 641 c 2
 303 641 l 1
 249 386 l 1
EndSplineSet
EndChar

StartChar: C
Encoding: 67 67 78
Width: 671
Flags: HW
TeX: 694 0
ItalicCorrection: 118
HStem: -17 53<327.436 550.88> 658 53<452.853 669.831>
VStem: 146 71<159.134 389.391>
AnchorPoint: "below" 413 0 basechar 0
AnchorPoint: "above" 565 711 basechar 0
LayerCount: 2
Fore
SplineSet
146 263 m 0
 146 485 339 711 565 711 c 0
 657 711 716 690 750 677 c 1
 723 608 l 1
 687 628 647 658 552 658 c 0
 370 658 217 457 217 269 c 0
 217 148 285 36 420 36 c 0
 519 36 554 54 633 97 c 1
 626 39 l 1
 546 -2 505 -17 409 -17 c 0
 239 -17 146 112 146 263 c 0
EndSplineSet
EndChar

StartChar: D
Encoding: 68 68 79
Width: 746
Flags: HW
TeX: 694 0
ItalicCorrection: 74
HStem: 0 53<178 473.187> 641 54<303 584.406>
VStem: 700 68<297.492 528.285>
DStem2: 98 0 166.734 0 0.207912 0.978148<68.4748 669.615>
AnchorPoint: "below" 370 0 basechar 0
AnchorPoint: "above" 521 711 basechar 0
LayerCount: 2
Fore
SplineSet
98 0 m 1
 245 694 l 1
 246 695 l 1
 498 695 l 2
 715 695 768 527 768 422 c 0
 768 210 592 27 406 3 c 0
 385 0 364 0 343 0 c 2
 98 0 l 1
178 53 m 1
 334 53 l 2
 391 53 466 56 547 113 c 0
 655 189 700 315 700 423 c 0
 700 520 654 642 472 642 c 0
 462 642 451 641 441 641 c 2
 303 641 l 1
 178 53 l 1
EndSplineSet
EndChar

StartChar: E
Encoding: 69 69 80
Width: 625
Flags: HW
TeX: 694 0
ItalicCorrection: 118
HStem: 0 56<180 581> 334 53<250 608> 640 53<304 702>
DStem2: 98 0 168.097 0 0.207912 0.978148<71.825 356.017 410.146 668.844>
AnchorPoint: "ogonek" 339 0 basechar 0
AnchorPoint: "below" 339 0 basechar 0
AnchorPoint: "above" 491 711 basechar 0
LayerCount: 2
Fore
SplineSet
98 0 m 1
 245 693 l 1
 713 693 l 1
 702 640 l 1
 304 640 l 1
 250 387 l 1
 619 387 l 1
 608 334 l 1
 239 334 l 1
 180 56 l 1
 593 56 l 1
 581 0 l 1
 98 0 l 1
EndSplineSet
EndChar

StartChar: F
Encoding: 70 70 81
Width: 596
Flags: HW
TeX: 694 0
ItalicCorrection: 133
HStem: 0 21G<98 172.25> 320 53<248 576> 640 53<304 688>
DStem2: 98 0 168 0 0.207912 0.978148<14.5538 341.699 396.036 668.844>
AnchorPoint: "below" 325 0 basechar 0
AnchorPoint: "above" 476 711 basechar 0
LayerCount: 2
Fore
SplineSet
98 0 m 1
 245 693 l 1
 699 693 l 1
 688 640 l 1
 304 640 l 1
 248 373 l 1
 587 373 l 1
 576 320 l 1
 236 320 l 1
 168 0 l 1
 98 0 l 1
EndSplineSet
EndChar

StartChar: G
Encoding: 71 71 82
Width: 700
Flags: HW
TeX: 694 0
ItalicCorrection: 118
HStem: -17 53<328.743 556.758> 275 53<477 623> 658 53<453.753 667.012>
VStem: 146 71<157.485 390.764>
DStem2: 560.995 -17 625.585 -17 0.207912 0.978148<70.3837 298.511>
AnchorPoint: "below" 412 0 basechar 0
AnchorPoint: "above" 563 711 basechar 0
LayerCount: 2
Fore
SplineSet
146 263 m 0
 146 487 341 711 563 711 c 0
 652 711 702 694 761 663 c 1
 735 594 l 1
 709 613 662 658 552 658 c 0
 376 658 217 462 217 269 c 0
 217 148 285 36 420 36 c 0
 460 36 518 43 578 63 c 1
 623 275 l 1
 466 275 l 1
 477 328 l 1
 699 328 l 1
 636 32 l 1
 556 -1 477 -17 408 -17 c 0
 248 -17 146 104 146 263 c 0
EndSplineSet
EndChar

StartChar: H
Encoding: 72 72 83
Width: 708
Flags: HW
TeX: 694 0
ItalicCorrection: 78
HStem: 0 21G<98 172.239 539 613.259> 335 53<250 610> 675 20G<245 316 682.765 757>
DStem2: 98 0 168 0 0.207912 0.978148<14.5538 356.995 411.124 709.397> 539 0 609 0 0.207912 0.978148<14.5538 342.441 396.778 710.584>
AnchorPoint: "below" 353 0 basechar 0
AnchorPoint: "above" 504 711 basechar 0
LayerCount: 2
Fore
SplineSet
98 0 m 1
 245 694 l 1
 246 695 l 1
 316 695 l 1
 250 388 l 1
 622 388 l 1
 687 695 l 1
 757 695 l 1
 609 0 l 1
 539 0 l 1
 610 335 l 1
 239 335 l 1
 168 0 l 1
 98 0 l 1
EndSplineSet
EndChar

StartChar: I
Encoding: 73 73 84
Width: 267
Flags: HW
TeX: 694 0
ItalicCorrection: 133
HStem: 0 21G<98 172.259> 675 20G<245 316>
VStem: 98 218
DStem2: 98 0 168 0 0.207912 0.978148<14.5538 709.397>
AnchorPoint: "ogonek" 133 0 basechar 0
AnchorPoint: "below" 132 0 basechar 0
AnchorPoint: "above" 283 711 basechar 0
LayerCount: 2
Fore
SplineSet
98 0 m 1
 245 694 l 1
 246 695 l 1
 316 695 l 1
 168 0 l 1
 98 0 l 1
EndSplineSet
EndChar

StartChar: J
Encoding: 74 74 85
Width: 483
Flags: HW
TeX: 694 0
ItalicCorrection: 78
HStem: -17 52<116.61 301.334> 675 20G<487 556>
DStem2: 336.064 -17 404.126 -17 0.207912 0.978148<97.9104 727.823>
AnchorPoint: "below" 226 0 basechar 0
AnchorPoint: "above" 524 711 basechar 0
LayerCount: 2
Fore
SplineSet
49 25 m 1
 74 89 l 1
 88 75 127 35 207 35 c 0
 367 35 374 164 379 185 c 2
 487 694 l 1
 487 695 l 1
 556 695 l 1
 446 180 l 2
 441 157 424 -17 219 -17 c 0
 151 -17 94 1 49 25 c 1
EndSplineSet
EndChar

StartChar: K
Encoding: 75 75 86
Width: 704
Flags: HW
TeX: 694 0
ItalicCorrection: 118
HStem: 0 21G<100 170.286 574.187 660> 675 20G<247 314 718.5 793>
DStem2: 100 0 166 0 0.207912 0.978148<13.7222 242.807 325.571 709.397> 231 305 214 224 0.775745 0.631046<0 175.274 244.93 644.441> 454 419 400 375 0.441207 -0.897406<15.6607 433.37>
AnchorPoint: "below" 380 0 basechar 0
AnchorPoint: "above" 531 711 basechar 0
LayerCount: 2
Fore
SplineSet
100 0 m 1
 247 694 l 1
 248 695 l 1
 314 695 l 1
 231 305 l 1
 694 680 l 2
 711 694 713 695 724 695 c 2
 793 695 l 1
 454 419 l 1
 660 0 l 1
 584 0 l 1
 400 375 l 1
 214 224 l 1
 166 0 l 1
 100 0 l 1
EndSplineSet
EndChar

StartChar: L
Encoding: 76 76 87
Width: 567
Flags: HW
TeX: 694 0
HStem: 0 53<179 523> 675 20G<245 316>
DStem2: 98 0 167.734 0 0.207912 0.978148<68.6827 709.397>
AnchorPoint: "below" 310 0 basechar 0
AnchorPoint: "above" 461 711 basechar 0
LayerCount: 2
Fore
SplineSet
98 0 m 1
 245 694 l 1
 246 695 l 1
 316 695 l 1
 179 53 l 1
 534 53 l 1
 523 0 l 1
 98 0 l 1
EndSplineSet
EndChar

StartChar: M
Encoding: 77 77 88
Width: 883
Flags: HW
TeX: 694 0
ItalicCorrection: 78
HStem: 0 21G<101 168.222 717 784.259> 675 20G<248 344.92 822.66 928>
DStem2: 101 0 164 0 0.207912 0.978148<13.0984 656.984> 341 695 303 595 0.187186 -0.982325<55.8021 625.048> 717 0 780 0 0.207912 0.978148<13.0984 644.093>
AnchorPoint: "below" 440 0 basechar 0
AnchorPoint: "above" 591 711 basechar 0
LayerCount: 2
Fore
SplineSet
101 0 m 1
 248 694 l 1
 249 695 l 1
 341 695 l 1
 419 297 l 2
 433 225 447 153 458 81 c 1
 479 118 l 1
 835 695 l 1
 928 695 l 1
 780 0 l 1
 717 0 l 1
 845 599 l 1
 851 630 l 1
 831 596 l 1
 474 17 l 1
 413 17 l 1
 334 426 l 1
 303 595 l 1
 298 630 l 1
 297 630 l 1
 164 0 l 1
 101 0 l 1
EndSplineSet
EndChar

StartChar: N
Encoding: 78 78 89
Width: 708
Flags: HW
TeX: 694 0
ItalicCorrection: 78
HStem: 0 21G<100 167.245 503.333 612.23> 675 20G<247 351.656 692 755>
DStem2: 100 0 163 0 0.207912 0.978148<13.0984 663.268> 345 695 298 636 0.315781 -0.948832<41.1394 671.352> 544.672 0 608 0 0.207912 0.978148<59.2958 709.466>
AnchorPoint: "below" 353 0 basechar 0
AnchorPoint: "above" 504 711 basechar 0
LayerCount: 2
Fore
SplineSet
100 0 m 1
 247 694 l 1
 248 695 l 1
 345 695 l 1
 557 58 l 1
 692 694 l 1
 693 695 l 1
 755 695 l 1
 608 0 l 1
 510 0 l 1
 298 636 l 1
 163 0 l 1
 100 0 l 1
EndSplineSet
EndChar

StartChar: O
Encoding: 79 79 90
Width: 783
Flags: HW
TeX: 694 0
ItalicCorrection: 74
HStem: -17 53<305.459 496.328> 659 52<425.666 627.118>
VStem: 122 72<158.46 392.988> 739 67<311.068 542.474>
AnchorPoint: "ogonek" 391 0 basechar 0
AnchorPoint: "below" 391 0 basechar 0
AnchorPoint: "above" 542 711 basechar 0
LayerCount: 2
Fore
SplineSet
122 264 m 0
 122 495 331 711 542 711 c 0
 701 711 806 590 806 429 c 0
 806 196 598 -17 387 -17 c 0
 232 -17 122 100 122 264 c 0
194 271 m 0
 194 107 297 36 398 36 c 0
 583 36 739 244 739 437 c 0
 739 573 653 659 531 659 c 0
 354 659 194 484 194 271 c 0
EndSplineSet
EndChar

StartChar: P
Encoding: 80 80 91
Width: 658
Flags: HW
TeX: 694 0
ItalicCorrection: 81
HStem: 0 21G<98 172.271> 295 52<240 525.247> 641 54<303 582.755>
VStem: 641 66<447.036 587.619>
DStem2: 98 0 168 0 0.207912 0.978148<14.5538 316.206 368.941 669.615>
AnchorPoint: "below" 326 0 basechar 0
AnchorPoint: "above" 477 711 basechar 0
LayerCount: 2
Fore
SplineSet
98 0 m 1
 245 694 l 1
 246 695 l 1
 485 695 l 2
 543 695 585 687 626 663 c 0
 665 640 707 596 707 527 c 0
 707 408 572 302 426 296 c 1
 367 295 l 1
 231 295 l 1
 168 0 l 1
 98 0 l 1
240 347 m 1
 406 347 l 2
 584 347 641 453 641 523 c 0
 641 580 604 608 583 619 c 0
 541 641 494 641 448 641 c 2
 303 641 l 1
 240 347 l 1
EndSplineSet
EndChar

StartChar: Q
Encoding: 81 81 92
Width: 783
Flags: HW
TeX: 694 111
ItalicCorrection: 74
HStem: -17 52<303.304 485.881> 659 52<432.687 625.915>
VStem: 122 69<152.868 391.996> 738 68<303.654 541.35>
DStem2: 469 195 396 195 0.550918 -0.834559<0 130.928 189.156 189.156>
AnchorPoint: "below" 354 -167 basechar 0
AnchorPoint: "above" 542 711 basechar 0
LayerCount: 2
Fore
SplineSet
122 263 m 0
 122 495 330 711 542 711 c 0
 701 711 806 590 806 429 c 0
 806 258 691 102 573 37 c 1
 671 -111 l 1
 589 -111 l 1
 513 8 l 1
 473 -8 430 -17 387 -17 c 0
 228 -17 122 104 122 263 c 0
191 266 m 0
 191 98 302 35 398 35 c 0
 425 35 453 39 487 50 c 1
 396 195 l 1
 469 195 l 1
 546 78 l 1
 675 156 738 305 738 430 c 0
 738 585 638 659 531 659 c 0
 347 659 191 464 191 266 c 0
EndSplineSet
EndChar

StartChar: R
Encoding: 82 82 93
Width: 671
Flags: HW
TeX: 694 0
ItalicCorrection: 81
HStem: -0 21G<98 171.224 561.87 641> 322 51<246 424> 641 54<303 590.237>
VStem: 656 66<462.264 589.587>
DStem2: 98 -0 167 -0 0.207912 0.978148<14.3459 343.447 395.62 669.615> 488 330 424 322 0.420627 -0.907234<0 334.299>
AnchorPoint: "below" 326 0 basechar 0
AnchorPoint: "above" 477 711 basechar 0
LayerCount: 2
Fore
SplineSet
98 -0 m 1
 245 694 l 1
 246 695 l 1
 478 695 l 2
 668 695 722 598 722 534 c 0
 722 433 603 350 488 330 c 1
 641 -0 l 1
 571 -0 l 1
 424 322 l 1
 235 322 l 1
 167 -0 l 1
 98 -0 l 1
246 373 m 1
 402 373 l 1
 461 375 533 375 594 420 c 0
 629 445 656 485 656 529 c 0
 656 582 618 608 597 618 c 0
 553 640 502 641 453 641 c 2
 303 641 l 1
 246 373 l 1
EndSplineSet
EndChar

StartChar: S
Encoding: 83 83 94
Width: 583
Flags: HW
TeX: 694 0
ItalicCorrection: 89
HStem: -17 57<180.795 394.594> 656 55<332.764 541.183>
VStem: 166 66<452.347 569.206> 502 66<140.76 266.17>
AnchorPoint: "below" 289 0 basechar 0
AnchorPoint: "above" 445 711 basechar 0
LayerCount: 2
Fore
SplineSet
58 53 m 1
 84 122 l 1
 99 109 170 40 297 40 c 0
 417 40 502 128 502 204 c 0
 502 264 454 294 433 304 c 0
 362 337 236 327 183 423 c 0
 173 441 166 463 166 489 c 0
 166 597 285 711 445 711 c 0
 526 711 574 694 628 663 c 1
 601 594 l 1
 571 618 534 656 433 656 c 0
 319 656 232 582 232 509 c 0
 232 473 256 437 300 418 c 0
 333 404 428 388 465 372 c 0
 500 357 568 313 568 224 c 0
 568 107 443 -17 285 -17 c 0
 213 -17 133 0 58 53 c 1
EndSplineSet
EndChar

StartChar: T
Encoding: 84 84 95
Width: 725
Flags: HW
TeX: 694 0
ItalicCorrection: 133
HStem: 0 21G<327 401.232> 639 53<184 463 533 822>
DStem2: 327 0 397 0 0.207912 0.978148<14.5538 653.312>
AnchorPoint: "below" 361 0 basechar 0
AnchorPoint: "above" 512 711 basechar 0
LayerCount: 2
Fore
SplineSet
173 639 m 1
 184 692 l 1
 833 692 l 1
 822 639 l 1
 533 639 l 1
 532 638 l 1
 397 0 l 1
 327 0 l 1
 463 639 l 1
 173 639 l 1
EndSplineSet
EndChar

StartChar: U
Encoding: 85 85 96
Width: 692
Flags: HW
TeX: 694 0
ItalicCorrection: 78
HStem: -17 53<270.745 445.83> 675 20G<245 315 675 740>
VStem: 141 69<94.4681 295.812>
DStem2: 93.6967 -17 164.233 -17 0.207912 0.978148<212.704 727.899> 523.872 -17 588.547 -17 0.207912 0.978148<160.514 726.884>
AnchorPoint: "ogonek" 347 0 basechar 0
AnchorPoint: "below" 347 0 basechar 0
AnchorPoint: "above" 495 711 basechar 0
LayerCount: 2
Fore
SplineSet
141 180 m 0
 141 213 148 238 153 262 c 2
 245 694 l 1
 245 695 l 1
 315 695 l 1
 228 283 l 2
 220 247 210 211 210 174 c 0
 210 85 270 36 355 36 c 0
 558 36 583 261 583 261 c 1
 675 694 l 1
 676 695 l 1
 740 695 l 1
 647 258 l 2
 640 227 627 132 528 52 c 0
 476 10 410 -17 343 -17 c 0
 229 -17 141 62 141 180 c 0
EndSplineSet
EndChar

StartChar: V
Encoding: 86 86 97
Width: 675
Flags: HW
TeX: 694 0
ItalicCorrection: 162
HStem: -5 21G<293.143 387.343> 675 20G<162 239.803 728.621 807>
DStem2: 236 695 162 695 0.189368 -0.981906<0 641.136> 355 65 375 -5 0.525182 0.85099<0 738.844>
AnchorPoint: "below" 337 0 basechar 0
AnchorPoint: "above" 488 711 basechar 0
LayerCount: 2
Fore
SplineSet
162 695 m 1
 236 695 l 1
 340 148 l 1
 355 65 l 1
 499 304 l 1
 741 695 l 1
 807 695 l 1
 375 -5 l 1
 297 -5 l 1
 162 695 l 1
EndSplineSet
EndChar

StartChar: W
Encoding: 87 87 98
Width: 967
Flags: HW
TeX: 694 0
ItalicCorrection: 162
HStem: -5 21G<223.2 305.223 664.249 748.314> 675 20G<162 238.5 586.776 668.765 1027.75 1099>
VStem: 162 68<617.222 695>
DStem2: 392 294 570 533 0.455189 0.890395<-216.89 400.68> 703 287 628 429 0.0856871 -0.996322<-347.41 222.469> 718 65 738 -5 0.458352 0.888771<0 706.598>
AnchorPoint: "below" 482 0 basechar 0
AnchorPoint: "above" 633 711 basechar 0
LayerCount: 2
Fore
SplineSet
162 695 m 1
 230 695 l 1
 247 506 277 191 280 65 c 1
 295 100 l 1
 392 294 l 1
 597 695 l 1
 667 695 l 1
 703 287 l 1
 718 102 l 1
 718 65 l 1
 796 223 l 1
 1038 695 l 1
 1099 695 l 1
 738 -5 l 1
 666 -5 l 1
 628 429 l 1
 619 550 615 590 615 630 c 1
 570 533 l 1
 295 -5 l 1
 225 -5 l 1
 162 695 l 1
EndSplineSet
EndChar

StartChar: X
Encoding: 88 88 99
Width: 675
Flags: HW
TeX: 694 0
ItalicCorrection: 133
HStem: 0 21G<14 113.994 562.868 659> 675 20G<176 273.345 662.8 763>
DStem2: 14 0 95 0 0.692964 0.720973<56.1301 494.674 582.766 963.976> 262 695 176 695 0.496946 -0.867782<0 316.163 394.241 758.155>
AnchorPoint: "below" 336 0 basechar 0
AnchorPoint: "above" 488 711 basechar 0
LayerCount: 2
Fore
SplineSet
14 0 m 1
 370 366 l 1
 370 367 l 1
 176 695 l 1
 262 695 l 1
 418 420 l 1
 682 695 l 1
 763 695 l 1
 444 367 l 1
 659 0 l 1
 574 0 l 1
 397 318 l 1
 95 0 l 1
 14 0 l 1
EndSplineSet
EndChar

StartChar: Y
Encoding: 89 89 100
Width: 675
Flags: HW
TeX: 694 0
ItalicCorrection: 173
HStem: 0 21G<303 375.292> 675 20G<150 245.142 723.416 819>
DStem2: 235 695 150 695 0.452556 -0.891736<0 395.79> 303 0 371 0 0.207912 0.978148<14.138 280.704> 414 342 447 295 0.681013 0.732272<0 481.864>
AnchorPoint: "below" 337 0 basechar 0
AnchorPoint: "above" 488 711 basechar 0
LayerCount: 2
Fore
SplineSet
150 695 m 1
 235 695 l 1
 414 342 l 1
 742 695 l 1
 819 695 l 1
 447 295 l 2
 426 273 431 277 424 247 c 2
 371 0 l 1
 303 0 l 1
 359 264 l 2
 360 269 360 272 360 275 c 0
 360 280 358 284 353 295 c 2
 150 695 l 1
EndSplineSet
EndChar

StartChar: Z
Encoding: 90 90 101
Width: 642
Flags: HW
TeX: 694 0
ItalicCorrection: 118
HStem: 0 53<163 589> 643 52<220 626>
DStem2: 65 35 163 53 0.678129 0.734942<79.6857 827.276>
AnchorPoint: "below" 323 0 basechar 0
AnchorPoint: "above" 474 711 basechar 0
LayerCount: 2
Fore
SplineSet
58 0 m 1
 65 35 l 1
 626 643 l 1
 209 643 l 1
 220 695 l 1
 731 695 l 1
 723 660 l 1
 163 53 l 1
 600 53 l 1
 589 0 l 1
 58 0 l 1
EndSplineSet
EndChar

StartChar: bracketleft
Encoding: 91 91 102
Width: 294
Flags: HW
TeX: 750 222
ItalicCorrection: 159
HStem: -222 50<140 223> 700 50<325 419>
DStem2: 66 -222 129.372 -222 0.207912 0.978148<64.2928 955.701>
LayerCount: 2
Fore
SplineSet
66 -222 m 1
 272 750 l 1
 430 750 l 1
 419 700 l 1
 325 700 l 1
 140 -172 l 1
 234 -172 l 1
 223 -222 l 1
 66 -222 l 1
EndSplineSet
EndChar

StartChar: backslash
Encoding: 92 92 103
Width: 525
Flags: HW
TeX: 750 222
DStem2: 266 706 215 705 0.172705 -0.984974<-25.6207 915.456>
LayerCount: 2
Fore
SplineSet
213 723 m 0
 213 744 229 749 237 749 c 0
 262 749 264 720 266 706 c 2
 421 -177 l 2
 422 -183 424 -190 424 -196 c 0
 424 -213 411 -222 399 -222 c 0
 373 -222 372 -192 370 -179 c 2
 215 705 l 2
 214 711 213 717 213 723 c 0
EndSplineSet
EndChar

StartChar: bracketright
Encoding: 93 93 104
Width: 294
Flags: HW
TeX: 750 222
ItalicCorrection: 74
HStem: -222 50<-13 81> 700 50<183 266>
DStem2: 70.3722 -222 133 -222 0.207912 0.978148<51.117 942.525>
LayerCount: 2
Fore
SplineSet
-24 -222 m 1
 -13 -172 l 1
 81 -172 l 1
 266 700 l 1
 172 700 l 1
 183 750 l 1
 340 750 l 1
 133 -222 l 1
 -24 -222 l 1
EndSplineSet
EndChar

StartChar: asciicircum
Encoding: 94 94 105
Width: 642
Flags: HW
TeX: 694 0
ItalicCorrection: 81
HStem: 472 148
DStem2: 238 472 288 472 0.785738 0.61856<39.2869 237.042> 478 620 446 591 0.645248 -0.763973<1.5073 161.462>
LayerCount: 2
Fore
SplineSet
238 472 m 1
 426 620 l 1
 478 620 l 1
 603 472 l 1
 553 472 l 1
 446 591 l 1
 288 472 l 1
 238 472 l 1
EndSplineSet
EndChar

StartChar: underscore
Encoding: 95 95 106
Width: 817
Flags: HW
TeX: 0 263
HStem: -264 40<36.2773 675.984>
LayerCount: 2
Fore
SplineSet
36 -243 m 1
 37 -236 39 -224 63 -224 c 2
 641 -224 l 2
 655 -224 676 -223 676 -244 c 0
 676 -264 654 -264 648 -264 c 2
 65 -264 l 2
 39 -264 38 -253 36 -243 c 1
EndSplineSet
EndChar

StartChar: a
Encoding: 97 97 108
Width: 492
Flags: HW
TeX: 472 0
ItalicCorrection: 17
HStem: -8 50<159.062 276.026> -0 21G<347 415.258> 234 31<275.592 396> 438 47<230.496 393.869>
VStem: 76 64<61.9635 155.888> 418 65<266.909 413.986>
DStem2: 345.3 -8 409.3 -8 0.207912 0.978148<21.4851 78.7896 87.1862 247.253 275.929 366.467>
AnchorPoint: "ogonek" 379 0 basechar 0
AnchorPoint: "affricate-below" 457 -167 basechar 0
AnchorPoint: "affricate-above" 640 695 basechar 0
AnchorPoint: "below" 246 0 basechar 0
AnchorPoint: "above" 349 484 basechar 0
LayerCount: 2
Fore
SplineSet
76 86 m 0
 76 158 137 259 402 265 c 1
 413 317 418 335 418 352 c 0
 418 387 401 438 335 438 c 0
 256 438 197 401 169 386 c 1
 177 453 173 439 198 452 c 1
 240 470 288 485 349 485 c 0
 438 485 483 424 483 357 c 0
 483 338 480 324 477 310 c 2
 411 -0 l 1
 347 -0 l 1x7c
 362 69 l 1
 307 14 230 -8 162 -8 c 0
 93 -8 76 49 76 86 c 0
140 104 m 0xbc
 140 67 177 42 228 42 c 0
 287 42 353 71 372 125 c 0
 376 135 378 147 396 234 c 1
 233 233 140 169 140 104 c 0xbc
EndSplineSet
EndChar

StartChar: b
Encoding: 98 98 109
Width: 517
Flags: HW
TeX: 694 0
ItalicCorrection: 23
HStem: -8 50<200.989 336.563> 0 21G<80 149.242> 430 50<304.695 415.984> 675 20G<227 291>
VStem: 463 64<190.177 383.432>
DStem2: 78.2995 -8 143.3 -8 0.207912 0.978148<21.693 89.1615 163.162 426.646 435.307 717.576>
AnchorPoint: "affricate-below" 482 -167 basechar 0
AnchorPoint: "affricate-above" 665 695 basechar 0
AnchorPoint: "below" 274 0 basechar 0
AnchorPoint: "above" 422 695 basechar 0
LayerCount: 2
Fore
SplineSet
80 0 m 1x78
 227 694 l 1
 228 695 l 1
 291 695 l 1
 229 405 l 1
 263 438 320 480 396 480 c 0
 487 480 527 391 527 306 c 0
 527 145 402 -8 272 -8 c 0xb8
 216 -8 181 21 159 66 c 1
 145 0 l 1
 80 0 l 1x78
170 116 m 0xb8
 170 106 183 42 253 42 c 0
 314 42 411 79 448 209 c 0
 457 240 463 272 463 304 c 0
 463 404 393 430 347 430 c 0
 293 430 253 400 221 362 c 1
 172 129 170 121 170 116 c 0xb8
EndSplineSet
EndChar

StartChar: c
Encoding: 99 99 110
Width: 467
Flags: HW
TeX: 472 0
ItalicCorrection: 88
HStem: -8 52<204.532 373.754> 433 52<279.608 465.24>
VStem: 90 64<94.7366 286.88>
AnchorPoint: "affricate-below" 432 -167 basechar 0
AnchorPoint: "affricate-above" 615 695 basechar 0
AnchorPoint: "below" 265 0 basechar 0
AnchorPoint: "above" 373 484 basechar 0
LayerCount: 2
Fore
SplineSet
90 179 m 0
 90 323 213 485 373 485 c 0
 458 485 490 463 525 442 c 1
 504 387 l 1
 467 412 439 433 362 433 c 0
 217 433 154 276 154 179 c 0
 154 103 194 44 274 44 c 0
 365 44 422 88 455 111 c 1
 449 55 l 1
 405 24 344 -8 263 -8 c 0
 152 -8 90 77 90 179 c 0
EndSplineSet
EndChar

StartChar: d
Encoding: 100 100 111
Width: 517
Flags: HW
TeX: 694 0
ItalicCorrection: 96
HStem: -8 50<199.088 310.183> 0 21G<371 439.259> 430 50<280.229 413.935> 675 20G<515.719 583>
VStem: 89 64<89.1595 283.204>
DStem2: 369.3 -8 433.3 -8 0.207912 0.978148<21.4851 82.7022 91.4723 381.506 427.515 718.97>
AnchorPoint: "affricate-below" 482 -167 basechar 0
AnchorPoint: "affricate-above" 665 695 basechar 0
AnchorPoint: "below" 241 0 basechar 0
AnchorPoint: "above" 388 695 basechar 0
LayerCount: 2
Fore
SplineSet
89 168 m 0
 89 330 215 480 338 480 c 0
 421 480 452 420 459 410 c 1
 520 695 l 1
 583 695 l 1
 435 0 l 1
 371 0 l 1x78
 386 73 l 1
 318 -1 254 -8 226 -8 c 0
 144 -8 89 66 89 168 c 0
153 168 m 0xb8
 153 67 222 42 271 42 c 0
 311 42 346 64 372 91 c 1
 397 120 396 118 401 141 c 0
 439 319 447 358 447 367 c 0
 447 380 424 430 363 430 c 0
 315 430 184 405 156 208 c 0
 154 195 153 181 153 168 c 0xb8
EndSplineSet
EndChar

StartChar: e
Encoding: 101 101 112
Width: 467
Flags: HW
TeX: 472 0
ItalicCorrection: 64
HStem: -8 50<205.199 366.575> 250 40<169 442.978> 434 50<271.08 407.021>
VStem: 87 61<103.027 246.426> 443 54<290.461 396.163>
AnchorPoint: "ogonek" 264 0 basechar 0
AnchorPoint: "affricate-below" 432 -167 basechar 0
AnchorPoint: "affricate-above" 615 695 basechar 0
AnchorPoint: "below" 264 0 basechar 0
AnchorPoint: "above" 351 484 basechar 0
LayerCount: 2
Fore
SplineSet
87 180 m 0
 87 333 217 484 351 484 c 0
 415 484 497 453 497 331 c 0
 497 304 492 277 487 250 c 1
 156 250 l 1
 151 225 148 213 148 188 c 0
 148 112 192 42 274 42 c 0
 361 42 424 92 450 111 c 1
 443 57 l 1
 399 24 334 -8 262 -8 c 0
 151 -8 87 78 87 180 c 0
169 290 m 1
 442 290 l 1
 443 299 443 308 443 318 c 0
 443 411 386 434 341 434 c 0
 272 434 203 371 169 290 c 1
EndSplineSet
EndChar

StartChar: f
Encoding: 102 102 113
Width: 321
Flags: HW
TeX: 694 0
ItalicCorrection: 220
HStem: 0 21G<114 181.265> 422 50<129 204 276 390> 652 51<335.854 502.011>
DStem2: 114 0 177 0 0.207912 0.978148<13.0984 431.49 495.367 648.647>
AnchorPoint: "affricate-below" 286 -167 basechar 0
AnchorPoint: "affricate-above" 469 695 basechar 0
AnchorPoint: "above" 428 695 basechar 0
AnchorPoint: "below" 145 0 basechar 0
LayerCount: 2
Fore
SplineSet
114 0 m 1
 204 422 l 1
 118 422 l 1
 129 472 l 1
 214 472 l 1
 234 567 234 573 248 598 c 0
 278 653 343 703 430 703 c 0
 446 703 472 702 512 695 c 1
 499 638 l 1
 468 648 449 652 418 652 c 0
 376 652 329 639 308 605 c 0
 302 595 299 578 276 472 c 1
 401 472 l 1
 390 422 l 1
 267 422 l 1
 177 0 l 1
 114 0 l 1
EndSplineSet
EndChar

StartChar: g
Encoding: 103 103 114
Width: 517
Flags: HW
TeX: 472 166
ItalicCorrection: 48
HStem: -184 50<108.688 296.726> 17 50<207.203 311.892> 430 50<288.843 412.533>
VStem: 91 66<120.177 287.536>
DStem2: 331.32 -184 396.088 -184 0.207912 0.978148<106.038 315.903 318.783 578.808 590.314 679.155>
AnchorPoint: "affricate-below" 482 -167 basechar 0
AnchorPoint: "affricate-above" 665 695 basechar 0
AnchorPoint: "below" 222 -167 basechar 0
AnchorPoint: "above" 343 484 basechar 0
LayerCount: 2
Fore
SplineSet
43 -139 m 1
 54 -85 l 1
 94 -107 136 -134 228 -134 c 2
 231 -134 l 2
 241 -134 270 -133 302 -109 c 0
 364 -63 372 -6 397 125 c 1
 372 83 316 17 236 17 c 0
 167 17 91 67 91 184 c 0
 91 323 212 480 345 480 c 0
 411 480 441 437 456 393 c 1
 474 480 l 1
 538 480 l 1
 442 32 l 2
 434 -5 432 -24 415 -57 c 0
 384 -117 315 -184 218 -184 c 0
 138 -184 92 -166 43 -139 c 1
157 196 m 0
 157 109 218 67 274 67 c 0
 397 67 428 261 443 331 c 1
 439 377 427 430 363 430 c 0
 261 430 157 311 157 196 c 0
EndSplineSet
EndChar

StartChar: h
Encoding: 104 104 115
Width: 517
Flags: HW
TeX: 694 0
ItalicCorrection: 25
HStem: 0 21G<80 149.183 371 439.277> 430 50<311.249 423.155> 675 20G<227 291>
VStem: 444 67<254.203 410.21>
DStem2: 80 0 145 0 0.207912 0.978148<13.5143 399.489 399.679 709.397> 371 0 435 0 0.207912 0.978148<13.3063 364.758>
AnchorPoint: "affricate-below" 482 -167 basechar 0
AnchorPoint: "affricate-above" 665 695 basechar 0
AnchorPoint: "below" 257 0 basechar 0
AnchorPoint: "above" 405 695 basechar 0
LayerCount: 2
Fore
SplineSet
80 0 m 1
 227 694 l 1
 228 695 l 1
 291 695 l 1
 224 378 l 1
 253 422 311 480 394 480 c 0
 466 480 511 451 511 380 c 0
 511 359 507 338 503 318 c 2
 435 0 l 1
 371 0 l 1
 439 320 l 2
 441 332 444 345 444 358 c 0
 444 416 396 430 350 430 c 0
 320 430 233 416 200 263 c 2
 145 0 l 1
 80 0 l 1
EndSplineSet
EndChar

StartChar: j
Encoding: 106 106 117
Width: 254
Flags: HW
TeX: 694 166
ItalicCorrection: 96
HStem: -175 53<-74.1394 70.3816> 452 20G<206.725 274> 631 63<257 307>
VStem: 244 76
DStem2: 72.8555 -175 136.416 -175 0.207912 0.978148<70.0392 661.583>
AnchorPoint: "affricate-below" 219 -167 basechar 0
AnchorPoint: "affricate-above" 402 695 basechar 0
AnchorPoint: "below" 44 -167 basechar 0
LayerCount: 2
Fore
SplineSet
-107 -146 m 1
 -83 -95 l 1
 -56 -113 -34 -122 -2 -122 c 0
 33 -122 75 -107 91 -78 c 0
 95 -70 97 -61 99 -52 c 2
 211 472 l 1
 274 472 l 1
 170 -17 l 2
 162 -54 157 -113 87 -154 c 0
 53 -174 25 -175 9 -175 c 0
 -42 -175 -81 -160 -107 -146 c 1
EndSplineSet
Refer: 367 183 S 1 0 0 1 101 413 2
EndChar

StartChar: k
Encoding: 107 107 118
Width: 487
Flags: HW
TeX: 694 0
ItalicCorrection: 88
HStem: 0 21G<82 158 390.635 469> 452 20G<442.947 546> 675 20G<229 290>
DStem2: 82 0 141 0 0.207912 0.978148<12.2668 178.938 262.932 709.397> 194 245 282 252 0.768913 0.639353<1.56999 72.1399 136.669 355.046> 331 294 282 252 0.424907 -0.905237<17.1995 295.458>
AnchorPoint: "affricate-below" 452 -167 basechar 0
AnchorPoint: "affricate-above" 635 695 basechar 0
AnchorPoint: "below" 275 0 basechar 0
AnchorPoint: "above" 423 695 basechar 0
LayerCount: 2
Fore
SplineSet
82 0 m 1
 229 694 l 1
 230 695 l 1
 290 695 l 1
 194 245 l 1
 467 472 l 1
 546 472 l 1
 331 294 l 1
 469 0 l 1
 400 0 l 1
 282 252 l 1
 178 165 180 168 177 163 c 0
 174 158 175 162 141 0 c 1
 82 0 l 1
EndSplineSet
EndChar

StartChar: l
Encoding: 108 108 119
Width: 225
Flags: HW
TeX: 694 0
ItalicCorrection: 96
HStem: 0 21G<80 147.259> 675 20G<227 291>
VStem: 80 211
DStem2: 80 0 143 0 0.207912 0.978148<13.0984 709.397>
AnchorPoint: "affricate-below" 190 -167 basechar 0
AnchorPoint: "affricate-above" 373 695 basechar 0
AnchorPoint: "below" 111 0 basechar 0
AnchorPoint: "above" 259 695 basechar 0
LayerCount: 2
Fore
SplineSet
80 0 m 1
 227 694 l 1
 228 695 l 1
 291 695 l 1
 143 0 l 1
 80 0 l 1
EndSplineSet
EndChar

StartChar: m
Encoding: 109 109 120
Width: 808
Flags: HW
TeX: 472 0
ItalicCorrection: 25
HStem: -0 21G<80 149.183 371 440.259 663 731.263> 430 50<310.361 423.418 602.511 714.655> 452 20G<175.763 242>
VStem: 444 68<372 409.823> 735 68<254.602 410.21>
DStem2: 80 -0 145 -0 0.207912 0.978148<13.5143 482.477> 371 -0 436 -0 0.207912 0.978148<13.5143 364.758> 663 -0 727 -0 0.207912 0.978148<13.3063 364.55>
AnchorPoint: "affricate-below" 773 -167 basechar 0
AnchorPoint: "affricate-above" 956 695 basechar 0
AnchorPoint: "below" 403 0 basechar 0
AnchorPoint: "above" 506 484 basechar 0
LayerCount: 2
Fore
SplineSet
80 -0 m 1
 180 472 l 1
 242 472 l 1xb8
 222 375 l 1
 250 418 309 480 394 480 c 0xd8
 508 480 512 411 512 372 c 1
 538 416 599 480 686 480 c 0
 758 480 803 451 803 380 c 0
 803 359 799 339 795 319 c 2
 727 -0 l 1
 663 -0 l 1
 731 320 l 2
 733 332 735 345 735 358 c 0
 735 416 687 430 641 430 c 0
 611 430 525 416 492 263 c 2
 436 -0 l 1
 371 -0 l 1
 439 320 l 2
 441 332 444 345 444 358 c 0
 444 416 396 430 350 430 c 0xd8
 320 430 233 416 200 263 c 2
 145 -0 l 1
 80 -0 l 1
EndSplineSet
EndChar

StartChar: n
Encoding: 110 110 121
Width: 517
Flags: HW
TeX: 472 0
ItalicCorrection: 25
HStem: -0 21G<80 149.183 371 439.263> 430 50<310.493 423.155> 452 20G<175.763 242>
VStem: 444 67<254.602 410.21>
DStem2: 80 -0 145 -0 0.207912 0.978148<13.5143 482.477> 371 -0 435 -0 0.207912 0.978148<13.3063 364.758>
AnchorPoint: "affricate-below" 482 -167 basechar 0
AnchorPoint: "affricate-above" 665 695 basechar 0
AnchorPoint: "below" 257 0 basechar 0
AnchorPoint: "above" 360 484 basechar 0
LayerCount: 2
Fore
SplineSet
80 -0 m 1
 180 472 l 1
 242 472 l 1xb0
 222 375 l 1
 251 420 309 480 394 480 c 0xd0
 466 480 511 451 511 380 c 0
 511 359 507 339 503 319 c 2
 435 -0 l 1
 371 -0 l 1
 439 320 l 2
 441 332 444 345 444 358 c 0
 444 416 396 430 350 430 c 0xd0
 320 430 233 416 200 263 c 2
 145 -0 l 1
 80 -0 l 1
EndSplineSet
EndChar

StartChar: o
Encoding: 111 111 122
Width: 525
Flags: HW
TeX: 472 0
ItalicCorrection: 70
HStem: -8 52<198.983 350.633> 434 50<271.872 428.278>
VStem: 84 65<95.4875 285.973> 478 62<197.77 384.46>
AnchorPoint: "ogonek" 262 0 basechar 0
AnchorPoint: "affricate-below" 490 -167 basechar 0
AnchorPoint: "affricate-above" 673 695 basechar 0
AnchorPoint: "below" 262 0 basechar 0
AnchorPoint: "above" 364 484 basechar 0
LayerCount: 2
Fore
SplineSet
84 180 m 0
 84 334 223 484 365 484 c 0
 470 484 540 402 540 293 c 0
 540 132 398 -8 260 -8 c 0
 154 -8 84 73 84 180 c 0
149 178 m 0
 149 71 220 44 271 44 c 0
 409 44 478 198 478 305 c 0
 478 408 405 434 354 434 c 0
 231 434 149 313 149 178 c 0
EndSplineSet
EndChar

StartChar: p
Encoding: 112 112 123
Width: 517
Flags: HW
TeX: 472 166
ItalicCorrection: 32
HStem: -167 21G<45 114.206> -8 50<201.108 329.31> 428 52<307.035 407.955> 452 20G<176.743 244>
VStem: 461 67<191.215 372.97>
DStem2: 45 -167 110 -167 0.207912 0.978148<13.5143 251.61 304.147 589.214 596.986 653.312>
AnchorPoint: "affricate-below" 482 -167 basechar 0
AnchorPoint: "affricate-above" 665 695 basechar 0
AnchorPoint: "below" 239 -167 basechar 0
AnchorPoint: "above" 378 484 basechar 0
LayerCount: 2
Fore
SplineSet
45 -167 m 1
 181 472 l 1
 244 472 l 1xd8
 230 404 l 1
 305 476 374 480 398 480 c 0
 490 480 528 390 528 307 c 0
 528 138 397 -8 272 -8 c 0
 196 -8 169 47 159 66 c 1
 110 -167 l 1
 45 -167 l 1
170 115 m 0
 170 102 187 42 252 42 c 0
 355 42 461 158 461 287 c 0xe8
 461 369 414 428 344 428 c 0
 335 428 292 427 247 388 c 1
 220 362 222 362 218 342 c 0
 173 130 170 121 170 115 c 0
EndSplineSet
EndChar

StartChar: q
Encoding: 113 113 124
Width: 517
Flags: HW
TeX: 472 166
ItalicCorrection: 48
HStem: -167 21G<335 404.266> -8 50<206.719 312.028> 428 52<285.636 412.611>
VStem: 89 66<97.8014 282.574>
DStem2: 335 -167 400 -167 0.207912 0.978148<13.5143 249.479 256.353 511.705 571.942 661.761>
AnchorPoint: "affricate-below" 482 -167 basechar 0
AnchorPoint: "affricate-above" 665 695 basechar 0
AnchorPoint: "below" 205 -167 basechar 0
AnchorPoint: "above" 343 484 basechar 0
LayerCount: 2
Fore
SplineSet
89 169 m 0
 89 335 221 480 344 480 c 0
 411 480 440 437 456 392 c 1
 474 480 l 1
 538 480 l 1
 400 -167 l 1
 335 -167 l 1
 387 77 l 1
 349 33 297 -8 230 -8 c 0
 145 -8 89 66 89 169 c 0
155 185 m 0
 155 102 202 42 272 42 c 0
 321 42 357 74 377 99 c 1
 405 138 393 98 435 297 c 0
 438 313 442 321 442 334 c 0
 442 362 430 428 364 428 c 0
 265 428 155 318 155 185 c 0
EndSplineSet
EndChar

StartChar: r
Encoding: 114 114 125
Width: 346
Flags: HW
TeX: 472 0
ItalicCorrection: 114
HStem: -0 21G<80 171> 424 56<339.831 420> 452 20G<175.763 241>
DStem2: 80 -0 143 -0 0.207912 0.978148<13.0984 355.684 370.42 482.477>
AnchorPoint: "affricate-below" 311 -167 basechar 0
AnchorPoint: "affricate-above" 494 695 basechar 0
AnchorPoint: "below" 112 0 basechar 0
AnchorPoint: "above" 307 484 basechar 0
LayerCount: 2
Fore
SplineSet
80 -0 m 1xc0
 180 472 l 1
 241 472 l 1xa0
 215 350 l 1
 252 409 326 478 432 480 c 1
 420 424 l 1
 304 421 222 339 200 265 c 0
 196 252 199 265 143 -0 c 1
 80 -0 l 1xc0
EndSplineSet
EndChar

StartChar: s
Encoding: 115 115 126
Width: 402
Flags: HW
TeX: 472 0
ItalicCorrection: 82
HStem: -8 52<111.61 301.39> 435 50<206.242 402.112>
VStem: 107 61<305.343 398.269> 348 61<86.5415 184.79>
AnchorPoint: "affricate-below" 367 -167 basechar 0
AnchorPoint: "affricate-above" 550 695 basechar 0
AnchorPoint: "below" 207 0 basechar 0
AnchorPoint: "above" 313 484 basechar 0
LayerCount: 2
Fore
SplineSet
37 39 m 1
 59 97 l 1
 86 78 131 44 216 44 c 0
 320 44 348 107 348 140 c 0
 348 212 244 208 190 227 c 0
 152 240 107 271 107 328 c 0
 107 382 148 485 313 485 c 0
 367 485 405 476 456 451 c 1
 435 397 l 1
 394 418 363 435 291 435 c 0
 192 435 168 376 168 347 c 0
 168 292 241 284 260 280 c 0
 289 274 409 261 409 158 c 0
 409 102 365 -8 205 -8 c 0
 121 -8 69 19 37 39 c 1
EndSplineSet
EndChar

StartChar: t
Encoding: 116 116 127
Width: 379
Flags: HW
TeX: 607 0
ItalicCorrection: 77
HStem: -8 52<171 308.671> 422 50<120 204 277 421>
VStem: 134 66<49.3286 191.759>
DStem2: 113.179 -8 174.601 -8 0.207912 0.978148<230.584 439.486 503.571 628.968>
AnchorPoint: "affricate-below" 344 -167 basechar 0
AnchorPoint: "affricate-above" 527 695 basechar 0
AnchorPoint: "below" 176 0 basechar 0
AnchorPoint: "above" 274 607 basechar 0
LayerCount: 2
Fore
SplineSet
109 422 m 1
 120 472 l 1
 216 472 l 1
 245 607 l 1
 305 607 l 1
 277 472 l 1
 432 472 l 1
 421 422 l 1
 266 422 l 1
 203 122 200 119 200 96 c 0
 200 57 219 44 246 44 c 0
 292 44 326 65 355 85 c 1
 357 36 l 1
 314 13 260 -8 196 -8 c 0
 146 -8 134 31 134 69 c 0
 134 92 139 115 144 137 c 2
 204 422 l 1
 109 422 l 1
EndSplineSet
EndChar

StartChar: u
Encoding: 117 117 128
Width: 517
Flags: HW
TeX: 472 0
ItalicCorrection: 48
HStem: -8 47<172.104 292.589> 0 21G<372 439.237> 452 20G<175.731 245 466.764 535>
VStem: 100 65<49.4541 197.609>
DStem2: 77.6672 -8 142.242 -8 0.207912 0.978148<110.513 490.787> 370.3 -8 433.3 -8 0.207912 0.978148<21.2772 96.0418 103.265 490.448>
AnchorPoint: "ogonek" 403 0 basechar 0
AnchorPoint: "affricate-below" 482 -167 basechar 0
AnchorPoint: "affricate-above" 665 695 basechar 0
AnchorPoint: "below" 257 0 basechar 0
AnchorPoint: "above" 360 484 basechar 0
LayerCount: 2
Fore
SplineSet
100 73 m 0
 100 84 100 96 107 130 c 2
 180 472 l 1
 245 472 l 1
 172 132 l 2
 165 100 165 95 165 86 c 0
 165 49 194 39 245 39 c 0xb0
 337 39 385 109 399 144 c 0
 404 157 407 170 410 184 c 2
 471 472 l 1
 535 472 l 1
 435 0 l 1
 372 0 l 1x70
 390 86 l 1
 342 25 262 -8 194 -8 c 0xb0
 148 -8 100 6 100 73 c 0
EndSplineSet
EndChar

StartChar: v
Encoding: 118 118 129
Width: 458
Flags: HW
TeX: 472 0
ItalicCorrection: 114
HStem: -3 21G<187.8 276.747> 452 20G<115 182.194 469.354 544>
DStem2: 179 472 115 472 0.157991 -0.987441<0 412.158> 244 65 265 -3 0.506465 0.862261<0 470.972>
AnchorPoint: "affricate-below" 423 -167 basechar 0
AnchorPoint: "affricate-above" 606 695 basechar 0
AnchorPoint: "below" 229 0 basechar 0
AnchorPoint: "above" 331 484 basechar 0
LayerCount: 2
Fore
SplineSet
115 472 m 1
 179 472 l 1
 244 65 l 1
 481 472 l 1
 544 472 l 1
 265 -3 l 1
 191 -3 l 1
 115 472 l 1
EndSplineSet
EndChar

StartChar: w
Encoding: 119 119 130
Width: 692
Flags: HW
TeX: 472 0
ItalicCorrection: 114
HStem: -3 21G<159 269.5 457.209 541.358> 452 20G<115 179.76 405.636 475.711 705.683 777>
VStem: 115 63<396.591 472>
DStem2: 210 65 224 -3 0.460107 0.887863<0 404.841> 474 472 428 377 0.0832481 -0.996529<59.9484 408.418> 508 65 531 -3 0.459881 0.887981<0 457.063>
AnchorPoint: "affricate-below" 657 -167 basechar 0
AnchorPoint: "affricate-above" 840 695 basechar 0
AnchorPoint: "below" 346 0 basechar 0
AnchorPoint: "above" 448 484 basechar 0
LayerCount: 2
Fore
SplineSet
115 472 m 1
 178 472 l 1
 200 222 l 2
 204 170 209 118 210 65 c 1
 234 121 261 172 288 225 c 2
 416 472 l 1
 474 472 l 1
 506 98 l 1
 508 65 l 1
 537 125 l 1
 716 472 l 1
 777 472 l 1
 531 -3 l 1
 459 -3 l 1
 441 198 l 1
 432 306 l 1
 428 377 l 1
 428 408 l 1
 416 370 315 173 224 -3 c 1
 159 -3 l 1
 159 -2 l 1
 115 472 l 1
EndSplineSet
EndChar

StartChar: x
Encoding: 120 120 131
Width: 458
Flags: HW
TeX: 472 0
ItalicCorrection: 97
HStem: -0 21G<0 90.2271 374.792 458> 452 20G<106 189.913 450 540>
DStem2: 0 -0 71 -0 0.705604 0.708606<50.0979 337.195 407.296 666.096> 178 472 106 472 0.510202 -0.860055<0 213.002 274.853 512.068>
AnchorPoint: "affricate-below" 423 -167 basechar 0
AnchorPoint: "affricate-above" 606 695 basechar 0
AnchorPoint: "below" 229 0 basechar 0
AnchorPoint: "above" 332 484 basechar 0
LayerCount: 2
Fore
SplineSet
0 -0 m 1
 249 243 l 1
 106 472 l 1
 178 472 l 1
 287 289 l 1
 470 472 l 1
 540 472 l 1
 306 244 l 1
 458 -0 l 1
 386 -0 l 1
 270 207 l 1
 71 -0 l 1
 0 -0 l 1
EndSplineSet
EndChar

StartChar: y
Encoding: 121 121 132
Width: 458
Flags: HW
TeX: 472 166
ItalicCorrection: 114
HStem: -175 51<0.818497 136.736> 452 20G<116 199 412.5 545>
VStem: 116 65<436.011 472>
AnchorPoint: "affricate-below" 423 -167 basechar 0
AnchorPoint: "affricate-above" 606 695 basechar 0
AnchorPoint: "below" 195 -167 basechar 0
AnchorPoint: "above" 335 484 basechar 0
LayerCount: 2
Fore
SplineSet
-5 -168 m 1
 2 -112 l 1
 26 -118 50 -124 82 -124 c 0
 142 -124 168 -66 208 -1 c 1
 116 472 l 1
 181 472 l 1
 217 284 249 123 249 65 c 1
 264 106 344 241 481 472 c 1
 545 472 l 1
 239 -40 l 2
 184 -132 137 -175 70 -175 c 0
 43 -175 13 -171 -5 -168 c 1
EndSplineSet
EndChar

StartChar: z
Encoding: 122 122 133
Width: 450
Flags: HW
TeX: 472 0
ItalicCorrection: 99
HStem: -0 50<121 423> 423 49<144 428>
DStem2: 70 68 121 50 0.708913 0.705296<23.4592 504.171>
AnchorPoint: "affricate-below" 415 -167 basechar 0
AnchorPoint: "affricate-above" 598 695 basechar 0
AnchorPoint: "below" 226 0 basechar 0
AnchorPoint: "above" 329 484 basechar 0
LayerCount: 2
Fore
SplineSet
29 -0 m 1
 37 40 32 31 70 68 c 2
 428 423 l 1
 134 423 l 1
 144 472 l 1
 520 472 l 1
 513 440 l 1
 121 50 l 1
 433 50 l 1
 423 -0 l 1
 29 -0 l 1
EndSplineSet
EndChar

StartChar: braceleft
Encoding: 123 123 134
Width: 525
Flags: HW
TeX: 750 222
ItalicCorrection: 126
HStem: -222 50<288.154 415> 700 50<461.983 611>
VStem: 205 66<-153.526 -12.7832> 258 65<32.5918 195.364>
DStem2: 313 393 377 390 0.217889 0.975974<-50.9646 311.565>
LayerCount: 2
Fore
SplineSet
113 239 m 1
 123 289 l 1
 219 290 293 333 313 393 c 0
 323 424 358 614 368 645 c 0
 389 709 465 750 585 750 c 2
 622 750 l 1
 611 700 l 1
 596 700 l 2
 528 700 454 697 433 646 c 0
 423 623 402 492 377 390 c 1
 337 270 183 264 179 264 c 1
 258 261 323 217 323 148 c 0xd0
 323 119 271 -100 271 -119 c 0
 271 -172 360 -172 401 -172 c 2
 426 -172 l 1
 415 -222 l 1
 378 -222 l 2
 377 -222 374 -223 371 -223 c 0
 302 -223 205 -203 205 -126 c 0xe0
 205 -99 258 117 258 144 c 0
 258 182 225 237 113 239 c 1
EndSplineSet
EndChar

StartChar: bar
Encoding: 124 124 135
Width: 292
Flags: HW
TeX: 750 222
ItalicCorrection: 62
DStem2: 77.4107 -221 118.623 -221 0.207912 0.978148<20.9077 977.328>
LayerCount: 2
Fore
SplineSet
83 -201 m 0
 83 -197 83 -194 84 -190 c 2
 277 715 l 2
 279 724 281 749 300 749 c 0
 309 749 319 745 319 727 c 0
 319 723 318 717 317 711 c 2
 125 -191 l 2
 123 -199 120 -221 102 -221 c 0
 93 -221 83 -214 83 -201 c 0
EndSplineSet
EndChar

StartChar: braceright
Encoding: 125 125 136
Width: 525
Flags: HW
TeX: 750 222
ItalicCorrection: 22
HStem: -222 50<26 174.653> 700 50<222 347.846>
VStem: 313 65<332.215 495.665> 366 65<541.503 680.684>
DStem2: 204 -117 269 -117 0.220428 0.975403<-38.9209 323.561>
LayerCount: 2
Fore
SplineSet
15 -222 m 1
 26 -172 l 1
 40 -172 l 2
 107 -172 183 -169 204 -117 c 0
 208 -107 206 -117 254 112 c 0
 276 217 372 251 426 260 c 1
 458 264 l 1
 379 267 313 310 313 379 c 0xe0
 313 406 366 634 366 647 c 0
 366 699 272 700 235 700 c 2
 211 700 l 1
 222 750 l 1xd0
 265 750 l 2
 334 750 431 731 431 654 c 0xd0
 431 627 378 411 378 384 c 0
 378 346 412 291 524 289 c 1
 513 239 l 1
 419 238 344 195 324 135 c 0
 316 111 293 -17 269 -117 c 1
 248 -181 170 -222 52 -222 c 2
 15 -222 l 1
EndSplineSet
EndChar

StartChar: asciitilde
Encoding: 126 126 137
Width: 642
Flags: HW
TeX: 694 0
ItalicCorrection: 89
HStem: 589 50<477.303 626.497> 644 50<286.232 436.242>
VStem: 212 50<589 620.194> 651 51<664.018 695>
LayerCount: 2
Fore
SplineSet
212 589 m 1
 234 671 317 694 364 694 c 0
 438 694 490 639 560 639 c 0
 637 639 651 695 651 695 c 1
 702 695 l 1
 683 623 611 589 550 589 c 0
 476 589 423 644 353 644 c 0
 276 644 262 589 262 589 c 1
 212 589 l 1
EndSplineSet
EndChar

StartChar: Abreve
Encoding: 258 258 139
Width: 675
Flags: HW
TeX: 888 0
HStem: 0 21<29 105.905 568.571 645> 210 53<251 527> 683 20<437.051 527.442> 727 55<430.626 574.234>
VStem: 346 52<813.164 889> 641 51<844.332 889>
DStem2: 29 0 94 0 0.512879 0.858461<33.3371 277.724 339.634 765.471> 524 703 467 630 0.169625 -0.985509<62.2735 434.133 487.891 700.955>
AnchorPoint: "below" 337 0 basechar 0
AnchorPoint: "above" 523 877 basechar 0
LayerCount: 2
Fore
SplineSet
346 857 m 0
 346 870 349 888 350 889 c 1
 400 889 l 1
 399 882 398 875 398 868 c 0
 398 817 442 782 498 782 c 0
 560 782 626 826 641 889 c 1
 692 889 l 1
 666 787 571 727 486 727 c 0
 407 727 346 779 346 857 c 0
EndSplineSet
Refer: 76 65 S 1 0 0 1 0 0 3
AlternateSubs2: "Stilistic set 01 subtable" Abreve.vn
AlternateSubs2: "Latin alternatives subtable" Abreve.vn
Substitution2: "Latin Vietnamese substitutions subtable" Abreve.vn
EndChar

StartChar: Aogonek
Encoding: 260 260 140
Width: 675
Flags: HW
TeX: 694 166
HStem: -184 60<523.979 640.19> 0 21G<29 105.905> 210 53<251 527> 683 20G<437.051 527.442>
DStem2: 29 0 94 0 0.512879 0.858461<33.3371 277.724 339.634 765.471> 524 703 467 630 0.169625 -0.985509<62.2735 434.133 487.891 707.279>
AnchorPoint: "above" 488 711 basechar 0
LayerCount: 2
Fore
SplineSet
29 0 m 1
 449 703 l 1
 524 703 l 1
 645 0 l 1
 643 0 l 2
 598 0 523 -58 521 -93 c 1
 523 -108 532 -124 572 -124 c 0
 599 -124 624 -116 650 -109 c 1
 653 -157 l 1
 632 -166 586 -184 541 -184 c 0
 489 -184 457 -161 457 -126 c 0
 457 -76 521 -26 572 0 c 1
 536 210 l 1
 219 210 l 1
 94 0 l 1
 29 0 l 1
251 263 m 1
 527 263 l 1
 487 499 l 1
 467 630 l 1
 251 263 l 1
EndSplineSet
Ligature2: "Latin ligatures subtable" A uni0328
EndChar

StartChar: Cacute
Encoding: 262 262 141
Width: 671
Flags: HW
TeX: 850 0
ItalicCorrection: 118
HStem: -17 53<327.436 550.88> 658 53<452.853 669.831>
VStem: 146 71<159.134 389.391>
AnchorPoint: "below" 413 0 basechar 0
AnchorPoint: "above" 591 831 basechar 0
LayerCount: 2
Fore
SplineSet
417 760 m 1
 604 848 604 850 622 850 c 2
 644 850 l 2
 654 850 665 851 675 851 c 0
 684 851 692 851 701 850 c 1
 480 756 498 761 476 760 c 1
 417 760 l 1
EndSplineSet
Refer: 78 67 S 1 0 0 1 -0 0 3
EndChar

StartChar: Eogonek
Encoding: 280 280 145
Width: 625
Flags: HW
TeX: 694 166
ItalicCorrection: 118
HStem: -184 60<405.216 521.299> -0 56<180 453 465.796 581> 334 53<250 608> 640 53<304 702>
DStem2: 58.8896 -184 128.986 -184 0.207912 0.978148<259.936 544.128 598.256 856.955>
AnchorPoint: "above" 482 711 basechar 0
LayerCount: 2
Fore
SplineSet
98 -0 m 1
 245 693 l 1
 713 693 l 1
 702 640 l 1
 304 640 l 1
 250 387 l 1
 619 387 l 1
 608 334 l 1
 239 334 l 1
 180 56 l 1
 593 56 l 1
 581 -0 l 1
 518 -0 l 2
 487 0 404 -56 402 -91 c 1
 403 -105 411 -124 454 -124 c 0
 482 -124 514 -114 532 -109 c 1
 534 -157 l 1
 509 -168 466 -184 422 -184 c 0
 371 -184 338 -161 338 -126 c 0
 338 -75 399 -31 453 -0 c 1
 98 -0 l 1
EndSplineSet
EndChar

StartChar: Gbreve
Encoding: 286 286 146
Width: 700
Flags: HW
TeX: 888 0
ItalicCorrection: 118
HStem: -17 53<328.743 556.758> 275 53<477 623> 658 53<453.753 667.012> 727 55<507.048 648.667>
VStem: 146 71<157.485 390.764> 422 52<813.164 889> 717 51<844.332 889>
DStem2: 560.995 -17 625.585 -17 0.207912 0.978148<70.3837 298.511>
LayerCount: 2
Fore
SplineSet
422 857 m 0
 422 870 425 888 426 889 c 1
 476 889 l 1
 475 882 474 875 474 868 c 0
 474 817 518 782 574 782 c 0
 636 782 702 827 717 889 c 1
 768 889 l 1
 742 787 648 727 563 727 c 0
 484 727 422 779 422 857 c 0
EndSplineSet
Refer: 82 71 S 1 0 0 1 0 0 3
EndChar

StartChar: Lacute
Encoding: 313 313 147
Width: 567
Flags: HW
TeX: 850 0
HStem: 0 53<179 523> 675 20<245 316>
DStem2: 98 0 167.734 0 0.207912 0.978148<68.6827 709.397>
LayerCount: 2
Fore
SplineSet
181 760 m 1
 368 848 368 850 386 850 c 2
 407 850 l 2
 417 850 429 851 439 851 c 0
 448 851 455 851 464 850 c 1
 243 756 261 761 239 760 c 1
 181 760 l 1
EndSplineSet
Refer: 87 76 S 1 0 0 1 -0 0 3
EndChar

StartChar: Lcaron
Encoding: 317 317 148
Width: 567
Flags: HW
TeX: 888 0
HStem: 0 53<179 523> 675 20<245 316>
DStem2: 98 0 167.734 0 0.207912 0.978148<68.6827 709.397>
LayerCount: 2
Fore
SplineSet
505 620 m 1
 544 695 l 1
 521 695 l 1
 537 773 l 1
 615 773 l 1
 593 670 608 710 543 620 c 1
 505 620 l 1
EndSplineSet
Refer: 87 76 S 1 0 0 1 0 0 3
EndChar

StartChar: Lslash
Encoding: 321 321 149
Width: 654
Flags: HW
TeX: 694 0
HStem: 0 53<267 610> 675 20G<333 404>
DStem2: 140 279 165 238 0.815208 0.579169<0 99.2827 252.491 454.186> 186 0 255.734 0 0.207912 0.978148<68.6827 303.608 375.197 378.368 448.979 709.397>
LayerCount: 2
Fore
SplineSet
140 279 m 1
 264 367 l 1
 333 694 l 1
 334 695 l 1
 404 695 l 1
 346 425 l 1
 512 544 l 1
 538 503 l 1
 331 356 l 1
 267 53 l 1
 621 53 l 1
 610 0 l 1
 186 0 l 1
 249 297 l 1
 165 238 l 1
 140 279 l 1
EndSplineSet
EndChar

StartChar: Nacute
Encoding: 323 323 150
Width: 708
Flags: HW
TeX: 850 0
ItalicCorrection: 78
HStem: 0 21<100 167.245 503.333 612.23> 675 20<247 351.656 692 755>
DStem2: 100 0 163 0 0.207912 0.978148<13.0984 663.268> 345 695 298 636 0.315781 -0.948832<41.1394 671.352> 544.672 0 608 0 0.207912 0.978148<59.2958 709.466>
LayerCount: 2
Fore
SplineSet
393 760 m 1
 580 848 580 850 598 850 c 2
 619 850 l 2
 629 850 641 851 651 851 c 0
 660 851 667 851 676 850 c 1
 455 756 473 761 451 760 c 1
 393 760 l 1
EndSplineSet
Refer: 89 78 S 1 0 0 1 -0 0 3
EndChar

StartChar: Eng
Encoding: 330 330 152
Width: 775
Flags: HW
TeX: 694 0
ItalicCorrection: 147
HStem: -17 52<471.493 616.277> -0 21G<98 172.259> 675 20G<245 316> 679 65<443.193 649.282>
VStem: 749 71<389.877 585.409>
DStem2: 94.3865 -17 164.387 -17 0.207912 0.978148<31.9336 607.372 685.246 726.777> 641.949 -17 711.455 -17 0.207912 0.978148<90.9329 530.866>
LayerCount: 2
Fore
SplineSet
98 -0 m 1
 245 694 l 1
 246 695 l 1
 316 695 l 1x68
 304 639 l 1
 374 699 462 744 567 744 c 0x18
 709 744 820 653 820 518 c 0
 820 481 813 452 806 420 c 0
 742 121 746 136 741 122 c 0
 723 66 672 -17 558 -17 c 0
 496 -17 453 1 415 25 c 1
 440 89 l 1
 445 82 473 35 543 35 c 0
 667 35 681 165 681 165 c 1
 741 449 l 2
 744 465 749 482 749 504 c 0
 749 609 661 679 550 679 c 0x98
 420 679 292 583 270 479 c 2
 168 -0 l 1
 98 -0 l 1
EndSplineSet
EndChar

StartChar: Ohungarumlaut
Encoding: 336 336 153
Width: 783
Flags: HW
TeX: 850 0
ItalicCorrection: 74
HStem: -17 53<305.459 496.328> 659 52<425.666 627.118> 760 90<565.927 591 619 648.27>
VStem: 122 72<158.46 392.988> 739 67<311.068 542.474>
AnchorPoint: "below" 391 0 basechar 0
AnchorPoint: "above" 568 831 basechar 0
LayerCount: 2
Fore
SplineSet
386 760 m 1
 573 848 573 850 591 850 c 2
 612 850 l 2
 622 850 633 851 643 851 c 0
 652 851 660 851 669 850 c 1
 448 756 466 761 444 760 c 1
 386 760 l 1
561 760 m 1
 748 848 748 850 766 850 c 2
 787 850 l 2
 797 850 808 851 818 851 c 0
 827 851 835 851 844 850 c 1
 623 756 641 761 619 760 c 1
 561 760 l 1
EndSplineSet
Refer: 90 79 S 1 0 0 1 -0 0 3
EndChar

StartChar: Racute
Encoding: 340 340 154
Width: 671
Flags: HW
TeX: 850 0
ItalicCorrection: 81
HStem: 0 21<98 171.224 561.87 641> 322 51<246 424> 641 54<303 590.237>
VStem: 656 66<462.264 589.587>
DStem2: 98 0 167 0 0.207912 0.978148<14.3459 343.447 395.62 669.615> 488 330 424 322 0.420627 -0.907234<0 334.299>
AnchorPoint: "below" 326 0 basechar 0
AnchorPoint: "above" 506 847 basechar 0
LayerCount: 2
Fore
SplineSet
353 760 m 1
 540 848 540 850 558 850 c 2
 579 850 l 2
 589 850 600 851 610 851 c 0
 619 851 627 851 636 850 c 1
 415 756 433 761 411 760 c 1
 353 760 l 1
EndSplineSet
Refer: 93 82 S 1 0 0 1 -0 0 3
EndChar

StartChar: Sacute
Encoding: 346 346 156
Width: 583
Flags: HW
TeX: 850 0
ItalicCorrection: 89
HStem: -17 57<180.795 394.594> 656 55<332.764 541.183>
VStem: 166 66<452.347 569.206> 502 66<140.76 266.17>
AnchorPoint: "below" 289 0 basechar 0
AnchorPoint: "above" 471 831 basechar 0
LayerCount: 2
Fore
SplineSet
316 760 m 1
 503 848 503 850 521 850 c 2
 542 850 l 2
 552 850 564 851 574 851 c 0
 583 851 590 851 599 850 c 1
 378 756 396 761 374 760 c 1
 316 760 l 1
EndSplineSet
Refer: 94 83 S 1 0 0 1 0 0 3
EndChar

StartChar: Scedilla
Encoding: 350 350 158
Width: 583
Flags: HW
TeX: 694 145
ItalicCorrection: 89
HStem: -163 145 -17 57<180.795 391.378> 656 55<333.431 541.183>
VStem: 155 158 166 66<452.677 569.642> 502 66<138.118 266.17>
DStem2: 155 -163 213 -163 0.593767 0.804637<34.4385 180.205> 300 418 264 352 0.960765 -0.277365<-55.7495 213.78>
LayerCount: 2
Fore
SplineSet
58 53 m 1
 84 122 l 1
 99 110 170 40 297 40 c 0
 416 40 502 128 502 204 c 0
 502 264 454 294 433 304 c 0
 399 320 302 336 264 352 c 0
 231 366 166 407 166 489 c 0
 166 597 285 711 445 711 c 0
 526 711 574 694 628 663 c 1
 601 594 l 1
 571 618 534 656 433 656 c 0xec
 322 656 232 584 232 509 c 0
 232 461 270 431 300 418 c 0
 334 403 429 388 466 372 c 0
 501 357 568 313 568 224 c 0
 568 107 444 -17 285 -17 c 0
 213 -17 133 1 58 53 c 1
EndSplineSet
Refer: 23 184 S 1 0 0 1 59 0 2
EndChar

StartChar: Uhungarumlaut
Encoding: 368 368 161
Width: 692
Flags: HW
TeX: 850 0
ItalicCorrection: 78
HStem: -17 53<270.745 445.83> 675 20<245 315 675 740> 760 90<519.927 545 574 603.27>
VStem: 141 69<94.4681 295.812>
DStem2: 93.6967 -17 164.233 -17 0.207912 0.978148<212.704 727.899> 523.872 -17 588.547 -17 0.207912 0.978148<160.514 726.884>
AnchorPoint: "below" 347 0 basechar 0
AnchorPoint: "above" 524 847 basechar 0
LayerCount: 2
Fore
SplineSet
340 760 m 1
 527 848 527 850 545 850 c 2
 566 850 l 2
 576 850 588 851 598 851 c 0
 607 851 615 851 624 850 c 1
 403 756 421 761 399 760 c 1
 340 760 l 1
515 760 m 1
 702 848 702 850 720 850 c 2
 741 850 l 2
 751 850 763 851 773 851 c 0
 782 851 790 851 799 850 c 1
 578 756 596 761 574 760 c 1
 515 760 l 1
EndSplineSet
Refer: 96 85 S 1 0 0 1 -0 0 3
EndChar

StartChar: Uring
Encoding: 366 366 162
Width: 692
Flags: HW
TeX: 888 0
ItalicCorrection: 78
HStem: -17 53<270.745 445.83> 675 20<245 315 675 740> 677 50<455.259 556.927> 844 50<472.49 569.956>
VStem: 141 69<94.4681 295.812> 394 58<731.14 826.583> 574 58<744.986 840.145>
DStem2: 93.6967 -17 164.233 -17 0.207912 0.978148<212.704 727.899> 523.872 -17 588.547 -17 0.207912 0.978148<160.514 726.884>
LayerCount: 2
Fore
SplineSet
394 765 m 0
 394 836 467 894 536 894 c 0
 586 894 632 863 632 807 c 0
 632 743 567 677 490 677 c 0
 440 677 394 709 394 765 c 0
452 765 m 0
 452 734 473 727 500 727 c 0
 543 727 565 744 573 790 c 0
 574 795 574 801 574 807 c 0xbe
 574 836 554 843 528 844 c 1
 526 844 l 2
 483 844 462 827 454 781 c 0
 453 775 452 770 452 765 c 0
EndSplineSet
Refer: 96 85 S 1 0 0 1 -0 0 3
EndChar

StartChar: Zacute
Encoding: 377 377 164
Width: 642
Flags: HW
TeX: 850 0
ItalicCorrection: 118
HStem: 0 53<163 589> 643 52<220 626>
DStem2: 65 35 163 53 0.678129 0.734942<79.6857 827.276>
AnchorPoint: "below" 323 0 basechar 0
AnchorPoint: "above" 503 847 basechar 0
LayerCount: 2
Fore
SplineSet
374 760 m 1
 561 848 561 850 579 850 c 2
 600 850 l 2
 610 850 622 851 632 851 c 0
 641 851 649 851 658 850 c 1
 437 756 455 761 433 760 c 1
 374 760 l 1
EndSplineSet
Refer: 101 90 S 1 0 0 1 -0 0 3
EndChar

StartChar: IJ
Encoding: 306 306 167
Width: 733
Flags: HW
TeX: 694 0
ItalicCorrection: 78
HStem: -17 52<366.735 548.619> 0 21<69 143.259> 675 20G<216 287 736 805>
VStem: 69 218
DStem2: 69 0 139 0 0.207912 0.978148<14.5538 709.397> 585.064 -17 654.126 -17 0.207912 0.978148<94.8273 726.844>
LayerCount: 2
Fore
SplineSet
299 25 m 1
 323 88 l 1
 339 75 377 35 457 35 c 0xb0
 477 35 566 37 606 109 c 0
 619 132 623 159 628 185 c 2
 736 694 l 1
 737 695 l 1
 805 695 l 1
 696 180 l 2
 692 160 675 -17 469 -17 c 0
 401 -17 344 1 299 25 c 1
EndSplineSet
Refer: 84 73 S 1 0 0 1 -29 0 2
Ligature2: "Latin Dutch ligatures subtable" I J
EndChar

StartChar: dcroat
Encoding: 273 273 169
Width: 517
Flags: HW
TeX: 694 0
ItalicCorrection: 96
HStem: -8 50<199.088 310.183> 0 21G<371 439.265> 430 50<280.229 413.935> 558 51<305 491 565 668> 675 20G<515.814 583>
VStem: 89 64<89.1595 283.204>
DStem2: 369.3 -8 433.3 -8 0.207912 0.978148<21.4851 82.7022 91.4723 381.506 427.515 578.935 644.206 718.97>
LayerCount: 2
Fore
SplineSet
89 168 m 0
 89 330 215 480 338 480 c 0
 421 480 452 420 459 410 c 1
 491 558 l 1
 295 558 l 1
 305 609 l 1
 502 609 l 1
 520 695 l 1
 583 695 l 1
 565 609 l 1
 679 609 l 1
 668 558 l 1
 554 558 l 1
 435 0 l 1
 371 0 l 1x7c
 386 73 l 1
 318 -1 254 -8 226 -8 c 0
 144 -8 89 66 89 168 c 0
153 168 m 0xbc
 153 67 222 42 271 42 c 0
 311 42 346 64 372 91 c 1
 397 120 396 118 401 141 c 0
 439 319 447 358 447 367 c 0
 447 380 424 430 363 430 c 0
 315 430 184 405 156 208 c 0
 154 195 153 181 153 168 c 0xbc
EndSplineSet
AlternateSubs2: "Stilistic set 01 subtable" dcroat.vn
AlternateSubs2: "Latin alternatives subtable" dcroat.vn
Substitution2: "Latin Vietnamese substitutions subtable" dcroat.vn
EndChar

StartChar: section
Encoding: 167 167 170
Width: 467
Flags: HW
TeX: 694 166
HStem: -175 51<107.966 268.276> 652 51<309.163 462.217>
VStem: 126 65<197.517 316.099> 185 64<473.95 591.15> 328 64<-63.0362 54.1008> 387 64<211.872 329.638>
LayerCount: 2
Fore
SplineSet
24 -105 m 1
 47 -48 l 1
 70 -79 109 -124 202 -124 c 0
 282 -124 328 -46 328 -0 c 0
 328 33 309 61 270 82 c 1
 229 101 126 140 126 240 c 0xe8
 126 307 174 374 241 407 c 1
 214 431 185 463 185 516 c 0xd0
 185 603 271 703 385 703 c 0
 453 703 488 683 528 647 c 1
 506 592 l 1
 492 606 460 652 378 652 c 0
 294 652 249 574 249 527 c 0
 249 463 324 438 344 429 c 0
 415 395 451 344 451 288 c 0xd4
 451 221 403 154 336 120 c 1
 362 99 392 64 392 12 c 0
 392 -74 307 -175 192 -175 c 0
 110 -175 65 -148 24 -105 c 1
191 252 m 0
 191 180 284 155 287 155 c 0
 315 155 387 207 387 276 c 0
 387 348 293 373 290 373 c 0xe4
 262 373 191 321 191 252 c 0
EndSplineSet
EndChar

StartChar: aogonek
Encoding: 261 261 172
Width: 492
Flags: HW
TeX: 472 166
ItalicCorrection: 17
HStem: -184 60<295.337 415.47> -8 50<159.062 276.241> 234 31<275.592 396> 438 47<229.416 394.177>
VStem: 76 64<61.9635 155.888> 232 61<-143.5 -73.1367> 418 65<266.909 413.678>
DStem2: 307.89 -184 371.89 -184 0.207912 0.978148<193.494 258.722 267.16 427.185 455.861 546.399>
AnchorPoint: "above" 349 484 basechar 0
LayerCount: 2
Fore
SplineSet
76 86 m 0
 76 158 137 259 402 265 c 1
 413 317 418 335 418 352 c 0
 418 398 391 438 338 438 c 0
 257 438 208 407 169 386 c 1
 177 453 173 439 198 452 c 1
 240 470 288 485 349 485 c 0
 438 485 483 424 483 357 c 0
 483 338 480 324 477 310 c 2
 411 -0 l 1
 389 0 391 -2 367 -15 c 0
 307 -48 293 -77 293 -92 c 0
 293 -105 304 -124 347 -124 c 0
 374 -124 400 -117 425 -109 c 1
 428 -157 l 1
 404 -168 360 -184 316 -184 c 0
 264 -184 232 -161 232 -126 c 0
 232 -76 296 -26 347 -0 c 1
 362 69 l 1
 307 14 230 -8 162 -8 c 0
 93 -8 76 49 76 86 c 0
140 104 m 0
 140 67 177 42 228 42 c 0
 288 42 353 71 372 125 c 0
 376 135 378 147 396 234 c 1
 233 233 140 169 140 104 c 0
EndSplineSet
EndChar

StartChar: cacute
Encoding: 263 263 173
Width: 467
Flags: HW
TeX: 666 0
ItalicCorrection: 88
HStem: -8 52<204.532 373.754> 433 52<279.608 465.24> 647 20G<459.5 520>
VStem: 90 64<94.7366 286.88>
AnchorPoint: "below" 265 0 basechar 0
AnchorPoint: "above" 407 646 basechar 0
LayerCount: 2
Fore
SplineSet
278 538 m 1
 456 667 449 667 470 667 c 2
 520 667 l 1
 329 538 l 1
 278 538 l 1
EndSplineSet
Refer: 110 99 S 1 0 0 1 0 -0 3
EndChar

StartChar: dcaron
Encoding: 271 271 175
Width: 642
Flags: HW
TeX: 694 0
ItalicCorrection: 96
HStem: -8 50<199.088 310.183> 0 21<371 439.259> 430 50<280.229 413.935> 675 20<515.719 583>
VStem: 89 64<89.1595 283.204>
DStem2: 369.3 -8 433.3 -8 0.207912 0.978148<21.4851 82.7022 91.4723 381.506 427.515 718.97>
LayerCount: 2
Fore
SplineSet
617 581 m 1
 656 655 l 1
 633 655 l 1x38
 649 734 l 1
 728 734 l 1
 711 655 l 1
 656 581 l 1
 617 581 l 1
EndSplineSet
Refer: 111 100 S 1 0 0 1 -0 0 2
EndChar

StartChar: eogonek
Encoding: 281 281 177
Width: 467
Flags: HW
TeX: 472 166
ItalicCorrection: 64
HStem: -184 60<251.206 370.334> -8 50<205.86 331.425> 250 40<169 442.978> 434 50<272.854 407.207>
VStem: 87 61<104.061 248.886> 443 54<290.711 396.609>
AnchorPoint: "above" 352 484 basechar 0
LayerCount: 2
Fore
SplineSet
87 181 m 0
 87 325 209 484 352 484 c 0
 415 484 497 454 497 332 c 0
 497 305 492 277 487 250 c 1
 156 250 l 1
 151 225 148 213 148 188 c 0
 148 112 192 42 274 42 c 0
 361 42 424 92 450 111 c 1
 443 57 l 1
 368 1 244 -41 249 -98 c 1
 251 -103 256 -124 300 -124 c 0
 332 -124 372 -111 380 -109 c 1
 383 -157 l 1
 358 -168 316 -184 272 -184 c 0
 205 -184 187 -149 187 -126 c 0
 187 -102 202 -59 290 -6 c 1
 280 -7 271 -8 261 -8 c 0
 156 -8 87 72 87 181 c 0
169 290 m 1
 442 290 l 1
 443 299 443 308 443 318 c 0
 443 411 386 434 341 434 c 0
 272 434 203 371 169 290 c 1
EndSplineSet
EndChar

StartChar: gbreve
Encoding: 287 287 178
Width: 517
Flags: HW
TeX: 694 166
ItalicCorrection: 48
HStem: -184 50<108.688 296.726> 17 50<207.203 311.892> 430 50<288.843 412.533> 536 55<332.561 478.999> 675 20G<250.5 302 543 593>
VStem: 91 66<120.177 287.536> 248 52<622.028 695> 543 50<650.195 695>
DStem2: 331.32 -184 396.088 -184 0.207912 0.978148<106.038 315.903 318.783 578.808 590.314 679.155>
LayerCount: 2
Fore
SplineSet
248 663 m 0
 248 669 250 694 251 695 c 1
 302 695 l 1
 301 688 300 681 300 674 c 0
 300 624 346 591 400 591 c 0
 462 591 528 632 543 694 c 1
 543 695 l 1
 593 695 l 1
 567 592 471 536 389 536 c 0
 310 536 248 587 248 663 c 0
EndSplineSet
Refer: 114 103 S 1 0 0 1 0 0 3
EndChar

StartChar: lacute
Encoding: 314 314 179
Width: 225
Flags: HW
TeX: 850 0
ItalicCorrection: 96
HStem: 0 21<80 147.259> 675 20<227 291> 850 0
VStem: 80 211
DStem2: 80 0 143 0 0.207912 0.978148<13.0984 709.397>
LayerCount: 2
Fore
SplineSet
195 760 m 1
 362 839 l 1
 386 849 l 1
 401 850 l 1
 478 850 l 1
 257 756 275 761 253 760 c 1
 195 760 l 1
EndSplineSet
Refer: 119 108 S 1 0 0 1 0 0 3
EndChar

StartChar: lcaron
Encoding: 318 318 180
Width: 351
Flags: HW
TeX: 694 0
ItalicCorrection: 96
HStem: 0 21<80 147.259> 675 20<227 291>
VStem: 80 211
DStem2: 80 0 143 0 0.207912 0.978148<13.0984 709.397>
LayerCount: 2
Fore
SplineSet
325 581 m 1
 364 655 l 1
 341 655 l 1
 357 734 l 1
 435 734 l 1
 419 655 l 1
 364 581 l 1
 325 581 l 1
EndSplineSet
Refer: 119 108 S 1 0 0 1 -0 -0 2
EndChar

StartChar: lslash
Encoding: 322 322 181
Width: 314
Flags: HW
TeX: 694 0
ItalicCorrection: 96
HStem: 0 21G<124 191.235> 675 20G<271 335>
VStem: 85 310
DStem2: 85 284 109 245 0.814118 0.5807<0 91.9506 237.326 348.192> 124 0 187 0 0.207912 0.978148<13.0984 308.707 353.82 399.714 443.611 709.397>
AnchorPoint: "above" 303 695 basechar 0
LayerCount: 2
Fore
SplineSet
85 284 m 1
 212 375 201 364 205 383 c 2
 271 694 l 1
 272 695 l 1
 335 695 l 1
 277 421 l 1
 371 488 l 1
 395 449 l 1
 253 348 263 360 259 340 c 2
 187 0 l 1
 124 0 l 1
 188 302 l 1
 109 245 l 1
 85 284 l 1
EndSplineSet
EndChar

StartChar: eng
Encoding: 331 331 184
Width: 517
Flags: HW
TeX: 472 166
ItalicCorrection: 25
HStem: -175 53<182.253 319.904> -0 21G<80 149.247> 430 50<309.563 423.782> 452 20G<175.763 242>
VStem: 444 67<256.297 408.716>
DStem2: 42.8026 -175 107.803 -175 0.207912 0.978148<192.424 661.386> 333.092 -175 398.363 -175 0.207912 0.978148<87.236 543.769>
AnchorPoint: "affricate-below" 482 -167 basechar 0
AnchorPoint: "affricate-above" 665 695 basechar 0
AnchorPoint: "below" 222 -167 basechar 0
AnchorPoint: "above" 360 484 basechar 0
LayerCount: 2
Fore
SplineSet
80 -0 m 1
 180 472 l 1
 242 472 l 1xd8
 222 375 l 1
 251 420 309 480 394 480 c 0xe8
 453 480 511 460 511 380 c 0
 511 359 507 339 503 319 c 2
 443 35 l 2
 430 -28 416 -82 364 -132 c 0
 339 -156 307 -175 269 -175 c 0
 234 -175 195 -167 154 -146 c 1
 188 -95 l 1
 210 -111 232 -122 262 -122 c 0
 307 -122 347 -85 362 -39 c 0
 367 -23 366 -22 380 44 c 2
 438 315 l 2
 441 329 444 344 444 358 c 0
 444 416 396 430 349 430 c 0xe8
 265 430 222 343 207 292 c 1
 145 -0 l 1
 80 -0 l 1
EndSplineSet
EndChar

StartChar: racute
Encoding: 341 341 186
Width: 346
Flags: HW
TeX: 666 0
ItalicCorrection: 114
HStem: -0 21<80 171> 424 56<339.831 420> 452 20<175.763 241> 647 20G<381.5 442>
DStem2: 80 -0 143 -0 0.207912 0.978148<13.0984 355.684 370.42 482.477>
AnchorPoint: "below" 112 0 basechar 0
AnchorPoint: "above" 342 651 basechar 0
LayerCount: 2
Fore
SplineSet
200 538 m 1
 378 667 371 667 392 667 c 2x90
 442 667 l 1
 251 538 l 1
 200 538 l 1
EndSplineSet
Refer: 125 114 S 1 0 0 1 -0 -0 3
EndChar

StartChar: sacute
Encoding: 347 347 188
Width: 402
Flags: HW
TeX: 666 0
ItalicCorrection: 82
HStem: -8 52<110.785 305.276> 435 50<204.305 403.715> 538 129
VStem: 107 61<304.894 400.499> 238 242 348 61<83.3356 184.717>
AnchorPoint: "below" 207 0 basechar 0
AnchorPoint: "above" 347 646 basechar 0
LayerCount: 2
Fore
SplineSet
37 39 m 1
 59 97 l 1
 87 77 131 44 217 44 c 0
 334 44 348 116 348 140 c 0
 348 212 244 208 190 227 c 0
 159 237 107 268 107 329 c 0
 107 363 126 411 157 439 c 0
 178 459 218 485 311 485 c 0
 381 485 417 470 456 451 c 1
 435 397 l 1
 414 408 375 435 288 435 c 0
 188 435 168 376 168 347 c 0
 168 279 269 284 326 264 c 0
 383 244 409 201 409 159 c 0xf4
 409 124 393 -8 206 -8 c 0
 139 -8 87 8 37 39 c 1
EndSplineSet
Refer: 13 180 S 1 0 0 1 -84 0 2
EndChar

StartChar: scaron
Encoding: 353 353 189
Width: 402
Flags: HW
TeX: 666 0
ItalicCorrection: 82
HStem: -8 52<110.61 305.276> 435 50<204.74 403.715> 536 131
VStem: 107 61<306.264 400.885> 191 296 348 61<83.0434 183.909>
DStem2: 241 667 191 667 0.587069 -0.809537<0 124.539> 319 569 337 536 0.753198 0.657793<0 153.341>
AnchorPoint: "below" 207 0 basechar 0
AnchorPoint: "above" 347 646 basechar 0
LayerCount: 2
Fore
SplineSet
37 39 m 1
 59 97 l 1
 87 77 131 44 217 44 c 0
 334 44 348 115 348 140 c 0
 348 199 268 210 262 211 c 0
 225 219 107 231 107 329 c 0
 107 363 126 411 157 439 c 0
 178 459 218 485 311 485 c 0
 381 485 417 470 456 451 c 1
 435 397 l 1
 414 408 375 435 288 435 c 0
 190 435 168 378 168 347 c 0
 168 279 267 285 325 265 c 0
 363 252 409 217 409 158 c 0xf4
 409 124 393 -8 206 -8 c 0
 138 -8 87 8 37 39 c 1
EndSplineSet
Refer: 19 711 S 1 0 0 1 -64 0 2
EndChar

StartChar: scedilla
Encoding: 351 351 190
Width: 402
Flags: HW
TeX: 472 145
ItalicCorrection: 82
HStem: -163 145 -8 52<110.785 305.276> 435 50<204.305 403.715>
VStem: 70 158 107 61<304.921 400.499> 348 61<83.5504 184.813>
DStem2: 70 -163 128 -163 0.593767 0.804637<34.4385 180.205>
LayerCount: 2
Fore
SplineSet
37 39 m 1
 59 97 l 1
 87 77 131 44 217 44 c 0
 334 44 348 116 348 140 c 0
 348 212 244 209 189 228 c 0
 158 238 107 268 107 329 c 0
 107 363 126 411 157 439 c 0
 178 459 218 485 311 485 c 0
 381 485 417 470 456 451 c 1
 435 397 l 1
 414 408 375 435 288 435 c 0
 188 435 168 376 168 347 c 0
 168 279 269 284 326 264 c 0
 383 244 409 201 409 159 c 0xec
 409 125 393 -8 206 -8 c 0
 139 -8 87 8 37 39 c 1
EndSplineSet
Refer: 23 184 S 1 0 0 1 -26 0 2
EndChar

StartChar: tcaron
Encoding: 357 357 191
Width: 379
Flags: HW
TeX: 694 0
ItalicCorrection: 124
HStem: -8 52<177 308.557> 422 50<120 204 277 421>
VStem: 133 66<49.1278 189.435>
DStem2: 112.604 -8 174.601 -8 0.207912 0.978148<227.748 439.606 503.691 629.087>
LayerCount: 2
Fore
SplineSet
109 422 m 1
 120 472 l 1
 216 472 l 1
 245 607 l 1
 305 607 l 1
 277 472 l 1
 432 472 l 1
 421 422 l 1
 266 422 l 1
 202 118 199 115 199 92 c 0
 199 55 218 44 244 44 c 0
 292 44 326 65 355 85 c 1
 357 36 l 1
 314 13 260 -8 196 -8 c 0
 158 -8 133 10 133 64 c 0
 133 88 138 112 143 135 c 2
 204 422 l 1
 109 422 l 1
406 533 m 1
 445 607 l 1
 422 607 l 1
 438 685 l 1
 516 685 l 1
 503 621 l 1
 499 608 l 1
 482 582 463 558 445 533 c 1
 406 533 l 1
EndSplineSet
EndChar

StartChar: tcommaaccent
Encoding: 355 355 192
Width: 379
Flags: HW
TeX: 607 145
ItalicCorrection: 77
HStem: -163 145 -8 52<177 308.296> 422 50<119 203 276 421>
VStem: 92 158 132 67<49.1278 184.366>
DStem2: 79.6581 -163 140.654 -163 0.207912 0.978148<386.059 597.861 661.945 787.342> 92 -163 150 -163 0.593767 0.804637<34.4385 180.205>
LayerCount: 2
Fore
SplineSet
108 422 m 1
 119 472 l 1
 216 472 l 1
 244 607 l 1
 305 607 l 1
 276 472 l 1
 432 472 l 1
 421 422 l 1
 265 422 l 1
 201 118 199 115 199 92 c 0
 199 55 218 44 244 44 c 0
 292 44 325 65 354 85 c 1
 357 36 l 1
 314 13 260 -8 196 -8 c 0xe8
 158 -8 132 10 132 64 c 0
 132 88 138 112 143 135 c 2
 203 422 l 1
 108 422 l 1
EndSplineSet
Refer: 23 184 S 1 0 0 1 -4 0 2
EndChar

StartChar: uring
Encoding: 367 367 194
Width: 517
Flags: HW
TeX: 666 0
ItalicCorrection: 48
HStem: -8 47<172.104 292.589> 0 21<372 439.237> 452 20<175.731 245 466.764 535> 510 33<327.587 423.81> 640 32<343.36 437.985>
VStem: 100 65<49.4541 197.609> 265 58<546.432 626.681> 443 58<556.603 636.326>
DStem2: 77.6672 -8 142.242 -8 0.207912 0.978148<110.513 490.787> 370.3 -8 433.3 -8 0.207912 0.978148<21.2772 96.0418 103.265 490.448>
LayerCount: 2
Fore
SplineSet
265 580 m 0
 265 624 322 672 401 672 c 0
 457 672 501 645 501 603 c 0
 501 560 445 510 365 510 c 0
 309 510 265 538 265 580 c 0
323 576 m 0
 323 551 341 543 372 543 c 0x3f
 429 543 443 575 443 606 c 0
 443 631 425 640 394 640 c 2
 392 640 l 2
 376 640 323 638 323 576 c 0
EndSplineSet
Refer: 128 117 S 1 0 0 1 0 0 3
EndChar

StartChar: ij
Encoding: 307 307 199
Width: 546
Flags: HW
TeX: 694 166
ItalicCorrection: 100
HStem: -175 53<229.963 369.655> 0 21<88 155.28> 452 20G<183.763 252 504.725 572> 631 63<235 285 556 606>
VStem: 88 164 222 76 543 76
DStem2: 88 0 151 0 0.207912 0.978148<13.0984 482.477> 370.856 -175 434.204 -175 0.207912 0.978148<68.0627 661.583>
LayerCount: 2
Fore
SplineSet
198 -146 m 1
 222 -95 l 1
 248 -113 268 -122 299 -122 c 0xf6
 335 -122 375 -106 390 -77 c 0
 394 -69 395 -60 397 -52 c 2
 509 472 l 1
 572 472 l 1
 468 -16 l 2
 461 -51 455 -116 382 -157 c 0
 363 -167 339 -175 311 -175 c 0
 277 -175 238 -168 198 -146 c 1
EndSplineSet
Refer: 367 183 S 1 0 0 1 400 413 2
Refer: 116 105 S 1 0 0 1 8 0 2
Ligature2: "Latin Dutch ligatures subtable" i j
EndChar

StartChar: exclamdown
Encoding: 161 161 200
Width: 325
Flags: HW
TeX: 527 166
ItalicCorrection: 17
HStem: -167 21G<87 168.946> 450 78<234 296>
VStem: 218 95
DStem2: 87 -167 165 -167 0.207912 0.978148<16.2171 530.236>
LayerCount: 2
Fore
SplineSet
87 -167 m 1
 205 350 l 1
 267 350 l 1
 165 -167 l 1
 87 -167 l 1
EndSplineSet
Refer: 57 46 S 1 0 0 1 112 450 2
EndChar

StartChar: questiondown
Encoding: 191 191 201
Width: 496
Flags: HW
TeX: 527 166
HStem: -175 50<127.983 327.649> 450 78<305 367>
VStem: 49 64<-108.907 16.1354> 276 63<264.324 350> 289 95
LayerCount: 2
Fore
SplineSet
49 -62 m 0
 49 45 135 95 143 102 c 0
 256 196 266 306 276 350 c 1
 339 350 l 1
 329 302 314 178 185 68 c 0
 176 60 113 24 113 -62 c 0
 113 -120 163 -125 207 -125 c 2
 208 -125 l 1
 298 -124 357 -93 404 -70 c 1
 411 -122 l 1
 353 -150 283 -175 197 -175 c 0xf0
 70 -175 49 -107 49 -62 c 0
EndSplineSet
Refer: 57 46 S 1 0 0 1 183 450 2
EndChar

StartChar: sterling
Encoding: 163 163 202
Width: 782
Flags: HW
TeX: 694 0
HStem: -8 50<132.481 227.727 423.156 565.053> 89 50<136.945 246.239> 322 51<253 327 402 505> 677 51<511.684 634.943>
VStem: 69 63<42.025 81.236> 606 64<89.216 139> 663 65<497.394 645.749>
DStem2: 256.856 -8 320.856 -8 0.207912 0.978148<169.471 337.372 402.851 648.617>
LayerCount: 2
Fore
SplineSet
69 45 m 0
 69 100 137 139 217 139 c 0
 243 139 263 135 282 129 c 1
 291 158 l 1
 327 322 l 1
 243 322 l 1
 253 373 l 1
 338 373 l 1
 357 465 370 531 379 557 c 0
 415 657 507 728 592 728 c 0
 674 728 728 663 728 571 c 0
 728 504 711 495 687 491 c 1
 665 497 663 505 663 521 c 1
 658 521 l 1
 661 541 663 552 663 570 c 0xfa
 663 627 638 677 580 677 c 0
 525 677 466 636 442 553 c 0
 434 527 418 446 402 373 c 1
 516 373 l 1
 505 322 l 1
 391 322 l 1
 353 143 359 152 334 108 c 1
 371 92 441 42 513 42 c 0
 567 42 595 93 606 139 c 1
 670 139 l 1xfc
 650 51 563 -8 478 -8 c 0
 409 -8 344 34 294 58 c 1
 227 -6 163 -8 145 -8 c 0
 101 -8 69 13 69 45 c 0
132 56 m 0
 132 48 138 42 155 42 c 0
 195 42 225 59 247 78 c 1
 235 81 208 89 183 89 c 0xf8
 154 89 132 70 132 56 c 0
EndSplineSet
EndChar

StartChar: Agrave
Encoding: 192 192 203
Width: 675
Flags: HW
TeX: 850 0
HStem: 0 21<29 105.905 568.571 645> 210 53<251 527> 683 20<437.051 527.442>
DStem2: 29 0 94 0 0.512879 0.858461<33.3371 277.724 339.634 765.471> 524 703 467 630 0.169625 -0.985509<62.2735 434.133 487.891 700.955>
AnchorPoint: "below" 337 0 basechar 0
AnchorPoint: "above" 515 839 basechar 0
LayerCount: 2
Fore
SplineSet
376 850 m 1
 453 850 l 2
 455 850 456 851 458 851 c 0
 472 851 476 846 621 760 c 1
 560 760 l 2
 545 760 536 767 526 772 c 0
 405 835 390 841 376 850 c 1
EndSplineSet
Refer: 76 65 S 1 0 0 1 -0 -0 3
AlternateSubs2: "Stilistic set 01 subtable" Agrave.vn
AlternateSubs2: "Latin alternatives subtable" Agrave.vn
Substitution2: "Latin Vietnamese substitutions subtable" Agrave.vn
EndChar

StartChar: Aacute
Encoding: 193 193 204
Width: 675
Flags: HW
TeX: 850 0
ItalicCorrection: 16
HStem: 0 21<29 105.905 568.571 645> 210 53<251 527> 683 20<437.051 527.442>
DStem2: 29 0 94 0 0.512879 0.858461<33.3371 277.724 339.634 765.471> 524 703 467 630 0.169625 -0.985509<62.2735 434.133 487.891 700.955>
AnchorPoint: "below" 337 0 basechar 0
AnchorPoint: "above" 515 839 basechar 0
LayerCount: 2
Fore
SplineSet
376 760 m 1
 563 848 563 850 581 850 c 2
 603 850 l 2
 613 850 624 851 634 851 c 0
 643 851 651 851 660 850 c 1
 439 756 457 761 435 760 c 1
 376 760 l 1
EndSplineSet
Refer: 76 65 S 1 0 0 1 -0 0 3
AlternateSubs2: "Stilistic set 01 subtable" Aacute.vn
AlternateSubs2: "Latin alternatives subtable" Aacute.vn
Substitution2: "Latin Vietnamese substitutions subtable" Aacute.vn
EndChar

StartChar: Atilde
Encoding: 195 195 206
Width: 675
Flags: HW
TeX: 888 0
HStem: 0 21<29 105.905 568.571 645> 210 53<251 527> 683 20<437.051 527.442> 727 51<535.888 617.776> 838 51<401.347 482.362>
VStem: 317 50<727 792.802> 651 50<822.786 889>
DStem2: 29 0 94 0 0.512879 0.858461<33.3371 277.724 339.634 765.471> 524 703 467 630 0.169625 -0.985509<62.2735 434.133 487.891 700.955>
AnchorPoint: "below" 337 0 basechar 0
AnchorPoint: "above" 523 877 basechar 0
LayerCount: 2
Fore
SplineSet
317 727 m 1
 339 832 397 889 450 889 c 0
 520 889 512 778 577 778 c 0
 621 778 639 833 651 889 c 1
 701 889 l 1
 678 783 621 727 568 727 c 0
 497 727 508 838 441 838 c 0
 397 838 379 783 367 727 c 1
 317 727 l 1
EndSplineSet
Refer: 76 65 S 1 0 0 1 0 0 3
AlternateSubs2: "Stilistic set 01 subtable" Atilde.vn
AlternateSubs2: "Latin alternatives subtable" Atilde.vn
Substitution2: "Latin Vietnamese substitutions subtable" Atilde.vn
EndChar

StartChar: Aring
Encoding: 197 197 208
Width: 675
Flags: HW
TeX: 850 0
HStem: 0 21G<29 105.905 568.571 645> 210 53<251 527> 844 50<459.265 553.766>
VStem: 377 57<707.695 818.061> 558 58<728.363 839.317>
DStem2: 29 0 94 0 0.511826 0.859089<33.2687 277.656 339.566 765.406> 530 668 467 630 0.16966 -0.985503<26.7605 398.62 452.378 665.441>
LayerCount: 2
Fore
SplineSet
29 0 m 1
 424 663 l 1
 406 673 377 697 377 748 c 0
 377 822 445 894 521 894 c 0
 573 894 616 858 616 800 c 0
 616 747 581 695 530 668 c 1
 645 0 l 1
 572 0 l 1
 536 210 l 1
 219 210 l 1
 94 0 l 1
 29 0 l 1
251 263 m 1
 527 263 l 1
 487 499 l 1
 467 630 l 1
 251 263 l 1
434 744 m 0
 434 716 451 703 482 703 c 0
 540 703 549 750 554 774 c 0
 556 783 558 792 558 802 c 0
 558 830 541 844 511 844 c 0
 452 844 443 796 438 772 c 0
 436 763 434 753 434 744 c 0
EndSplineSet
EndChar

StartChar: AE
Encoding: 198 198 209
Width: 892
Flags: HW
TeX: 694 0
ItalicCorrection: 118
HStem: 0 56<509 848> 225 53<272 475> 335 53<579 875> 641 54<504 564 634 969>
DStem2: 29 0 95 0 0.538365 0.842712<35.5321 302.128 365.097 795.902> 428 0 497.097 0 0.207912 0.978148<71.6171 229.855 284.192 356.787 410.916 655.269>
AnchorPoint: "below" 438 0 basechar 0
AnchorPoint: "above" 613 711 basechar 0
LayerCount: 2
Fore
SplineSet
29 0 m 1
 473 695 l 1
 981 695 l 1
 969 641 l 1
 634 641 l 1
 579 388 l 1
 886 388 l 1
 875 335 l 1
 568 335 l 1
 509 56 l 1
 859 56 l 1
 848 0 l 1
 428 0 l 1
 475 225 l 1
 238 225 l 1
 95 0 l 1
 29 0 l 1
272 278 m 1
 487 278 l 1
 564 641 l 1
 504 641 l 1
 272 278 l 1
EndSplineSet
EndChar

StartChar: Ccedilla
Encoding: 199 199 210
Width: 671
Flags: HW
TeX: 694 145
ItalicCorrection: 118
HStem: -163 145 -17 53<327.436 550.88> 658 53<452.889 669.831>
VStem: 146 71<158.909 389.381> 271 158
DStem2: 271 -163 329 -163 0.593767 0.804637<34.4385 180.205>
AnchorPoint: "above" 565 711 basechar 0
LayerCount: 2
Fore
SplineSet
146 262 m 0
 146 481 335 711 565 711 c 0
 657 711 716 690 750 677 c 1
 723 608 l 1
 687 628 647 658 552 658 c 0
 374 658 217 462 217 269 c 0
 217 148 285 36 420 36 c 0
 519 36 554 54 633 97 c 1
 626 39 l 1
 546 -2 505 -17 409 -17 c 0
 239 -17 146 112 146 262 c 0
EndSplineSet
Refer: 23 184 S 1 0 0 1 175 0 2
EndChar

StartChar: Egrave
Encoding: 200 200 211
Width: 625
Flags: HW
TeX: 850 0
ItalicCorrection: 118
HStem: 0 56<180 581> 334 53<250 608> 640 53<304 702>
DStem2: 98 0 168.097 0 0.207912 0.978148<71.825 356.017 410.146 668.844>
AnchorPoint: "below" 339 0 basechar 0
AnchorPoint: "above" 520 849 basechar 0
LayerCount: 2
Fore
SplineSet
330 850 m 1
 407 850 l 2
 409 850 410 851 412 851 c 0
 425 851 431 846 575 760 c 1
 514 760 l 2
 499 760 490 767 480 772 c 0
 359 835 344 841 330 850 c 1
EndSplineSet
Refer: 80 69 S 1 0 0 1 -0 -0 3
AlternateSubs2: "Stilistic set 01 subtable" Egrave.vn
AlternateSubs2: "Latin alternatives subtable" Egrave.vn
Substitution2: "Latin Vietnamese substitutions subtable" Egrave.vn
EndChar

StartChar: Eacute
Encoding: 201 201 212
Width: 625
Flags: HW
TeX: 850 0
ItalicCorrection: 118
HStem: 0 56<180 581> 334 53<250 608> 640 53<304 702>
DStem2: 98 0 168.097 0 0.207912 0.978148<71.825 356.017 410.146 668.844>
AnchorPoint: "below" 339 0 basechar 0
AnchorPoint: "above" 520 849 basechar 0
LayerCount: 2
Fore
SplineSet
374 760 m 1
 561 848 561 850 579 850 c 2
 600 850 l 2
 610 850 622 851 632 851 c 0
 641 851 649 851 658 850 c 1
 437 756 455 761 433 760 c 1
 374 760 l 1
EndSplineSet
Refer: 80 69 S 1 0 0 1 -0 0 3
AlternateSubs2: "Stilistic set 01 subtable" Eacute.vn
AlternateSubs2: "Latin alternatives subtable" Eacute.vn
Substitution2: "Latin Vietnamese substitutions subtable" Eacute.vn
EndChar

StartChar: Ecircumflex
Encoding: 202 202 213
Width: 625
Flags: HW
TeX: 888 0
ItalicCorrection: 118
HStem: 0 56<180 581> 334 53<250 608> 640 53<304 702>
DStem2: 98 0 168.097 0 0.207912 0.978148<71.825 356.017 410.146 668.844> 290 727 340 727 0.698639 0.715474<34.932 221.561> 507 897 474 857 0.49172 -0.870754<18.6034 170.155>
AnchorPoint: "below" 339 0 basechar 0
AnchorPoint: "above" 530 895 basechar 0
LayerCount: 2
Fore
SplineSet
290 727 m 1
 456 897 l 1
 507 897 l 1
 603 727 l 1
 552 727 l 1
 474 857 l 1
 340 727 l 1
 290 727 l 1
EndSplineSet
Refer: 80 69 S 1 0 0 1 -0 0 3
AlternateSubs2: "Stilistic set 01 subtable" Ecircumflex.vn
AlternateSubs2: "Latin alternatives subtable" Ecircumflex.vn
Substitution2: "Latin Vietnamese substitutions subtable" Ecircumflex.vn
EndChar

StartChar: Igrave
Encoding: 204 204 215
Width: 267
Flags: HW
TeX: 850 0
ItalicCorrection: 133
HStem: 0 21<98 172.259> 675 20<245 316>
VStem: 98 218
DStem2: 98 0 168 0 0.207912 0.978148<14.5538 709.397>
AnchorPoint: "below" 132 0 basechar 0
AnchorPoint: "above" 312 847 basechar 0
LayerCount: 2
Fore
SplineSet
157 850 m 1
 234 850 l 2
 236 850 237 851 239 851 c 0
 253 851 258 846 403 760 c 1
 341 760 l 2
 326 760 318 767 308 772 c 0
 187 835 171 841 157 850 c 1
EndSplineSet
Refer: 84 73 S 1 0 0 1 -0 -0 3
AlternateSubs2: "Stilistic set 01 subtable" Igrave.vn
AlternateSubs2: "Latin alternatives subtable" Igrave.vn
Substitution2: "Latin Vietnamese substitutions subtable" Igrave.vn
EndChar

StartChar: Iacute
Encoding: 205 205 216
Width: 267
Flags: HW
TeX: 850 0
ItalicCorrection: 133
HStem: 0 21<98 172.259> 675 20<245 316>
VStem: 98 218
DStem2: 98 0 168 0 0.207912 0.978148<14.5538 709.397>
AnchorPoint: "below" 132 0 basechar 0
AnchorPoint: "above" 312 847 basechar 0
LayerCount: 2
Fore
SplineSet
216 760 m 1
 403 848 403 850 421 850 c 2
 442 850 l 2
 452 850 464 851 474 851 c 0
 483 851 490 851 499 850 c 1
 278 756 296 761 274 760 c 1
 216 760 l 1
EndSplineSet
Refer: 84 73 S 1 0 0 1 -0 -0 3
AlternateSubs2: "Stilistic set 01 subtable" Iacute.vn
AlternateSubs2: "Latin alternatives subtable" Iacute.vn
Substitution2: "Latin Vietnamese substitutions subtable" Iacute.vn
EndChar

StartChar: Icircumflex
Encoding: 206 206 217
Width: 267
Flags: HW
TeX: 888 0
ItalicCorrection: 133
HStem: 0 21<98 172.259> 675 20<245 316>
VStem: 98 218
DStem2: 98 0 168 0 0.207912 0.978148<14.5538 709.397> 132 727 182 727 0.698639 0.715474<34.932 221.561> 349 897 316 857 0.487821 -0.872943<18.8196 170.352>
AnchorPoint: "below" 132 0 basechar 0
AnchorPoint: "above" 322 893 basechar 0
LayerCount: 2
Fore
SplineSet
132 727 m 1
 298 897 l 1
 349 897 l 1
 444 727 l 1
 394 727 l 1
 316 857 l 1
 182 727 l 1
 132 727 l 1
EndSplineSet
Refer: 84 73 S 1 0 0 1 -0 -0 3
EndChar

StartChar: Eth
Encoding: 208 208 219
Width: 746
Flags: HW
TeX: 694 0
ItalicCorrection: 74
HStem: 0 53<178 473.418> 315 51<64 165 244 433> 641 54<303 584.406>
VStem: 700 68<297.492 528.285>
DStem2: 98 0 166.734 0 0.207912 0.978148<68.4748 322.047 388.357 669.615>
LayerCount: 2
Fore
SplineSet
54 315 m 1
 64 366 l 1
 176 366 l 1
 245 694 l 1
 246 695 l 1
 498 695 l 2
 715 695 768 527 768 422 c 0
 768 210 592 27 406 3 c 0
 385 0 364 0 343 0 c 2
 98 0 l 1
 165 315 l 1
 54 315 l 1
178 53 m 1
 335 53 l 2
 392 53 466 56 547 113 c 0
 655 189 700 315 700 423 c 0
 700 520 654 642 472 642 c 0
 462 642 451 641 441 641 c 2
 303 641 l 1
 244 366 l 1
 444 366 l 1
 433 315 l 1
 234 315 l 1
 178 53 l 1
EndSplineSet
EndChar

StartChar: Ntilde
Encoding: 209 209 220
Width: 708
Flags: HW
TeX: 888 0
ItalicCorrection: 78
HStem: 0 21<100 167.245 503.333 612.23> 675 20<247 351.656 692 755> 727 51<552.616 634.213> 838 51<418.143 498.833>
VStem: 333 51<727 791.292> 667 51<823.33 889>
DStem2: 100 0 163 0 0.207912 0.978148<13.0984 663.268> 345 695 298 636 0.315781 -0.948832<41.1394 671.352> 544.672 0 608 0 0.207912 0.978148<59.2958 709.466>
LayerCount: 2
Fore
SplineSet
333 727 m 1
 362 851 425 889 466 889 c 0
 537 889 528 778 594 778 c 0
 638 778 657 835 667 889 c 1
 718 889 l 1
 703 810 652 727 585 727 c 0
 514 727 524 838 458 838 c 0
 398 838 387 730 384 727 c 1
 333 727 l 1
EndSplineSet
Refer: 89 78 S 1 0 0 1 -0 -0 3
EndChar

StartChar: Oacute
Encoding: 211 211 222
Width: 783
Flags: HW
TeX: 850 0
ItalicCorrection: 74
HStem: -17 53<305.459 496.328> 659 52<425.666 627.118>
VStem: 122 72<158.46 392.988> 739 67<311.068 542.474>
AnchorPoint: "below" 391 0 basechar 0
AnchorPoint: "above" 568 831 basechar 0
LayerCount: 2
Fore
SplineSet
430 760 m 1
 617 848 617 850 635 850 c 2
 656 850 l 2
 666 850 678 851 688 851 c 0
 697 851 704 851 713 850 c 1
 492 756 510 761 488 760 c 1
 430 760 l 1
EndSplineSet
Refer: 90 79 S 1 0 0 1 -0 0 3
AlternateSubs2: "Stilistic set 01 subtable" Oacute.vn
AlternateSubs2: "Latin alternatives subtable" Oacute.vn
Substitution2: "Latin Vietnamese substitutions subtable" Oacute.vn
EndChar

StartChar: Ocircumflex
Encoding: 212 212 223
Width: 783
Flags: HW
TeX: 888 0
ItalicCorrection: 74
HStem: -17 53<305.459 496.328> 659 52<425.666 627.118>
VStem: 122 72<158.46 392.988> 739 67<311.068 542.474>
DStem2: 389 727 440 727 0.700784 0.713373<35.74 221.683> 607 897 573 857 0.487821 -0.872943<18.3318 170.352>
AnchorPoint: "below" 391 0 basechar 0
AnchorPoint: "above" 577 877 basechar 0
LayerCount: 2
Fore
SplineSet
389 727 m 1
 556 897 l 1
 607 897 l 1
 702 727 l 1
 652 727 l 1
 573 857 l 1
 440 727 l 1
 389 727 l 1
EndSplineSet
Refer: 90 79 S 1 0 0 1 -0 -0 3
AlternateSubs2: "Stilistic set 01 subtable" Ocircumflex.vn
AlternateSubs2: "Latin alternatives subtable" Ocircumflex.vn
Substitution2: "Latin Vietnamese substitutions subtable" Ocircumflex.vn
EndChar

StartChar: Otilde
Encoding: 213 213 224
Width: 783
Flags: HW
TeX: 888 0
ItalicCorrection: 74
HStem: -17 53<305.459 496.328> 659 52<425.666 627.118> 727 51<589.253 669.495> 838 51<453.773 535.827>
VStem: 122 72<158.46 392.988> 370 51<727 792.707> 704 51<822.786 889> 739 67<311.068 542.474>
AnchorPoint: "below" 391 0 basechar 0
AnchorPoint: "above" 576 869 basechar 0
LayerCount: 2
Fore
SplineSet
370 727 m 1
 398 852 464 889 504 889 c 0
 574 889 565 778 630 778 c 0
 690 778 701 886 704 889 c 1
 755 889 l 1
 731 783 675 727 622 727 c 0xfe
 550 727 561 838 494 838 c 0
 442 838 427 755 421 727 c 1
 370 727 l 1
EndSplineSet
Refer: 90 79 S 1 0 0 1 0 -0 3
AlternateSubs2: "Stilistic set 01 subtable" Otilde.vn
AlternateSubs2: "Latin alternatives subtable" Otilde.vn
Substitution2: "Latin Vietnamese substitutions subtable" Otilde.vn
EndChar

StartChar: OE
Encoding: 338 338 226
Width: 1008
Flags: HW
TeX: 694 0
ItalicCorrection: 118
HStem: -17 51<281.058 461.106> 0 56<564 964> 335 53<634 991> 641 54<688 1086> 661 50<405.486 585.872>
VStem: 81 72<171.373 391.399>
AnchorPoint: "above" 668 711 basechar 0
LayerCount: 2
Fore
SplineSet
81 268 m 0
 81 500 300 711 516 711 c 0xac
 589 711 562 695 711 695 c 2
 1097 695 l 1
 1086 641 l 1
 688 641 l 1
 634 388 l 1
 1002 388 l 1
 991 335 l 1
 623 335 l 1
 564 56 l 1
 976 56 l 1
 964 0 l 1
 564 0 l 1x74
 418 -1 437 -17 360 -17 c 0
 204 -17 81 97 81 268 c 0
153 282 m 0
 153 138 242 34 375 34 c 0
 493 34 502 91 542 281 c 0
 584 480 600 545 600 588 c 0
 600 632 588 660 514 661 c 1
 507 661 l 2xac
 338 661 153 497 153 282 c 0
EndSplineSet
EndChar

StartChar: Oslash
Encoding: 216 216 227
Width: 817
Flags: HW
TeX: 736 41
ItalicCorrection: 74
HStem: -17 51<309.445 524.536> 661 50<438.01 652.765>
VStem: 123 66<153.999 394.717> 774 66<298.266 539.386>
DStem2: 114 -28 151 -56 0.667801 0.74434<3.86712 126.063 185.526 864.23 922.358 1045.22>
LayerCount: 2
Fore
SplineSet
114 -28 m 1
 198 66 l 1
 198 67 l 1
 155 112 123 180 123 268 c 0
 123 497 337 711 558 711 c 0
 644 711 698 680 729 658 c 1
 812 750 l 1
 813 750 l 1
 849 721 l 1
 764 628 l 1
 764 627 l 1
 777 613 840 546 840 425 c 0
 840 195 625 -17 404 -17 c 0
 337 -17 284 1 234 36 c 1
 151 -56 l 1
 114 -28 l 1
189 263 m 0
 189 218 199 154 238 110 c 1
 692 616 l 1
 692 617 l 1
 645 650 598 661 548 661 c 0
 347 661 189 472 189 263 c 0
271 77 m 1
 296 61 337 34 415 34 c 0
 616 34 774 221 774 430 c 0
 774 503 754 547 726 584 c 1
 271 77 l 1
EndSplineSet
EndChar

StartChar: Uacute
Encoding: 218 218 229
Width: 692
Flags: HW
TeX: 850 0
ItalicCorrection: 78
HStem: -17 53<270.745 445.83> 675 20<245 315 675 740>
VStem: 141 69<94.4681 295.812>
DStem2: 93.6967 -17 164.233 -17 0.207912 0.978148<212.704 727.899> 523.872 -17 588.547 -17 0.207912 0.978148<160.514 726.884>
AnchorPoint: "below" 347 0 basechar 0
AnchorPoint: "above" 524 847 basechar 0
LayerCount: 2
Fore
SplineSet
427 760 m 1
 614 848 614 850 632 850 c 2
 654 850 l 2
 664 850 675 851 685 851 c 0
 694 851 702 851 711 850 c 1
 490 756 508 761 486 760 c 1
 427 760 l 1
EndSplineSet
Refer: 96 85 S 1 0 0 1 -0 0 3
AlternateSubs2: "Stilistic set 01 subtable" Uacute.vn
AlternateSubs2: "Latin alternatives subtable" Uacute.vn
Substitution2: "Latin Vietnamese substitutions subtable" Uacute.vn
EndChar

StartChar: Ucircumflex
Encoding: 219 219 230
Width: 692
Flags: HW
TeX: 888 0
ItalicCorrection: 78
HStem: -17 53<270.745 445.83> 675 20<245 315 675 740>
VStem: 141 69<94.4681 295.812>
DStem2: 93.6967 -17 164.233 -17 0.207912 0.978148<212.704 727.899> 345 727 395 727 0.698639 0.715474<34.932 221.561> 523.872 -17 588.547 -17 0.207912 0.978148<160.514 726.884> 560 897 529 857 0.495589 -0.868557<19.379 170.947>
AnchorPoint: "below" 347 0 basechar 0
AnchorPoint: "above" 534 893 basechar 0
LayerCount: 2
Fore
SplineSet
345 727 m 1
 511 897 l 1
 560 897 l 1
 657 727 l 1
 607 727 l 1
 529 857 l 1
 395 727 l 1
 345 727 l 1
EndSplineSet
Refer: 96 85 S 1 0 0 1 -0 -0 3
EndChar

StartChar: Yacute
Encoding: 221 221 232
Width: 675
Flags: HW
TeX: 850 0
ItalicCorrection: 173
HStem: 0 21<303 375.292> 675 20<150 245.142 723.416 819>
DStem2: 235 695 150 695 0.452556 -0.891736<0 395.79> 303 0 371 0 0.207912 0.978148<14.138 280.704> 414 342 447 295 0.681013 0.732272<0 481.864>
AnchorPoint: "below" 337 0 basechar 0
AnchorPoint: "above" 517 847 basechar 0
LayerCount: 2
Fore
SplineSet
420 760 m 1
 607 848 607 850 625 850 c 2
 646 850 l 2
 656 850 667 851 677 851 c 0
 686 851 694 851 703 850 c 1
 482 756 500 761 478 760 c 1
 420 760 l 1
EndSplineSet
Refer: 100 89 S 1 0 0 1 -0 0 3
AlternateSubs2: "Stilistic set 01 subtable" Yacute.vn
AlternateSubs2: "Latin alternatives subtable" Yacute.vn
Substitution2: "Latin Vietnamese substitutions subtable" Yacute.vn
EndChar

StartChar: Thorn
Encoding: 222 222 233
Width: 600
Flags: HW
TeX: 694 0
ItalicCorrection: 81
HStem: 0 21G<99 170.222> 180 54<216 441.673> 516 54<287 485.996> 675 20G<246 314>
VStem: 557 67<330.747 455.158>
DStem2: 99 0 166 0 0.207912 0.978148<13.9301 197.897 253.212 541.525 596.632 709.397>
LayerCount: 2
Fore
SplineSet
99 0 m 1
 246 694 l 1
 247 695 l 1
 314 695 l 1
 287 570 l 1
 436 570 l 2
 582 570 624 474 624 410 c 0
 624 320 536 180 345 180 c 2
 204 180 l 1
 166 0 l 1
 99 0 l 1
216 234 m 1
 329 234 l 2
 495 234 557 340 557 396 c 0
 557 444 515 516 383 516 c 2
 276 516 l 1
 216 234 l 1
EndSplineSet
EndChar

StartChar: Germandbls
Encoding: 61699 61699 234
Width: 1167
Flags: HW
TeX: 694 0
ItalicCorrection: 89
HStem: -17 57<182.264 391.158 765.697 974.558> 656 55<332.142 542.001 916.156 1125>
VStem: 166 66<454.519 568.791> 502 66<137.9 266.126> 749 66<452.001 569.27> 1086 66<140.336 266.118>
DStem2: 300 419 276 348 0.959556 -0.281518<-56.4758 218.227>
LayerCount: 2
Fore
SplineSet
58 53 m 1
 84 122 l 1
 101 108 170 40 297 40 c 0
 415 40 502 127 502 204 c 0
 502 259 463 290 430 305 c 0
 401 318 306 337 276 348 c 0
 228 365 166 411 166 490 c 0
 166 593 280 711 446 711 c 0
 527 711 574 694 628 663 c 1
 601 594 l 1
 574 615 534 656 433 656 c 0
 320 656 232 583 232 509 c 0
 232 474 256 438 300 419 c 0
 332 405 428 388 468 371 c 0
 503 356 568 313 568 224 c 0
 568 107 444 -17 285 -17 c 0
 211 -17 132 1 58 53 c 1
641 53 m 1
 668 122 l 1
 685 108 753 40 880 40 c 0
 998 40 1086 127 1086 204 c 0
 1086 259 1046 290 1013 305 c 0
 984 318 889 337 859 348 c 0
 811 365 749 411 749 490 c 0
 749 593 863 711 1029 711 c 0
 1110 711 1157 694 1211 663 c 1
 1184 594 l 1
 1157 615 1117 656 1016 656 c 0
 898 656 815 578 815 509 c 0
 815 399 973 405 1051 371 c 0
 1086 356 1152 313 1152 224 c 0
 1152 106 1027 -17 869 -17 c 0
 795 -17 715 1 641 53 c 1
EndSplineSet
EndChar

StartChar: acircumflex
Encoding: 226 226 237
Width: 492
Flags: HW
TeX: 666 0
ItalicCorrection: 17
HStem: -8 50<159.062 276.026> 0 21<347 415.258> 234 31<275.592 396> 438 47<230.496 393.869>
VStem: 76 64<61.9635 155.888> 418 65<266.909 413.986>
DStem2: 208 537 259 537 0.757249 0.653127<38.6197 203.369> 345.3 -8 409.3 -8 0.207912 0.978148<21.4851 78.7896 87.1862 247.253 275.929 366.467>
AnchorPoint: "below" 246 0 basechar 0
AnchorPoint: "above" 385 654 basechar 0
LayerCount: 2
Fore
SplineSet
208 537 m 1
 368 675 l 1
 443 675 l 1
 521 537 l 1
 471 537 l 1
 387 642 l 1
 386 642 l 1x3c
 259 537 l 1
 208 537 l 1
EndSplineSet
Refer: 108 97 S 1 0 0 1 -0 0 3
AlternateSubs2: "Stilistic set 01 subtable" acircumflex.vn
AlternateSubs2: "Latin alternatives subtable" acircumflex.vn
Substitution2: "Latin Vietnamese substitutions subtable" acircumflex.vn
EndChar

StartChar: atilde
Encoding: 227 227 238
Width: 492
Flags: HW
TeX: 666 0
ItalicCorrection: 17
HStem: -8 50<159.062 276.026> 0 21<347 415.258> 234 31<275.592 396> 438 47<230.496 393.869> 568 50<406.402 512.817> 616 51<272.591 381.602>
VStem: 76 64<61.9635 155.888> 208 50<568 601.812> 418 65<266.909 413.986> 528 51<633.727 667>
DStem2: 345.3 -8 409.3 -8 0.207912 0.978148<21.4851 78.7896 87.1862 247.253 275.929 366.467>
AnchorPoint: "below" 246 0 basechar 0
AnchorPoint: "above" 383 646 basechar 0
LayerCount: 2
Fore
SplineSet
208 568 m 1x3bc0
 221 628 277 667 328 667 c 0x37c0
 383 667 419 618 467 618 c 0x3bc0
 515 618 528 667 528 667 c 1
 579 667 l 1x37c0
 562 602 506 568 458 568 c 0x3bc0
 402 568 368 616 319 616 c 0x37c0
 298 616 269 605 258 568 c 1
 208 568 l 1x3bc0
EndSplineSet
Refer: 108 97 S 1 0 0 1 -0 0 3
AlternateSubs2: "Stilistic set 01 subtable" atilde.vn
AlternateSubs2: "Latin alternatives subtable" atilde.vn
Substitution2: "Latin Vietnamese substitutions subtable" atilde.vn
EndChar

StartChar: aring
Encoding: 229 229 240
Width: 492
Flags: HW
TeX: 666 0
ItalicCorrection: 17
HStem: -8 50<159.062 276.026> -0 21<347 415.258> 234 31<275.592 396> 438 47<230.496 393.869> 510 33<320.793 416.519> 640 32<335.174 429.577>
VStem: 76 64<61.9635 155.888> 258 58<546.548 626.612> 418 65<266.909 413.986> 435 58<556.128 636.326>
DStem2: 345.3 -8 409.3 -8 0.207912 0.978148<21.4851 78.7896 87.1862 247.253 275.929 366.467>
LayerCount: 2
Fore
SplineSet
258 580 m 0
 258 623 315 672 394 672 c 0
 450 672 493 645 493 603 c 0
 493 560 438 510 358 510 c 0
 303 510 258 538 258 580 c 0
316 576 m 0
 316 552 334 543 365 543 c 0x3f40
 422 543 435 575 435 606 c 0
 435 631 418 640 387 640 c 0
 361 640 316 634 316 576 c 0
EndSplineSet
Refer: 108 97 S 1 0 0 1 0 -0 3
EndChar

StartChar: ae
Encoding: 230 230 241
Width: 758
Flags: HW
TeX: 472 0
ItalicCorrection: 64
HStem: -8 50<128.442 305.519 511.984 665.191> 230 40<260.404 396> 250 40<478 734.51> 438 47<229.624 394.177 584.018 700.515>
VStem: 78 64<62.3788 156.709> 735 55<290.92 402.216>
AnchorPoint: "below" 391 0 basechar 0
AnchorPoint: "above" 486 484 basechar 0
LayerCount: 2
Fore
SplineSet
78 86 m 0
 78 196 202 267 404 270 c 1xdc
 416 328 418 336 418 353 c 0
 418 393 395 438 339 438 c 0
 260 438 209 408 169 386 c 1
 175 438 174 440 187 447 c 0
 239 471 285 485 350 485 c 0
 419 485 460 449 478 395 c 1
 523 443 586 484 658 484 c 0
 716 484 790 454 790 336 c 0
 790 307 785 278 779 250 c 1
 464 250 l 1xbc
 459 225 456 213 456 188 c 0
 456 110 501 42 582 42 c 0
 661 42 722 94 742 111 c 1
 735 57 l 1
 688 18 631 -8 569 -8 c 0
 463 -8 424 67 413 85 c 1
 361 13 246 -8 163 -8 c 0
 95 -8 78 47 78 86 c 0
142 106 m 0
 142 68 177 42 229 42 c 0
 287 42 358 71 377 127 c 0
 380 137 386 168 396 230 c 1xdc
 259 229 142 181 142 106 c 0
478 290 m 1
 733 290 l 1
 734 302 735 313 735 325 c 0xbc
 735 415 682 434 647 434 c 0
 584 434 523 380 489 315 c 1
 478 290 l 1
EndSplineSet
EndChar

StartChar: ccedilla
Encoding: 231 231 242
Width: 467
Flags: HW
TeX: 472 145
ItalicCorrection: 88
HStem: -163 145 -8 52<204.532 374.787> 433 52<279.221 465.047>
VStem: 90 64<94.7366 286.88> 125 158
DStem2: 125 -163 183 -163 0.593767 0.804637<34.4385 180.205>
AnchorPoint: "above" 373 484 basechar 0
LayerCount: 2
Fore
SplineSet
90 179 m 0xf0
 90 323 211 485 373 485 c 0
 457 485 490 463 525 442 c 1
 504 387 l 1
 467 412 439 433 362 433 c 0
 217 433 154 276 154 179 c 0
 154 103 194 44 274 44 c 0
 365 44 422 88 455 111 c 1
 449 55 l 1
 395 17 337 -8 263 -8 c 0
 152 -8 90 77 90 179 c 0xf0
EndSplineSet
Refer: 23 184 S 1 0 0 1 29 0 2
EndChar

StartChar: icircumflex
Encoding: 238 238 249
Width: 225
Flags: HW
TeX: 666 0
ItalicCorrection: 90
HStem: 0 21<80 147.28> 452 20<175.763 244> 642 33<230.995 249>
VStem: 70 312 80 164
DStem2: 80 0 143 0 0.207912 0.978148<13.0984 482.477> 281 675 249 642 0.590603 -0.806962<7.73047 141.482>
AnchorPoint: "below" 111 0 basechar 0
AnchorPoint: "above" 253 667 basechar 0
LayerCount: 2
Fore
SplineSet
70 538 m 1
 230 675 l 1
 281 675 l 1
 382 537 l 1
 332 537 l 1
 249 642 l 1
 248 642 l 1
 121 537 126 537 108 537 c 2xf0
 101 537 l 1
 70 538 l 1
EndSplineSet
Refer: 36 305 S 1 0 0 1 0 0 3
Ligature2: "Latin ligatures excepting Turkic subtable" i uni0302
EndChar

StartChar: eth
Encoding: 240 240 251
Width: 525
Flags: HW
TeX: 694 0
ItalicCorrection: 100
HStem: -8 52<198.983 352.104> 434 50<271.285 426.969> 657 38<253.605 286.971>
VStem: 84 65<95.4875 286.167> 477 73<214.566 428.085>
DStem2: 272 590 290 540 0.890043 0.455876<0 63.9529 155.293 223.553>
LayerCount: 2
Fore
SplineSet
84 180 m 0
 84 336 223 484 365 484 c 0
 405 484 436 473 466 453 c 1
 445 513 416 548 378 585 c 1
 290 540 l 1
 272 590 l 1
 329 619 l 1
 293 639 253 652 212 657 c 1
 263 695 l 1
 341 683 375 652 388 652 c 0
 394 652 392 652 477 695 c 1
 495 645 l 1
 434 614 l 1
 453 598 550 510 550 353 c 0
 550 296 531 223 527 209 c 0
 484 70 359 -8 260 -8 c 0
 154 -8 84 73 84 180 c 0
149 178 m 0
 149 71 220 44 271 44 c 0
 398 44 477 181 477 301 c 0
 477 407 404 434 353 434 c 0
 240 434 149 325 149 178 c 0
EndSplineSet
EndChar

StartChar: ntilde
Encoding: 241 241 252
Width: 517
Flags: HW
TeX: 666 0
ItalicCorrection: 25
HStem: 0 21<80 149.183 371 439.263> 430 50<310.493 423.155> 452 20<175.763 242> 568 50<401.06 508.532> 616 51<268.591 377.454>
VStem: 204 50<568 601.812> 444 67<254.602 410.21> 524 51<633.727 667>
DStem2: 80 0 145 0 0.207912 0.978148<13.5143 482.477> 371 0 435 0 0.207912 0.978148<13.3063 364.758>
LayerCount: 2
Fore
SplineSet
204 568 m 1x97
 217 628 273 667 324 667 c 0x8f
 379 667 414 618 462 618 c 0x97
 510 618 524 667 524 667 c 1
 575 667 l 1x8f
 558 602 502 568 454 568 c 0x97
 398 568 364 616 315 616 c 0x8f
 294 616 265 605 254 568 c 1
 204 568 l 1x97
EndSplineSet
Refer: 121 110 S 1 0 0 1 0 0 3
EndChar

StartChar: otilde
Encoding: 245 245 256
Width: 525
Flags: HW
TeX: 666 0
ItalicCorrection: 70
HStem: -8 52<198.983 350.633> 434 50<271.872 428.278> 568 50<405.06 512.532> 616 51<272.591 381.454>
VStem: 84 65<95.4875 285.973> 208 50<568 601.812> 478 62<197.77 384.46> 528 51<633.727 667>
AnchorPoint: "below" 262 0 basechar 0
AnchorPoint: "above" 399 647 basechar 0
LayerCount: 2
Fore
SplineSet
208 568 m 1xed
 221 628 277 667 328 667 c 0xdd
 383 667 418 618 466 618 c 0xed
 514 618 528 667 528 667 c 1
 579 667 l 1xdd
 562 602 506 568 458 568 c 0xed
 402 568 368 616 319 616 c 0xdd
 298 616 269 605 258 568 c 1
 208 568 l 1xed
EndSplineSet
Refer: 122 111 S 1 0 0 1 0 0 3
AlternateSubs2: "Stilistic set 01 subtable" otilde.vn
AlternateSubs2: "Latin alternatives subtable" otilde.vn
Substitution2: "Latin Vietnamese substitutions subtable" otilde.vn
EndChar

StartChar: oe
Encoding: 339 339 258
Width: 817
Flags: HW
TeX: 472 0
ItalicCorrection: 64
HStem: -8 50<194.793 341.054 570.735 723.522> 250 40<535 792.51> 434 50<266.668 418.813 636.393 762.031>
VStem: 84 62<92.7101 285.849> 464 50<198.373 248.838> 793 55<290.92 402.417>
AnchorPoint: "below" 412 0 basechar 0
AnchorPoint: "above" 534 484 basechar 0
LayerCount: 2
Fore
SplineSet
84 179 m 0
 84 337 220 484 357 484 c 0
 412 484 478 461 515 369 c 1
 561 431 636 484 717 484 c 0
 775 484 848 455 848 336 c 0
 848 307 844 278 838 250 c 1
 522 250 l 1
 517 225 514 213 514 188 c 0
 514 108 560 42 641 42 c 0
 720 42 780 94 800 111 c 1
 793 57 l 1
 746 18 689 -8 627 -8 c 0
 572 -8 496 15 460 110 c 1
 427 64 349 -8 252 -8 c 0
 151 -8 84 73 84 179 c 0
146 176 m 0
 146 71 213 42 263 42 c 0
 304 42 415 64 455 236 c 0
 463 271 464 294 464 308 c 0
 464 409 395 434 346 434 c 0
 312 434 188 418 153 239 c 0
 147 208 146 189 146 176 c 0
535 290 m 1
 791 290 l 1
 792 302 793 313 793 325 c 0
 793 415 740 434 705 434 c 0
 637 434 569 371 535 290 c 1
EndSplineSet
EndChar

StartChar: oslash
Encoding: 248 248 259
Width: 525
Flags: HW
TeX: 555 83
ItalicCorrection: 41
HStem: -8 50<201.758 352.058> 434 50<274.167 424.801>
VStem: 86 60<93.7713 284.373> 478 60<188.757 379.862>
DStem2: 36 -70 74 -96 0.626775 0.7792<3.55823 150.71 209.117 615.918 672.2 819.292>
LayerCount: 2
Fore
SplineSet
36 -70 m 1
 131 47 l 1
 131 49 l 1
 123 59 86 100 86 178 c 0
 86 335 224 484 365 484 c 0
 403 484 432 474 461 456 c 1
 550 568 l 1
 551 568 l 1
 588 543 l 1
 494 425 l 1
 502 415 538 373 538 294 c 0
 538 136 401 -8 260 -8 c 0
 217 -8 195 3 166 18 c 1
 74 -96 l 1
 73 -96 l 1
 36 -70 l 1
146 174 m 0
 146 125 163 100 167 93 c 1
 426 414 l 1
 395 432 368 434 354 434 c 0
 218 434 146 285 146 174 c 0
201 60 m 1
 232 43 257 42 271 42 c 0
 322 42 444 72 474 251 c 0
 477 267 478 284 478 300 c 0
 478 349 462 374 458 381 c 1
 201 60 l 1
EndSplineSet
EndChar

StartChar: uacute
Encoding: 250 250 261
Width: 517
Flags: HW
TeX: 666 0
ItalicCorrection: 48
HStem: -8 47<172.104 292.589> 0 21<372 439.237> 452 20<175.731 245 466.764 535> 647 20G<440.5 501>
VStem: 100 65<49.4541 197.609>
DStem2: 77.6672 -8 142.242 -8 0.207912 0.978148<110.513 490.787> 370.3 -8 433.3 -8 0.207912 0.978148<21.2772 96.0418 103.265 490.448>
AnchorPoint: "below" 257 0 basechar 0
AnchorPoint: "above" 397 659 basechar 0
LayerCount: 2
Fore
SplineSet
259 538 m 1
 437 667 430 667 451 667 c 2x38
 501 667 l 1
 310 538 l 1
 259 538 l 1
EndSplineSet
Refer: 128 117 S 1 0 0 1 0 -0 3
AlternateSubs2: "Stilistic set 01 subtable" uacute.vn
AlternateSubs2: "Latin alternatives subtable" uacute.vn
Substitution2: "Latin Vietnamese substitutions subtable" uacute.vn
EndChar

StartChar: yacute
Encoding: 253 253 264
Width: 458
Flags: HW
TeX: 666 166
ItalicCorrection: 114
HStem: -175 51<0.818497 136.736> 452 20<116 199 412.5 545> 647 20G<470.5 531>
VStem: 116 65<436.011 472>
AnchorPoint: "below" 195 -167 basechar 0
AnchorPoint: "above" 372 659 basechar 0
LayerCount: 2
Fore
SplineSet
290 538 m 1
 468 667 460 667 481 667 c 2
 531 667 l 1
 340 538 l 1
 290 538 l 1
EndSplineSet
Refer: 132 121 S 1 0 0 1 0 0 3
AlternateSubs2: "Stilistic set 01 subtable" yacute.vn
AlternateSubs2: "Latin alternatives subtable" yacute.vn
Substitution2: "Latin Vietnamese substitutions subtable" yacute.vn
EndChar

StartChar: thorn
Encoding: 254 254 265
Width: 517
Flags: HW
TeX: 694 166
ItalicCorrection: 32
HStem: -167 21G<45 114.206> -8 50<201.108 329.31> 428 52<307.035 407.955> 675 20G<228 291>
VStem: 461 67<191.215 372.97>
DStem2: 45 -167 110 -167 0.207912 0.978148<13.5143 251.61 304.147 589.214 596.986 881.211>
LayerCount: 2
Fore
SplineSet
45 -167 m 1
 228 694 l 1
 228 695 l 1
 291 695 l 1
 230 404 l 1
 305 476 374 480 398 480 c 0
 490 480 528 390 528 307 c 0
 528 138 397 -8 272 -8 c 0
 196 -8 169 47 159 66 c 1
 110 -167 l 1
 45 -167 l 1
170 115 m 0
 170 102 187 42 252 42 c 0
 355 42 461 158 461 287 c 0
 461 369 414 428 344 428 c 0
 335 428 292 427 247 388 c 1
 220 362 222 362 218 342 c 0
 173 130 170 121 170 115 c 0
EndSplineSet
EndChar

StartChar: germandbls
Encoding: 223 223 266
Width: 492
Flags: HW
TeX: 694 0
ItalicCorrection: 89
HStem: -8 50<192.503 355.846> 0 21G<80 147.25> 422 50<302 369.911> 652 51<308.789 471.1>
VStem: 444 64<144.916 345.757> 491 65<535.325 631.6>
DStem2: 78.2995 -8 141.3 -8 0.207912 0.978148<21.2772 662.394>
LayerCount: 2
Fore
SplineSet
80 0 m 1
 199 560 l 2
 203 578 209 628 281 670 c 0
 319 692 362 703 405 703 c 2
 406 703 l 2
 489 703 556 659 556 594 c 0x74
 556 533 499 475 412 442 c 1
 505 381 508 284 508 252 c 0x78
 508 96 386 -8 271 -8 c 0
 242 -8 211 -4 174 7 c 1
 201 55 l 1
 232 47 249 42 281 42 c 0
 379 42 444 138 444 253 c 0xb8
 444 350 389 420 291 422 c 1
 302 472 l 1
 427 473 491 534 491 588 c 0
 491 613 475 648 409 652 c 1
 389 652 l 1
 268 649 262 561 262 560 c 2
 143 0 l 1
 80 0 l 1
EndSplineSet
EndChar

StartChar: grave.uc
Encoding: 65542 -1 267
Width: 525
Flags: HW
TeX: 628 0
HStem: 538 90
VStem: 210 245
LayerCount: 2
Fore
SplineSet
210 628 m 1
 290 628 l 2
 306 628 307 626 455 538 c 1
 394 538 l 2
 379 538 370 544 360 549 c 0
 239 612 224 619 210 628 c 1
EndSplineSet
EndChar

StartChar: acute.uc
Encoding: 65543 -1 268
Width: 525
Flags: HW
TeX: 628 0
ItalicCorrection: 75
HStem: 538 90
VStem: 297 285
LayerCount: 2
Fore
SplineSet
297 538 m 1
 484 626 484 628 502 628 c 0
 520 628 538 628 556 628 c 0
 565 628 573 629 582 628 c 1
 360 534 377 539 357 538 c 1
 297 538 l 1
EndSplineSet
EndChar

StartChar: tilde.uc
Encoding: 65544 -1 269
Width: 525
Flags: HW
TeX: 661 0
ItalicCorrection: 83
HStem: 505 51<413.532 493.495> 616 51<278.761 358.998>
VStem: 194 50<505 570.625> 528 51<600.786 667>
LayerCount: 2
Fore
SplineSet
194 505 m 1
 222 630 286 667 327 667 c 0
 395 667 390 556 454 556 c 0
 514 556 525 664 528 667 c 1
 579 667 l 1
 555 561 499 505 446 505 c 0
 376 505 384 616 318 616 c 0
 265 616 250 532 244 505 c 1
 194 505 l 1
EndSplineSet
EndChar

StartChar: hungarumlaut.uc
Encoding: 65545 -1 271
Width: 525
Flags: HW
TeX: 628 0
ItalicCorrection: 75
HStem: 538 90
VStem: 210 285
LayerCount: 2
Fore
SplineSet
385 538 m 1
 572 626 572 628 590 628 c 2
 643 628 l 2
 652 628 660 629 669 628 c 1
 448 534 466 539 444 538 c 1
 385 538 l 1
EndSplineSet
Refer: 268 -1 S 1 0 0 1 -87 0 2
EndChar

StartChar: ring.uc
Encoding: 65546 -1 272
Width: 692
Flags: HW
TeX: 661 0
HStem: 455 50<407.362 507.089> 622 50<423.37 522.741>
VStem: 346 58<509.469 604.649> 526 58<522.498 617.883>
LayerCount: 2
Fore
SplineSet
346 543 m 0
 346 608 412 672 488 672 c 0
 538 672 584 640 584 584 c 0
 584 520 519 455 442 455 c 0
 392 455 346 487 346 543 c 0
404 542 m 0
 404 512 427 505 453 505 c 0
 498 505 516 524 524 568 c 0
 525 573 526 579 526 585 c 0
 526 615 505 622 478 622 c 0
 449 622 416 618 406 559 c 0
 405 554 404 548 404 542 c 0
EndSplineSet
EndChar

StartChar: twelveudash
Encoding: 61700 61700 273
Width: 700
Flags: HW
TeX: 470 0
ItalicCorrection: 91
HStem: 267 50<66 756>
LayerCount: 2
Fore
SplineSet
56 267 m 1
 66 317 l 1
 766 317 l 1
 756 267 l 1
 56 267 l 1
EndSplineSet
EndChar

StartChar: threequartersemdash
Encoding: 63198 63198 274
Width: 787
Flags: HW
TeX: 470 0
ItalicCorrection: 91
HStem: 267 50<66 843>
LayerCount: 2
Fore
SplineSet
56 267 m 1
 66 317 l 1
 853 317 l 1
 843 267 l 1
 56 267 l 1
EndSplineSet
EndChar

StartChar: arrowleft
Encoding: 8592 8592 275
Width: 1050
Flags: HW
TeX: 385 -137
HStem: 244 40<231 1046.49>
VStem: 274 40<14 122.458>
LayerCount: 2
Fore
SplineSet
115 265 m 1
 240 306 337 407 380 514 c 1
 420 514 l 1
 390 434 329 353 231 284 c 1
 1020 284 l 2
 1035 284 1045 283 1047 268 c 1
 1047 260 1041 250 1033 247 c 0
 1024 243 1013 244 1004 244 c 2
 223 244 l 1
 261 204 314 147 314 14 c 1
 274 14 l 1
 274 129 222 207 145 249 c 2
 115 265 l 1
EndSplineSet
EndChar

StartChar: arrowright
Encoding: 8594 8594 276
Width: 1050
Flags: HW
TeX: 385 -137
HStem: 244 40<114.317 930>
VStem: 847 40<404.996 514>
LayerCount: 2
Fore
SplineSet
114 261 m 0
 114 269 120 278 128 281 c 0
 137 285 148 284 157 284 c 2
 938 284 l 1
 906 317 847 376 847 514 c 1
 887 514 l 1
 887 400 938 322 1016 279 c 1
 1046 264 l 1
 921 223 824 121 781 14 c 1
 741 14 l 1
 771 94 831 175 930 244 c 1
 141 244 l 2
 132 244 114 244 114 261 c 0
EndSplineSet
EndChar

StartChar: uni0361.alt
Encoding: 61701 61701 277
Width: 225
Flags: HW
TeX: 694 0
ItalicCorrection: 415
HStem: 617 53<297.816 561.539>
VStem: 201 65<571 592.387> 579 65<571 596.418>
LayerCount: 2
Fore
SplineSet
201 571 m 1
 222 641 346 670 443 670 c 0
 550 670 644 635 644 582 c 2
 644 571 l 1
 579 571 l 1
 579 577 581 589 554 599 c 0
 520 612 477 617 433 617 c 2
 431 617 l 2
 361 617 292 602 273 583 c 0
 269 579 268 575 266 571 c 1
 201 571 l 1
EndSplineSet
EndChar

StartChar: uni0361
Encoding: 865 865 278
Width: 0
Flags: HW
TeX: 916 0
ItalicCorrection: 465
HStem: 614 53<63.5373 281.876>
VStem: -95 65<505 541.128> 342 66<505 567.304>
AnchorPoint: "affricate-above" 151 484 mark 0
LayerCount: 2
Fore
SplineSet
-95 505 m 1
 -73 593 44 667 190 667 c 0
 314 667 408 608 408 528 c 0
 408 520 407 513 406 505 c 1
 341 505 l 1
 342 510 342 514 342 519 c 0
 342 574 270 614 179 614 c 0
 99 614 -8 581 -30 505 c 1
 -95 505 l 1
EndSplineSet
EndChar

StartChar: uni2040.alt
Encoding: 61702 61702 279
Width: 458
Flags: HW
TeX: 694 0
ItalicCorrection: 415
HStem: 617 53<268.646 442.125>
VStem: 179 65<571 594.49> 456 65<571 602.625>
LayerCount: 2
Fore
SplineSet
179 571 m 1
 197 638 291 670 369 670 c 2
 371 670 l 2
 453 670 521 636 521 584 c 0
 521 580 521 575 520 571 c 1
 456 571 l 1
 455 610 395 617 357 617 c 2
 356 617 l 1
 313 616 260 606 244 571 c 1
 179 571 l 1
EndSplineSet
EndChar

StartChar: uni2040
Encoding: 8256 8256 280
Width: 458
Flags: HW
TeX: 694 0
ItalicCorrection: 465
HStem: 614 53<256.949 451.719>
VStem: 107 65<505 544.913> 501 66<505 571.074>
LayerCount: 2
Fore
SplineSet
107 505 m 1
 129 594 240 667 371 667 c 0
 487 667 567 606 567 530 c 0
 567 522 566 513 565 505 c 1
 500 505 l 1
 501 510 501 514 501 518 c 0
 501 588 420 614 359 614 c 0
 282 614 193 578 172 505 c 1
 107 505 l 1
EndSplineSet
EndChar

StartChar: uni2422
Encoding: 9250 9250 281
Width: 517
Flags: HW
TeX: 694 0
ItalicCorrection: 23
HStem: -8 50<200.989 336.032> 0 21G<80 149.242> 430 50<305.076 416.409> 675 20G<227 291>
VStem: 463 64<189.544 383.789>
DStem2: 72 459 97 418 0.815236 0.579129<0 100.1 243.889 445.586> 78.2995 -8 143.3 -8 0.207912 0.978148<21.693 89.1615 163.237 424.992 435.307 495.962 634.778 717.576>
LayerCount: 2
Fore
SplineSet
72 459 m 1
 197 547 l 1
 227 694 l 1
 228 695 l 1
 291 695 l 1
 271 600 l 1
 437 719 l 1
 463 678 l 1
 256 531 l 1
 229 405 l 1
 263 438 321 480 397 480 c 0
 476 480 527 408 527 306 c 0
 527 142 399 -8 272 -8 c 0xb8
 216 -8 181 21 159 66 c 1
 145 0 l 1
 80 0 l 1x78
 182 477 l 1
 97 418 l 1
 72 459 l 1
170 116 m 0xb8
 170 106 183 42 253 42 c 0
 314 42 411 79 448 209 c 0
 457 240 463 273 463 305 c 0
 463 405 393 430 347 430 c 0
 293 430 254 400 222 362 c 1
 173 129 170 121 170 116 c 0xb8
EndSplineSet
EndChar

StartChar: quotesingle
Encoding: 39 39 282
Width: 292
Flags: HW
TeX: 694 0
ItalicCorrection: 62
HStem: 386 309
VStem: 202 123
LayerCount: 2
Fore
SplineSet
202 386 m 1
 260 695 l 1
 325 695 l 1
 252 386 l 1
 202 386 l 1
EndSplineSet
EndChar

StartChar: asteriskmath
Encoding: 8727 8727 283
Width: 525
Flags: HW
TeX: 479 -48
HStem: 459 20G<357.5 368>
VStem: 336 48<377.324 478.433>
LayerCount: 2
Fore
SplineSet
114 165 m 0
 114 190 123 188 292 264 c 1
 153 340 161 333 154 347 c 1
 151 364 164 384 185 384 c 0
 196 384 197 380 309 287 c 1
 333 459 332 454 336 462 c 0
 341 471 352 479 363 479 c 0
 373 479 384 471 384 460 c 0
 384 449 375 422 336 287 c 1
 470 369 489 384 501 384 c 0
 518 384 522 369 522 363 c 0
 522 339 513 340 343 264 c 1
 479 189 482 191 482 175 c 0
 482 162 469 144 449 144 c 0
 438 144 431 152 326 240 c 1
 304 74 304 71 298 63 c 0
 292 55 282 49 272 49 c 0
 262 49 252 56 252 67 c 0
 252 82 265 121 299 240 c 1
 143 144 146 145 134 144 c 1
 121 144 114 154 114 165 c 0
EndSplineSet
EndChar

StartChar: fraction
Encoding: 8260 8260 285
Width: 525
Flags: HW
TeX: 750 222
ItalicCorrection: 130
DStem2: 23 -184 55 -209 0.519002 0.854773<-19.5927 1091.26>
LayerCount: 2
Fore
SplineSet
16 -203 m 0
 16 -196 19 -190 23 -184 c 2
 581 735 l 2
 585 741 591 749 602 749 c 0
 612 749 621 740 621 730 c 0
 621 721 614 711 611 707 c 2
 55 -209 l 2
 50 -216 44 -221 35 -221 c 0
 25 -221 16 -212 16 -203 c 0
EndSplineSet
EndChar

StartChar: zerooldstyle
Encoding: 63280 63280 286
Width: 525
Flags: HW
TeX: 470 0
ItalicCorrection: 46
HStem: -17 51<189.376 356.805> 439 50<265.844 436.786>
VStem: 90 63<71.072 275.352> 472 60<206.495 404.153>
LayerCount: 2
Fore
SplineSet
90 144 m 0
 90 213 123 489 366 489 c 0
 447 489 532 457 532 328 c 0
 532 261 505 86 390 18 c 0
 356 -3 310 -17 257 -17 c 0
 175 -17 90 15 90 144 c 0
153 144 m 0
 153 87 177 34 269 34 c 0
 421 34 449 174 469 301 c 1
 470 314 472 321 472 334 c 0
 472 397 442 439 355 439 c 0
 196 439 180 301 161 210 c 0
 157 190 153 167 153 144 c 0
EndSplineSet
EndChar

StartChar: oneoldstyle
Encoding: 63281 63281 287
Width: 525
Flags: HW
TeX: 470 0
HStem: 0 50<121 253 318 439> 380 50<196 325.127> 458 20G<368 409>
DStem2: 242.372 0 307.372 0 0.207912 0.978148<64.6313 408.854>
LayerCount: 2
Fore
SplineSet
111 0 m 1
 121 50 l 1
 253 50 l 1
 327 400 l 1
 287 387 250 380 186 380 c 1
 196 430 l 1
 291 430 344 448 392 478 c 1
 409 478 l 1
 318 50 l 1
 449 50 l 1
 439 0 l 1
 111 0 l 1
EndSplineSet
EndChar

StartChar: twooldstyle
Encoding: 63282 63282 288
Width: 525
Flags: HW
TeX: 470 0
ItalicCorrection: 56
HStem: 0 56<117 471> 436 53<241.432 433.243>
VStem: 477 68<284.495 397.471>
DStem2: 70 60 117 56 0.886318 0.463076<39.8047 392.168>
LayerCount: 2
Fore
SplineSet
46 0 m 1
 57 50 54 50 70 60 c 1
 194 127 212 138 248 155 c 0
 325 192 477 240 477 348 c 0
 477 418 390 436 328 436 c 0
 279 436 208 422 157 330 c 1
 121 370 l 1
 174 441 246 489 352 489 c 0
 433 489 545 460 545 359 c 0
 545 232 400 199 295 149 c 1
 117 56 l 1
 483 56 l 1
 471 0 l 1
 46 0 l 1
EndSplineSet
EndChar

StartChar: threeoldstyle
Encoding: 63283 63283 289
Width: 525
Flags: HW
TeX: 470 166
ItalicCorrection: 56
HStem: -184 52<137.485 321.161> 153 51<217 353.887> 438 51<268.221 435.592>
VStem: 416 69<-36.4908 111.417> 460 67<300.077 413.51>
LayerCount: 2
Fore
SplineSet
27 -75 m 1
 47 -24 l 1
 70 -61 86 -79 114 -97 c 0
 144 -117 187 -132 236 -132 c 0
 346 -132 416 -41 416 44 c 0xf0
 416 109 371 149 308 153 c 1
 207 153 l 1
 217 204 l 1
 309 211 315 210 345 222 c 0
 410 248 460 310 460 365 c 0
 460 395 442 438 360 438 c 0
 287 438 220 399 177 350 c 2
 159 330 l 1
 137 374 l 1
 200 443 277 489 370 489 c 2xe8
 372 489 l 1
 474 488 527 428 527 370 c 0xe8
 527 334 504 247 392 190 c 1
 368 179 l 1
 450 158 485 96 485 41 c 0
 485 -67 366 -184 226 -184 c 0
 185 -184 89 -176 27 -75 c 1
EndSplineSet
EndChar

StartChar: fouroldstyle
Encoding: 63284 63284 290
Width: 525
Flags: HW
TeX: 470 166
HStem: -0 53<106 318 393 495> 460 20G<389.787 484>
DStem2: 55 71 106 53 0.652316 0.757947<19.6251 498.36> 279 -184 342 -184 0.207912 0.978148<13.0984 188.088 255.523 622.158>
LayerCount: 2
Fore
SplineSet
29 -0 m 1
 42 62 38 52 55 71 c 2
 407 480 l 1
 484 480 l 1
 393 53 l 1
 507 53 l 1
 495 -0 l 1
 381 -0 l 1
 342 -184 l 1
 279 -184 l 1
 318 -0 l 1
 29 -0 l 1
106 53 m 1
 332 53 l 1
 411 424 l 1
 396 397 375 371 315 300 c 2
 106 53 l 1
EndSplineSet
EndChar

StartChar: fiveoldstyle
Encoding: 63285 63285 291
Width: 525
Flags: HW
TeX: 470 166
ItalicCorrection: 42
HStem: -184 52<136.112 309.227> 195 50<239.99 382.583> 419 53<242 526>
VStem: 416 67<-11.9768 161.453>
DStem2: 52.1703 -184 113.229 -184 0.207912 0.978148<323.457 364.499 401.184 629.291>
LayerCount: 2
Fore
SplineSet
33 -87 m 1
 73 -41 l 1
 109 -119 183 -132 220 -132 c 0
 357 -132 416 -8 416 91 c 0
 416 157 379 195 318 195 c 0
 295 195 228 190 173 121 c 1
 117 121 l 1
 191 472 l 1
 537 472 l 1
 526 419 l 1
 242 419 l 1
 194 196 l 1
 234 224 276 245 330 245 c 0
 422 245 483 175 483 80 c 0
 483 -64 348 -184 208 -184 c 0
 124 -184 64 -141 33 -87 c 1
EndSplineSet
EndChar

StartChar: sevenoldstyle
Encoding: 63287 63287 293
Width: 525
Flags: HW
TeX: 470 166
ItalicCorrection: 100
HStem: -175 21G<133 212.5> 416 56<144 525>
VStem: 133 67<-175 -103.863>
LayerCount: 2
Fore
SplineSet
132 416 m 1
 144 472 l 1
 581 472 l 1
 569 414 574 424 546 399 c 0
 493 351 456 316 399 242 c 0
 268 74 225 -71 200 -175 c 1
 133 -175 l 1
 191 84 344 278 525 416 c 1
 132 416 l 1
EndSplineSet
EndChar

StartChar: nineoldstyle
Encoding: 63289 63289 295
Width: 525
Flags: HW
TeX: 470 166
ItalicCorrection: 42
HStem: -184 52<103.202 269> 31 50<200.493 318.47> 439 50<274.676 422.788>
VStem: 100 64<116.805 301.061> 460 60<230.789 398.728>
LayerCount: 2
Fore
SplineSet
46 -139 m 1
 81 -94 l 1
 99 -107 123 -132 187 -132 c 0
 336 -132 417 37 435 148 c 1
 392 83 308 31 224 31 c 0
 121 31 100 145 100 189 c 0
 100 217 108 280 133 331 c 0
 155 376 239 489 370 489 c 0
 430 489 520 457 520 294 c 0
 520 239 506 150 485 90 c 0
 428 -71 300 -184 176 -184 c 0
 114 -184 77 -165 46 -139 c 1
164 186 m 0
 164 148 181 81 271 81 c 0
 374 81 447 177 454 260 c 1
 456 260 l 1
 458 278 460 297 460 315 c 0
 460 341 458 439 358 439 c 0
 315 439 284 427 256 406 c 0
 204 366 189 323 175 259 c 0
 166 216 164 201 164 186 c 0
EndSplineSet
EndChar

StartChar: angleleft
Encoding: 9001 9001 296
Width: 408
Flags: HW
TeX: 750 222
VStem: 173 330
DStem2: 212 260 173 251 0.19906 -0.979987<0 478.535> 181 286 212 260 0.532364 0.846515<-5.50611 547.925>
LayerCount: 2
Fore
SplineSet
172 263 m 0
 172 272 177 280 181 286 c 2
 464 736 l 2
 473 749 479 749 486 749 c 1
 502 744 503 735 503 731 c 0
 503 726 504 725 493 707 c 2
 212 260 l 1
 303 -188 l 2
 306 -203 304 -206 303 -210 c 0
 302 -212 296 -221 286 -221 c 0
 268 -221 265 -201 263 -192 c 2
 173 251 l 2
 172 255 172 259 172 263 c 0
EndSplineSet
EndChar

StartChar: minus
Encoding: 8722 8722 297
Width: 642
Flags: HW
TeX: 523 -1
ItalicCorrection: 26
HStem: 239 51<115.307 637.535>
LayerCount: 2
Fore
SplineSet
115 264 m 0
 115 291 142 290 156 290 c 2
 607 290 l 1
 634 289 638 272 638 263 c 0
 638 257 636 239 606 239 c 2
 147 239 l 2
 118 239 115 256 115 264 c 0
EndSplineSet
EndChar

StartChar: angleright
Encoding: 9002 9002 298
Width: 408
Flags: HW
TeX: 750 222
VStem: 16 329
DStem2: 255 720 215 716 0.19906 -0.979987<-26.2089 453.106> 306 268 55 -208 0.532364 0.846515<-552.899 0>
LayerCount: 2
Fore
SplineSet
16 -203 m 0
 16 -198 15 -197 26 -179 c 2
 306 268 l 1
 215 716 l 2
 212 731 215 735 216 739 c 1
 221 744 226 749 233 749 c 0
 252 749 253 729 255 720 c 2
 345 277 l 2
 346 273 347 269 347 265 c 0
 347 256 343 250 338 242 c 2
 55 -208 l 2
 47 -220 41 -220 33 -221 c 1
 17 -216 16 -207 16 -203 c 0
EndSplineSet
EndChar

StartChar: uni2127
Encoding: 8487 8487 299
Width: 758
Flags: HW
TeX: 694 0
ItalicCorrection: 127
HStem: -17 51<272.736 504.672> 639 56<194 373 656 847>
VStem: 103 71<119.878 280.729> 605 51<536.007 638.767> 684 70<189.541 392.659>
LayerCount: 2
Fore
SplineSet
103 192 m 0
 103 355 305 487 373 639 c 1
 183 639 l 1
 194 695 l 1
 442 695 l 1
 400 511 174 363 174 196 c 0
 174 98 258 34 385 34 c 0
 543 34 684 131 684 289 c 0
 684 412 605 512 605 638 c 0
 605 654 609 693 611 695 c 1
 858 695 l 1
 847 639 l 1
 656 639 l 1
 659 510 754 411 754 285 c 0
 754 106 561 -17 375 -17 c 0
 223 -17 103 67 103 192 c 0
EndSplineSet
EndChar

StartChar: circle
Encoding: 9675 9675 300
Width: 1091
Flags: HW
TeX: 750 222
HStem: -239 40<375.117 627.472> 727 40<574.35 824.09>
VStem: 103 40<36.948 293.035> 1059 40<234.804 493.383>
LayerCount: 2
Fore
SplineSet
103 160 m 0
 103 476 398 767 704 767 c 0
 927 767 1099 607 1099 367 c 0
 1099 53 805 -239 498 -239 c 0
 261 -239 103 -65 103 160 c 0
143 160 m 0
 143 -44 284 -199 497 -199 c 0
 782 -199 1059 75 1059 368 c 0
 1059 572 917 727 705 727 c 0
 418 727 143 453 143 160 c 0
EndSplineSet
EndChar

StartChar: uni301A
Encoding: 12314 12314 302
Width: 423
Flags: HW
TeX: 750 222
HStem: -222 40<126 217 257 351> 710 40<315 407 447 549>
DStem2: 77 -222 117.498 -222 0.207912 0.978148<49.3136 961.117> 208.498 -222 248.498 -222 0.207912 0.978148<49.2101 952.905>
LayerCount: 2
Fore
SplineSet
77 -222 m 1
 283 750 l 1
 558 750 l 1
 549 710 l 1
 447 710 l 1
 257 -182 l 1
 360 -182 l 1
 351 -222 l 1
 77 -222 l 1
126 -182 m 1
 217 -182 l 1
 407 710 l 1
 315 710 l 1
 126 -182 l 1
EndSplineSet
EndChar

StartChar: uni301B
Encoding: 12315 12315 303
Width: 423
Flags: HW
TeX: 750 222
HStem: -222 40<-14 88 128 219> 710 40<184 277 317 409>
DStem2: 79.4977 -222 119.498 -222 0.207912 0.978148<49.2101 952.697> 210.498 -222 251 -222 0.207912 0.978148<40.8936 952.905>
LayerCount: 2
Fore
SplineSet
-23 -222 m 1
 -14 -182 l 1
 88 -182 l 1
 277 710 l 1
 175 710 l 1
 184 750 l 1
 457 750 l 1
 251 -222 l 1
 -23 -222 l 1
128 -182 m 1
 219 -182 l 1
 409 710 l 1
 317 710 l 1
 128 -182 l 1
EndSplineSet
EndChar

StartChar: arrowup
Encoding: 8593 8593 304
Width: 525
Flags: HW
TeX: 694 166
ItalicCorrection: 53
HStem: -166 21G<220.5 238> 425 40<127 181.776 542.438 586.575> 674 20G<385 410.5>
DStem2: 206.073 -166 246.773 -166 0.207912 0.978148<19.09 748.423>
LayerCount: 2
Fore
SplineSet
119 425 m 1
 127 465 l 1
 262 494 361 588 409 694 c 1
 412 659 414 640 426 608 c 0
 467 499 563 473 594 465 c 1
 585 425 l 1
 462 452 417 538 402 566 c 1
 254 -132 l 2
 253 -137 249 -166 227 -166 c 0
 214 -166 211 -157 211 -148 c 0
 211 -138 214 -128 215 -124 c 2
 362 566 l 1
 300 501 224 447 119 425 c 1
EndSplineSet
EndChar

StartChar: arrowdown
Encoding: 8595 8595 305
Width: 525
Flags: HW
TeX: 694 166
HStem: -166 21G<225.5 236.4> 63 40<48.6 93.8193 455.871 508> 674 20G<397 414.5>
DStem2: 206.005 -166 246.005 -166 0.207912 0.978148<138.154 868.557>
LayerCount: 2
Fore
SplineSet
42 63 m 1
 50 103 l 1
 173 75 217 -9 233 -39 c 1
 382 661 l 2
 383 664 386 694 408 694 c 0
 421 694 424 685 424 676 c 0
 424 668 421 660 421 658 c 2
 273 -39 l 1
 305 -4 386 75 517 103 c 1
 508 63 l 1
 362 31 271 -78 257 -116 c 1
 253 -116 l 1
 239 -141 l 1
 226 -166 l 1
 225 -149 224 -133 221 -116 c 1
 217 -116 l 1
 219 -108 l 1
 200 -50 166 32 42 63 c 1
EndSplineSet
EndChar

StartChar: uni22C6
Encoding: 8902 8902 307
Width: 525
Flags: HW
TeX: 500 -27
LayerCount: 2
Fore
SplineSet
65 326 m 1
 294 278 l 1
 372 519 l 1
 349 278 l 1
 567 320 l 1
 598 325 l 1
 355 225 l 1
 429 13 l 1
 303 192 l 1
 99 12 l 1
 264 225 l 1
 65 326 l 1
EndSplineSet
EndChar

StartChar: uni26AE
Encoding: 9902 9902 308
Width: 525
Flags: HW
TeX: 500 -27
HStem: 28 58<-62.6185 65.3412 504.322 633.346> 442 58<8.26236 133.232 570.801 702.281>
VStem: -154 57<119.77 311.131> 166 61<215.402 407.935> 411 61<119.653 309.11> 735 57<216.29 408.121>
DStem2: 205 -122 269 -122 0.207912 0.978148<13.3063 789.227>
LayerCount: 2
Fore
SplineSet
-154 200 m 0
 -154 354 -32 500 85 500 c 0
 170 500 227 428 227 325 c 0
 227 175 107 28 -14 28 c 0
 -98 28 -154 100 -154 200 c 0
-97 198 m 0
 -97 106 -40 86 -2 86 c 0
 118 86 166 244 166 332 c 0
 166 422 110 442 73 442 c 0
 -38 442 -97 301 -97 198 c 0
205 -122 m 1
 369 650 l 1
 433 650 l 1
 269 -122 l 1
 205 -122 l 1
411 200 m 0
 411 358 535 500 652 500 c 0
 736 500 792 426 792 328 c 0
 792 170 668 28 552 28 c 0
 467 28 411 102 411 200 c 0
472 195 m 0
 472 105 528 86 565 86 c 0
 684 86 735 239 735 331 c 0
 735 423 678 442 640 442 c 0
 520 442 472 282 472 195 c 0
EndSplineSet
EndChar

StartChar: uni271D
Encoding: 10013 10013 309
Width: 525
Flags: HW
TeX: 611 22
HStem: 361 58<147 307 383 543>
DStem2: 225 -22 290 -22 0.207912 0.978148<13.5143 393.636 462.257 653.312>
LayerCount: 2
Fore
SplineSet
135 361 m 1
 147 419 l 1
 319 417 l 1
 361 617 l 1
 425 617 l 1
 383 417 l 1
 505 418 l 1
 555 419 l 1
 543 361 l 1
 372 363 l 1
 290 -22 l 1
 225 -22 l 1
 307 363 l 1
 185 362 l 1
 135 361 l 1
EndSplineSet
EndChar

StartChar: leaf
Encoding: 61704 61704 310
Width: 1050
Flags: HW
TeX: 694 0
HStem: -58 24<123.535 388.35> 162 24<345 812> 370 24<704 1022> 728 24<807.369 1074.56>
DStem2: 21 25 29 2 0.864842 0.502045<0 312.665 361.038 727.932 775.941 1323.94> 238.223 -58 263.586 -58 0.207912 0.978148<266.992 581.677> 553.011 -58 578.374 -58 0.207912 0.978148<479.639 770.017>
LayerCount: 2
Fore
SplineSet
-10 2 m 0
 -10 14 52 259 274 469 c 0
 435 622 676 752 944 752 c 0
 1034 752 1119 736 1188 711 c 0
 1196 708 1209 705 1209 693 c 0
 1209 680 1132 364 814 133 c 0
 653 16 455 -58 255 -58 c 0
 157 -58 78 -41 9 -16 c 0
 1 -13 -10 -10 -10 2 c 0
21 25 m 1
 277 174 l 2
 287 180 289 181 292 195 c 2
 359 511 l 1
 324 482 l 1
 172 350 65 176 21 25 c 1
29 2 m 1
 84 -14 147 -34 255 -34 c 0
 482 -34 697 70 812 162 c 1
 303 162 l 1
 29 2 l 1
318 198 m 1
 636 382 l 2
 648 390 648 391 651 403 c 2
 714 695 l 1
 713 695 l 1
 620 666 522 632 389 535 c 1
 318 198 l 1
345 186 m 1
 844 186 l 1
 942 268 996 334 1022 370 c 1
 679 370 l 1
 663 369 l 1
 647 361 l 1
 345 186 l 1
677 406 m 1
 1170 692 l 1
 1112 709 1051 728 943 728 c 0
 862 728 800 716 740 703 c 1
 739 702 l 1
 677 406 l 1
704 394 m 1
 1040 394 l 1
 1100 478 1148 570 1178 669 c 1
 704 394 l 1
EndSplineSet
EndChar

StartChar: uni26AD
Encoding: 9901 9901 311
Width: 525
Flags: HW
TeX: 500 -27
HStem: 28 58<69.0984 232.518 336.446 495.909> 442 58<140.286 301.017 408.92 569.186>
VStem: -36 57<133.921 311.291> 229 62<162.778 314.812> 348 61<215.099 364.403> 617 57<214.062 394.287>
LayerCount: 2
Fore
SplineSet
-36 211 m 0
 -36 357 95 500 236 500 c 0
 310 500 351 459 359 450 c 1
 392 472 442 500 503 500 c 0
 606 500 674 421 674 317 c 0
 674 167 540 28 402 28 c 0
 351 28 309 47 280 77 c 1
 279 77 l 1
 233 42 178 28 135 28 c 0
 33 28 -36 105 -36 211 c 0
21 210 m 0
 21 110 94 86 148 86 c 0
 192 86 223 99 251 116 c 1
 240 142 229 168 229 211 c 0
 229 237 231 320 313 410 c 1
 313 411 l 1
 303 420 277 442 223 442 c 0
 91 442 21 317 21 210 c 0
291 209 m 0
 291 190 294 176 297 162 c 1
 334 211 348 279 348 318 c 0
 348 332 346 346 341 365 c 1
 340 365 l 1
 304 314 291 254 291 209 c 0
325 116 m 1
 336 108 362 85 416 85 c 0
 552 85 617 215 617 317 c 0
 617 399 567 442 491 442 c 0
 450 442 419 430 388 411 c 1
 399 385 409 360 409 317 c 0
 409 214 349 144 325 116 c 1
EndSplineSet
EndChar

StartChar: musicalnote
Encoding: 9834 9834 312
Width: 642
Flags: HW
TeX: 694 0
HStem: -28 290<185.318 319.926> 674 20G<521.5 532.5>
VStem: 507 40<638.804 693.954> 575 46<126.479 349.825>
DStem2: 358.986 -28 399.179 -28 0.207912 0.978148<245.362 554.352>
LayerCount: 2
Fore
SplineSet
82 100 m 0
 82 194 178 262 282 262 c 0
 362 262 396 225 410 212 c 1
 507 672 l 2
 510 683 515 694 528 694 c 0
 537 694 548 687 547 670 c 1
 541 632 541 619 541 606 c 0
 541 471 621 356 621 214 c 0
 621 143 611 126 595 126 c 0
 589 126 575 130 575 146 c 0
 575 158 581 177 581 213 c 0
 581 310 540 395 513 506 c 1
 430 117 l 1
 408 27 313 -28 229 -28 c 0
 147 -28 82 23 82 100 c 0
EndSplineSet
EndChar

StartChar: tildelow
Encoding: 61705 61705 313
Width: 642
Flags: HW
TeX: 134 0
HStem: 0 51<370.422 492.47> 84 51<177.386 299.578>
VStem: 87 50<0 43.8538> 532 50<91.1462 135>
LayerCount: 2
Fore
SplineSet
87 0 m 1
 107 85 181 135 244 135 c 0
 324 135 360 51 435 51 c 0
 474 51 517 80 532 135 c 1
 582 135 l 1
 576 113 568 82 533 48 c 0
 505 20 466 0 426 0 c 0
 346 0 310 84 235 84 c 0
 196 84 152 55 137 0 c 1
 87 0 l 1
EndSplineSet
EndChar

StartChar: breve.ts1
Encoding: 61707 61707 315
Width: 642
Flags: HW
TeX: 694 0
ItalicCorrection: 85
HStem: 535 55<332.978 554.613> 675 20G<238 289 607.714 697>
VStem: 238 49<629.44 695> 646 51<656.622 695>
LayerCount: 2
Fore
SplineSet
235 670 m 1
 238 694 l 1
 238 695 l 1
 289 695 l 1
 288 688 287 681 287 676 c 0
 287 608 381 590 445 590 c 0
 630 590 646 695 646 695 c 1
 697 695 l 1
 665 568 516 535 434 535 c 0
 339 535 232 575 235 670 c 1
EndSplineSet
EndChar

StartChar: caron.ts1
Encoding: 61708 61708 316
Width: 642
Flags: HW
TeX: 694 0
ItalicCorrection: 96
HStem: 508 203
DStem2: 339 711 289 711 0.489649 -0.871919<0 189.619> 436 548 454 508 0.701824 0.712351<0 234.02>
LayerCount: 2
Fore
SplineSet
289 711 m 1
 339 711 l 1
 436 548 l 1
 604 711 l 1
 654 711 l 1
 454 508 l 1
 403 508 l 1
 289 711 l 1
EndSplineSet
EndChar

StartChar: dblgrave.ts1
Encoding: 61710 61710 318
Width: 525
Flags: HW
TeX: 694 0
HStem: 546 149<295 300 470 475>
VStem: 235 285
LayerCount: 2
Fore
SplineSet
235 695 m 1
 300 695 l 1
 345 546 l 1
 295 546 l 1
 235 695 l 1
410 695 m 1
 475 695 l 1
 520 546 l 1
 470 546 l 1
 410 695 l 1
EndSplineSet
EndChar

StartChar: dagger
Encoding: 8224 8224 319
Width: 467
Flags: HW
TeX: 694 166
HStem: 440 64<161.626 316.795 349.16 503.623> 682 20G<353.5 386.5>
VStem: 324 83<597.543 674.116>
DStem2: 161 -184 226 -184 0.207912 0.978148<13.5143 655.184>
LayerCount: 2
Fore
SplineSet
158 466 m 0
 158 485 171 504 202 504 c 0
 238 504 275 488 324 484 c 1
 340 609 325 702 382 702 c 0
 391 702 407 698 407 677 c 0
 407 646 362 542 347 484 c 1
 393 488 444 504 476 504 c 0
 498 504 508 495 508 479 c 0
 508 467 500 440 465 440 c 0
 433 440 379 457 342 460 c 1
 324 323 344 370 312 220 c 2
 226 -184 l 1
 161 -184 l 1
 261 286 l 1
 276 345 298 382 319 460 c 1
 272 456 222 440 190 440 c 0
 168 440 158 450 158 466 c 0
EndSplineSet
EndChar

StartChar: daggerdbl
Encoding: 8225 8225 320
Width: 467
Flags: HW
TeX: 694 166
HStem: -175 21G<190.5 225.5> 12 64<70.8146 225.802 259.028 412.251> 451 65<164.238 318.155 351.198 505.428> 682 20G<351.5 386.5>
VStem: 169 82<-152.122 -74.125> 233 81<162.174 241.967> 263 81<283.929 365.126> 326 81<600.625 679.656>
LayerCount: 2
Fore
SplineSet
67 38 m 0
 67 44 69 76 112 76 c 0
 136 76 197 60 233 56 c 1
 247 179 232 263 288 263 c 0
 303 263 314 253 314 238 c 0xf4
 314 208 270 109 256 56 c 1
 321 65 360 76 386 76 c 0
 402 76 417 71 417 51 c 0
 417 44 413 17 377 12 c 1
 331 15 295 28 251 33 c 1xf8
 234 -68 256 -175 195 -175 c 0
 186 -175 169 -170 169 -149 c 0xf8
 169 -117 207 -42 228 33 c 1
 181 28 141 15 92 12 c 1
 84 14 67 17 67 38 c 0
160 477 m 0
 160 486 164 511 200 516 c 1
 246 513 282 500 326 495 c 1
 342 598 321 702 382 702 c 0
 391 702 407 698 407 677 c 0xf1
 407 645 368 566 349 495 c 1
 396 500 436 513 485 516 c 1
 493 514 510 511 510 490 c 0
 510 481 504 451 465 451 c 0
 435 451 393 466 344 472 c 1
 330 352 346 264 289 264 c 0xf2
 280 264 263 270 263 290 c 0xf2
 263 320 307 417 321 472 c 1
 260 464 219 451 192 451 c 0
 176 451 160 456 160 477 c 0
EndSplineSet
EndChar

StartChar: uni2016
Encoding: 8214 8214 321
Width: 525
Flags: HW
TeX: 750 222
DStem2: 137.198 -221 178.411 -221 0.207912 0.978148<21.93 978.26> 250.198 -221 291.411 -221 0.207912 0.978148<21.93 978.468>
LayerCount: 2
Fore
SplineSet
143 -200 m 0
 143 -196 143 -193 144 -189 c 2
 337 715 l 2
 339 724 341 749 360 749 c 0
 371 749 379 740 379 728 c 0
 379 722 378 716 377 711 c 2
 185 -190 l 2
 184 -197 181 -221 162 -221 c 0
 152 -221 143 -213 143 -200 c 0
256 -200 m 0
 256 -196 256 -193 257 -189 c 2
 450 715 l 2
 452 724 454 749 473 749 c 0
 484 749 493 740 493 728 c 0
 493 722 491 716 490 711 c 2
 298 -190 l 2
 297 -197 294 -221 275 -221 c 0
 266 -221 256 -212 256 -200 c 0
EndSplineSet
EndChar

StartChar: perthousand
Encoding: 8240 8240 322
Width: 1225
Flags: HW
TeX: 750 55
ItalicCorrection: 29
HStem: -55 50<626.086 717.577 976.086 1068.04> 297 50<680.888 773.086 1030.69 1123.12> 347 51<243.242 337.196> 699 51<297.876 392.337>
VStem: 168 58<415.829 594.182> 413 59<500.278 679.034> 549 59<11.985 190.564> 794 59<96.7868 275.99> 899 59<11.985 193.756> 1144 60<96.6044 277.117>
DStem2: 194 -7 216 -44 0.635161 0.77238<-31.3849 982.481>
LayerCount: 2
Fore
SplineSet
168 490 m 0
 168 623 267 750 363 750 c 0
 429 750 472 689 472 605 c 0
 472 479 376 347 278 347 c 0
 212 347 168 407 168 490 c 0
178 -35 m 0
 178 -24 190 -12 194 -7 c 2
 805 736 l 2
 811 743 818 749 826 749 c 0
 836 749 845 740 845 730 c 0
 845 723 844 719 824 695 c 2
 216 -44 l 2
 211 -50 205 -55 197 -55 c 0
 186 -55 178 -45 178 -35 c 0
226 480 m 0
 226 415 263 398 288 398 c 0
 353 398 413 509 413 600 c 0
 413 649 395 699 352 699 c 0
 251 699 226 522 226 480 c 0
549 89 m 0
 549 217 647 347 744 347 c 0
 809 347 853 288 853 205 c 0
 853 73 755 -55 659 -55 c 0
 593 -55 549 5 549 89 c 0
608 77 m 0
 608 12 645 -5 670 -5 c 0
 732 -5 794 102 794 200 c 0
 794 252 773 297 733 297 c 0
 632 297 608 116 608 77 c 0
EndSplineSet
Refer: 690 8320 S 1 0 0 1 788 0 2
EndChar

StartChar: bullet
Encoding: 8226 8226 323
Width: 525
Flags: HW
TeX: 470 -59
HStem: 60 408<264.406 372.594>
VStem: 110 417<212.165 315.58>
LayerCount: 2
Fore
SplineSet
110 226 m 0
 110 350 228 468 358 468 c 0
 454 468 527 400 527 302 c 0
 527 178 409 60 279 60 c 0
 184 60 110 126 110 226 c 0
EndSplineSet
EndChar

StartChar: uni2103
Encoding: 8451 8451 324
Width: 904
Flags: HW
TeX: 694 0
ItalicCorrection: 118
HStem: -17 53<560.436 783.88> 461 41<172.419 274.193> 654 40<202.92 304.357> 658 53<686.95 902.831>
VStem: 120 40<515.399 611.148> 317 40<544.547 641.998> 379 71<159.134 390.935>
LayerCount: 2
Fore
SplineSet
120 558 m 0
 120 627 185 694 259 694 c 0
 314 694 357 656 357 598 c 0
 357 529 292 461 218 461 c 0
 163 461 120 500 120 558 c 0
160 558 m 0
 160 524 184 502 219 502 c 0
 270 502 317 550 317 598 c 0
 317 632 294 654 259 654 c 0xee
 207 654 160 605 160 558 c 0
379 263 m 0
 379 489 574 711 798 711 c 0
 890 711 949 690 983 677 c 1
 956 608 l 1
 920 628 880 658 785 658 c 0
 607 658 450 461 450 269 c 0
 450 148 518 36 653 36 c 0
 752 36 787 54 866 97 c 1
 859 39 l 1
 779 -2 738 -17 642 -17 c 0xde
 472 -17 379 112 379 263 c 0
EndSplineSet
EndChar

StartChar: dollaroldstyle
Encoding: 63268 63268 325
Width: 642
Flags: HW
TeX: 750 55
ItalicCorrection: 110
HStem: -7 53<299 350> 649 54<439 490 551 605.268>
VStem: 166 62<459.411 565.99> 565 62<142.92 258.671>
DStem2: 227 -55 278 -55 0.207912 0.978148<10.6035 54.1289 113.763 407.174 482.685 710.584 783.557 822.962> 328 417 312 345 0.969773 -0.244007<-84.4627 0 51.5294 110.354> 340 -55 391 -55 0.207912 0.978148<10.6035 49.0302 124.168 378.746 455.027 719.803 780.415 822.962>
LayerCount: 2
Fore
SplineSet
60 61 m 1
 82 119 l 1
 134 85 180 63 250 52 c 1
 312 345 l 1
 175 382 166 461 166 490 c 0
 166 602 297 677 386 694 c 1
 398 750 l 1
 449 750 l 1
 439 701 l 1
 450 702 461 703 472 703 c 0
 482 703 491 702 501 702 c 1
 511 750 l 1
 562 750 l 1
 551 698 l 1
 613 691 661 668 703 647 c 1
 682 592 l 1
 629 620 599 634 540 644 c 1
 539 644 l 1
 483 378 l 1
 586 349 627 285 627 223 c 0
 627 135 547 36 403 1 c 1
 391 -55 l 1
 340 -55 l 1
 350 -7 l 1
 339 -8 328 -8 317 -8 c 0
 307 -8 298 -8 288 -7 c 1
 278 -55 l 1
 227 -55 l 1
 238 -2 l 1
 183 7 124 23 60 61 c 1
228 511 m 0
 228 465 269 432 328 417 c 1
 375 640 l 1
 374 640 l 1
 327 626 228 590 228 511 c 0
299 46 m 1
 336 45 l 1
 362 46 l 1
 420 318 l 1
 360 333 l 1
 299 46 l 1
375 405 m 1
 435 390 l 1
 490 649 l 1
 453 650 l 1
 427 648 l 1
 375 405 l 1
415 56 m 1
 509 81 565 144 565 202 c 0
 565 243 539 280 468 305 c 1
 415 56 l 1
EndSplineSet
EndChar

StartChar: centoldstyle
Encoding: 63394 63394 326
Width: 525
Flags: HW
TeX: 555 83
ItalicCorrection: 88
HStem: -8 52<217.047 418.657> 433 52<293.954 436>
VStem: 90 65<106.382 283.364>
DStem2: 41 -71 80 -95 0.618527 0.785763<5.26424 156.912 222.247 638.771 721.657 813.222>
LayerCount: 2
Fore
SplineSet
41 -71 m 1
 139 54 l 1
 130 63 90 106 90 185 c 0
 90 322 218 485 401 485 c 0
 420 485 451 483 475 480 c 1
 544 568 l 1
 582 543 l 1
 523 468 l 1
 544 461 564 451 583 442 c 1
 561 387 l 1
 537 400 513 414 486 421 c 1
 210 70 l 1
 234 55 259 44 304 44 c 0
 397 44 458 77 513 111 c 1
 506 55 l 1
 445 19 377 -8 291 -8 c 0
 256 -8 213 -1 175 24 c 1
 174 24 l 1
 80 -95 l 1
 41 -71 l 1
155 188 m 0
 155 158 161 129 178 104 c 1
 436 431 l 1
 421 432 406 433 391 433 c 0
 228 433 155 287 155 188 c 0
EndSplineSet
EndChar

StartChar: colonmonetary
Encoding: 8353 8353 327
Width: 671
Flags: HW
TeX: 750 55
ItalicCorrection: 118
HStem: -16 53<441 552.671> 658 53<584 669.25>
VStem: 146 71<159.209 388.248>
DStem2: 371 -55 421 -55 0.207912 0.978148<10.3956 40.7892 104.543 727.836 793.546 822.754>
LayerCount: 2
Fore
SplineSet
146 263 m 0
 146 492 343 696 533 710 c 1
 534 711 l 1
 541 750 l 1
 592 750 l 1
 584 711 l 1
 646 709 694 699 750 677 c 1
 723 608 l 1
 654 649 639 651 572 658 c 1
 441 37 l 1
 519 39 554 54 633 97 c 1
 626 39 l 1
 555 2 508 -15 429 -16 c 1
 421 -55 l 1
 371 -55 l 1
 379 -15 l 1
 234 -2 146 117 146 263 c 0
217 269 m 0
 217 156 273 68 366 43 c 1
 391 38 l 1
 522 657 l 1
 339 627 217 437 217 269 c 0
EndSplineSet
EndChar

StartChar: uni20A9
Encoding: 8361 8361 328
Width: 967
Flags: HW
TeX: 694 0
ItalicCorrection: 162
HStem: -5 21G<223.244 305.244 664.146 748.341> 200 50<45.4176 202 273 344 427 643 711 784 870 1023.8> 394 50<79.3818 185 257 442 525 627 695 883 970 1064.63> 675 20G<162 231.753 586.801 668.833 1027.72 1099>
VStem: 647 70<124.474 200>
DStem2: 230 695 162 695 0.0896377 -0.995974<0 245.956 302.209 440.699 496.862 607.046> 344 200 400 200 0.445328 0.895368<-149.376 0 81.7306 217.343 299.074 506.137> 690 444 627 444 0.0865339 -0.996249<-175.68 -5.45163 50.2451 189.205 244.902 380.001> 718 65 738 -5 0.458352 0.888771<0 150.235 234.092 368.034 452.349 706.598>
LayerCount: 2
Fore
SplineSet
38 225 m 0
 38 232 41 250 69 250 c 2
 202 250 l 1
 189 394 l 1
 113 394 l 2
 98 394 80 397 79 418 c 0
 79 426 82 444 110 444 c 2
 185 444 l 1
 162 695 l 1
 230 695 l 1
 252 444 l 1
 469 444 l 1
 597 695 l 1
 667 695 l 1
 690 444 l 1
 909 444 l 1
 1038 695 l 1
 1099 695 l 1
 970 444 l 1
 1022 444 l 2
 1031 444 1041 445 1050 441 c 0
 1059 437 1065 428 1065 418 c 0
 1065 410 1061 395 1033 394 c 1
 944 394 l 1
 870 250 l 1
 983 250 l 2
 996 250 1024 253 1024 225 c 0
 1024 215 1019 200 990 200 c 2
 844 200 l 1
 738 -5 l 1
 666 -5 l 1
 647 200 l 1
 400 200 l 1
 295 -5 l 1
 225 -5 l 1
 207 200 l 1
 77 200 l 2
 57 200 54 200 45 208 c 0
 42 212 38 216 38 225 c 0
257 394 m 1
 269 250 l 1
 370 250 l 1
 442 394 l 1
 257 394 l 1
273 200 m 1
 280 90 l 1
 280 65 l 1
 290 93 318 146 344 200 c 1
 273 200 l 1
427 250 m 1
 643 250 l 1
 631 394 l 1
 499 394 l 1
 427 250 l 1
525 444 m 1
 627 444 l 1
 623 501 615 591 615 615 c 0
 615 620 616 625 616 630 c 1
 579 551 l 1
 525 444 l 1
695 394 m 1
 707 250 l 1
 810 250 l 1
 883 394 l 1
 695 394 l 1
711 200 m 1
 717 104 l 1
 718 65 l 1
 784 200 l 1
 711 200 l 1
EndSplineSet
EndChar

StartChar: uni20A6
Encoding: 8358 8358 329
Width: 737
Flags: HW
TeX: 694 0
ItalicCorrection: 78
HStem: 0 21G<115 182.2 518.4 627.2> 200 50<-2.74704 157 231 442 526 602 676 836.697> 394 50<38.2695 199 272 377 461 644 717 877.611> 675 20G<258.777 367.614 703.777 771>
DStem2: 115 0 178 0 0.207912 0.978148<13.0984 204.362 268.655 402.855 466.94 663.268> 361 695 313 636 0.314439 -0.949278<40.9143 243.3 317.176 447.898 521.775 671.036> 559.672 0 623 0 0.207912 0.978148<59.2958 204.43 268.723 402.923 467.008 710.652>
LayerCount: 2
Fore
SplineSet
-3 225 m 0
 -3 240 7 245 14 248 c 1
 22 250 31 250 40 250 c 2
 168 250 l 1
 199 394 l 1
 71 394 l 2
 43 394 38 409 38 419 c 0
 38 431 48 440 55 442 c 0
 63 445 72 444 81 444 c 2
 210 444 l 1
 263 695 l 1
 361 695 l 1
 444 444 l 1
 655 444 l 1
 708 695 l 1
 771 695 l 1
 717 444 l 1
 835 444 l 2
 847 444 857 445 865 440 c 0
 873 436 878 427 878 418 c 0
 878 395 856 394 842 394 c 2
 706 394 l 1
 676 250 l 1
 803 250 l 2
 820 250 837 245 837 224 c 0
 837 211 827 203 820 201 c 0
 812 199 803 200 794 200 c 2
 665 200 l 1
 623 0 l 1
 525 0 l 1
 459 200 l 1
 220 200 l 1
 178 0 l 1
 115 0 l 1
 157 200 l 1
 40 200 l 2
 28 200 18 198 10 203 c 0
 2 207 -3 216 -3 225 c 0
231 250 m 1
 442 250 l 1
 394 394 l 1
 262 394 l 1
 231 250 l 1
272 444 m 1
 377 444 l 1
 313 636 l 1
 272 444 l 1
461 394 m 1
 508 250 l 1
 613 250 l 1
 644 394 l 1
 461 394 l 1
526 200 m 1
 572 58 l 1
 602 200 l 1
 526 200 l 1
EndSplineSet
EndChar

StartChar: uni20B2
Encoding: 8370 8370 330
Width: 817
Flags: HW
TeX: 750 55
ItalicCorrection: 118
HStem: -16 53<363.851 438 499 657.472> 275 53<562 740> 658 53<643 759.31>
VStem: 148 71<181.06 397.46>
DStem2: 429 -55 480 -55 0.207912 0.978148<10.6035 40.019 104.543 347.946 402.283 728.044 793.754 822.962> 669.856 -55 734.508 -55 0.207912 0.978148<115.764 337.373>
LayerCount: 2
Fore
SplineSet
148 275 m 0
 148 499 367 698 592 710 c 1
 593 711 l 1
 600 750 l 1
 651 750 l 1
 643 711 l 1
 702 711 773 704 878 663 c 1
 852 594 l 1
 787 629 735 655 631 658 c 1
 562 328 l 1
 816 328 l 1
 753 32 l 1
 668 4 578 -14 488 -16 c 1
 480 -55 l 1
 429 -55 l 1
 438 -16 l 1
 289 -8 148 95 148 275 c 0
219 283 m 0
 219 139 320 49 449 37 c 1
 581 657 l 1
 378 638 219 460 219 283 c 0
499 37 m 1
 578 39 638 53 696 68 c 1
 740 275 l 1
 550 275 l 1
 499 37 l 1
EndSplineSet
EndChar

StartChar: peso
Encoding: 61711 61711 331
Width: 673
Flags: HW
TeX: 694 0
ItalicCorrection: 81
HStem: 0 21G<114 188.2> 200 50<-2.7605 156 237 470.796> 295 52<256 541.247> 641 54<319 598.755>
VStem: 657 66<447.036 587.619>
DStem2: 114 0 184 0 0.207912 0.978148<14.5538 204.362 270.11 315.998 368.941 669.615>
LayerCount: 2
Fore
SplineSet
-3 225 m 0
 -3 248 18 250 33 250 c 2
 167 250 l 1
 261 694 l 1
 261 695 l 1
 501 695 l 2
 559 695 601 687 642 663 c 0
 681 640 723 596 723 527 c 0
 723 408 588 302 442 296 c 1
 382 295 l 1
 246 295 l 1
 237 250 l 1
 437 250 l 2
 466 250 471 235 471 225 c 0
 471 215 466 200 437 200 c 2
 226 200 l 1
 184 0 l 1
 114 0 l 1
 156 200 l 1
 40 200 l 2
 29 200 18 198 10 203 c 0
 2 208 -3 216 -3 225 c 0
256 347 m 1
 421 347 l 2
 600 347 657 453 657 523 c 0
 657 580 620 608 599 619 c 0
 557 641 510 641 464 641 c 2
 319 641 l 1
 256 347 l 1
EndSplineSet
EndChar

StartChar: lira
Encoding: 8356 8356 332
Width: 782
Flags: HW
TeX: 694 0
HStem: -8 50<132.481 227.727 423.156 565.053> 89 50<136.945 246.239> 200 50<198.188 301 376 508.689> 365 50<233.247 336 411 543.726> 677 51<512.879 633.062>
VStem: 69 63<42.025 81.236> 606 64<89.216 139> 663 65<497.483 646.143>
DStem2: 256.788 -8 320.788 -8 0.207912 0.978148<168.507 212.647 277.148 381.318 445.819 645.725>
LayerCount: 2
Fore
SplineSet
69 45 m 0
 69 100 137 139 217 139 c 0
 243 139 263 135 282 129 c 1
 291 157 l 1
 301 200 l 1
 228 200 l 1
 201 201 198 217 198 225 c 0
 198 233 201 250 231 250 c 2
 312 250 l 1
 336 365 l 1
 263 365 l 1
 236 366 233 382 233 391 c 0
 233 398 236 416 267 416 c 0
 270 416 272 415 275 415 c 2
 347 415 l 1
 347 416 l 1
 366 506 372 537 383 565 c 0
 421 660 508 728 592 728 c 0
 674 728 728 664 728 572 c 0
 728 505 711 495 687 491 c 1
 665 497 663 505 663 521 c 1
 658 521 l 1
 661 542 663 552 663 570 c 0xfd
 663 627 637 677 580 677 c 0
 525 677 468 638 442 554 c 0
 434 527 426 484 411 415 c 1
 511 415 l 2
 522 415 544 414 544 390 c 0
 544 377 533 369 531 368 c 0
 522 364 512 365 503 365 c 2
 400 365 l 1
 376 250 l 1
 476 250 l 2
 506 250 509 231 509 225 c 0
 509 215 500 205 494 202 c 0
 486 198 477 200 468 200 c 2
 365 200 l 1
 358 162 353 141 334 108 c 1
 371 92 441 42 513 42 c 0
 567 42 595 93 606 139 c 1
 670 139 l 1xfe
 650 51 563 -8 478 -8 c 0
 409 -8 344 34 294 58 c 1
 227 -6 163 -8 145 -8 c 0
 101 -8 69 13 69 45 c 0
132 56 m 0
 132 48 138 42 155 42 c 0
 195 42 225 59 247 78 c 1
 235 81 208 89 183 89 c 0xfc
 154 89 132 70 132 56 c 0
EndSplineSet
EndChar

StartChar: uni211E
Encoding: 8478 8478 333
Width: 671
Flags: HW
TeX: 694 0
ItalicCorrection: 81
HStem: -0 21G<98 171.224 561.857 641> 322 51<246 424> 641 54<303 590.237>
VStem: 656 66<462.264 589.587>
DStem2: 98 -0 167 -0 0.207912 0.978148<14.3459 343.447 395.62 669.615> 313 108 338 67 0.815208 0.579169<0 183.911 256.675 454.186> 488 330 424 322 0.420627 -0.907234<0 80.5294 141.883 334.299>
LayerCount: 2
Fore
SplineSet
98 -0 m 1
 245 694 l 1
 246 695 l 1
 478 695 l 2
 668 695 722 598 722 534 c 0
 722 433 603 350 488 330 c 1
 522 257 l 1
 686 373 l 1
 711 332 l 1
 543 213 l 1
 641 -0 l 1
 571 -0 l 1
 491 175 l 1
 338 67 l 1
 313 108 l 1
 470 220 l 1
 424 322 l 1
 235 322 l 1
 167 -0 l 1
 98 -0 l 1
246 373 m 1
 402 373 l 1
 461 375 533 375 594 420 c 0
 629 445 656 485 656 529 c 0
 656 582 618 608 597 618 c 0
 553 640 502 641 453 641 c 2
 303 641 l 1
 246 373 l 1
EndSplineSet
EndChar

StartChar: uni203D
Encoding: 8253 8253 334
Width: 496
Flags: HW
TeX: 694 0
ItalicCorrection: 118
HStem: 0 78<224 286> 582 50<245.627 334 420 464.933> 675 20G<356 434>
VStem: 208 95 481 65<463.98 564.614>
DStem2: 201.377 0 279.378 0 0.207912 0.978148<197.171 350.561 429.956 596.856 661.687 711.603>
LayerCount: 2
Fore
SplineSet
183 588 m 1
 233 613 288 629 344 632 c 1
 356 694 l 1
 356 695 l 1
 434 695 l 1
 420 630 l 1
 495 621 546 588 546 525 c 0
 546 480 521 439 486 413 c 0
 454 389 406 374 343 292 c 1
 317 177 l 1
 239 177 l 1
 252 238 247 230 268 278 c 0
 280 305 274 279 334 582 c 1
 277 577 232 557 191 535 c 1
 183 588 l 1
367 399 m 1
 401 424 409 429 439 446 c 1
 466 464 481 491 481 520 c 0
 481 569 439 577 408 581 c 1
 367 399 l 1
EndSplineSet
Refer: 57 46 S 1 0 0 1 102 0 2
EndChar

StartChar: uni2E18
Encoding: 11800 11800 335
Width: 496
Flags: HW
TeX: 523 166
HStem: -167 21G<172 254.308> -105 50<135.095 186> -27 20G<388.5 419.019> 450 78<319 381>
VStem: 60 64<-42.9702 66.1001> 303 95
DStem2: 172 -167 250 -167 0.207912 0.978148<16.2171 63.5559 242.933 325.25 402.729 527.117>
LayerCount: 2
Fore
SplineSet
60 -1 m 0
 60 45 84 88 115 115 c 1
 158 146 227 192 258 280 c 0
 266 303 270 326 275 350 c 1
 353 350 l 1
 273 -51 l 1
 324 -44 361 -31 416 -7 c 1
 424 -60 l 1
 348 -92 288 -100 264 -102 c 1
 250 -167 l 1
 172 -167 l 1
 186 -105 l 1
 105 -101 60 -63 60 -1 c 0
124 1 m 0
 124 -45 161 -54 198 -55 c 1
 198 -54 l 1
 245 150 l 1
 206 112 213 119 160 81 c 1
 131 56 124 23 124 1 c 0
EndSplineSet
Refer: 57 46 S 1 0 0 1 197 450 2
EndChar

StartChar: dong
Encoding: 8363 8363 336
Width: 517
Flags: HW
TeX: 750 0
ItalicCorrection: 96
HStem: -40 40<55.052 562.671> 48 50<199.088 310.183> 56 21<371 439.265> 486 50<280.229 413.935> 614 51<305 491 565 668> 731 20<515.814 583>
VStem: 89 64<145.16 339.204>
DStem2: 369.3 48 433.3 48 0.207912 0.978148<21.4851 82.7022 91.4723 381.506 427.515 578.935 644.206 718.97>
LayerCount: 2
Fore
SplineSet
55 -21 m 0x9e
 55 -1 73 0 84 0 c 2
 535 0 l 2
 548 0 556 -1 563 -15 c 1
 563 -20 l 2
 563 -30 558 -40 536 -40 c 2
 82 -40 l 2
 62 -40 55 -31 55 -21 c 0x9e
EndSplineSet
Refer: 169 273 S 1 0 0 1 0 56 2
EndChar

StartChar: trademark
Encoding: 8482 8482 337
Width: 700
Flags: HW
TeX: 750 0
ItalicCorrection: 524
HStem: 483 21G<531.5 564> 700 50<75.3242 210 276 419.442>
VStem: 378 60<360.204 462.501>
DStem2: 138.222 359 203.923 359 0.207912 0.978148<17.6881 348.472>
LayerCount: 2
Fore
SplineSet
75 726 m 0
 75 736 81 750 115 750 c 2
 367 750 l 2
 403 750 408 750 420 735 c 1
 422 729 l 1
 423 722 l 1
 420 701 398 700 383 700 c 2
 276 700 l 1
 212 397 l 2
 209 382 206 359 176 359 c 0
 158 359 148 370 146 375 c 0
 142 385 146 395 148 405 c 2
 210 700 l 1
 114 700 l 2
 80 700 75 715 75 726 c 0
378 385 m 0
 378 391 380 399 383 414 c 2
 450 730 l 2
 451 737 454 766 485 766 c 0
 512 766 519 742 520 738 c 2
 565 579 l 1
 699 767 692 766 719 766 c 0
 739 766 750 752 750 741 c 0
 750 737 750 733 748 725 c 2
 677 390 l 2
 676 385 672 359 642 359 c 0
 632 359 611 366 611 384 c 0
 611 392 617 418 656 601 c 1
 573 485 576 483 552 483 c 0
 511 483 520 531 490 609 c 1
 441 375 443 379 438 372 c 0
 432 363 420 359 409 359 c 0
 393 359 378 369 378 385 c 0
EndSplineSet
EndChar

StartChar: uni2031
Encoding: 8241 8241 338
Width: 1580
Flags: HW
TeX: 750 55
ItalicCorrection: 29
HStem: -55 50<626.086 718.039 976.242 1069.38 1330.09 1422.04> 297 50<680.688 773.119 1032.43 1125.09 1384.69 1477.12> 347 51<243.242 337.196> 699 51<297.876 392.337>
VStem: 168 58<415.829 594.182> 413 59<500.278 679.034> 549 59<11.985 193.756> 794 60<96.6044 277.117> 901 58<11.763 188.168> 1146 59<96.6044 277.117> 1253 59<11.985 193.756> 1498 60<96.6044 277.117>
DStem2: 194 -7 216 -44 0.63454 0.77289<-31.4267 982.305>
LayerCount: 2
Fore
SplineSet
901 89 m 0
 901 215 996 347 1096 347 c 0
 1161 347 1205 287 1205 204 c 0
 1205 72 1107 -55 1011 -55 c 0
 945 -55 901 4 901 89 c 0
959 77 m 0
 959 12 996 -5 1021 -5 c 0
 1084 -5 1146 103 1146 200 c 0
 1146 252 1125 297 1085 297 c 0
 985 297 959 118 959 77 c 0
EndSplineSet
Refer: 690 8320 S 1 0 0 1 1142 0 2
Refer: 48 37 S 1 0 0 1 0 0 2
EndChar

StartChar: uni2029
Encoding: 8233 8233 339
Width: 496
Flags: HW
TeX: 694 166
HStem: -166 21G<320.5 337.5> 655 40<519 608.994>
DStem2: 303.198 -166 344.561 -166 0.207912 0.978148<23.8414 420.066>
LayerCount: 2
Fore
SplineSet
154 433 m 0
 154 537 242 668 354 691 c 0
 371 695 389 695 406 695 c 2
 579 695 l 2
 601 695 609 685 609 675 c 0
 609 667 604 656 582 655 c 1
 519 655 l 1
 352 -131 l 2
 350 -141 347 -166 328 -166 c 0
 313 -166 309 -155 309 -143 c 0
 309 -140 310 -137 310 -134 c 2
 390 245 l 1
 289 250 154 303 154 433 c 0
EndSplineSet
EndChar

StartChar: uni0E3F
Encoding: 3647 3647 340
Width: 687
Flags: HW
TeX: 750 55
ItalicCorrection: 81
HStem: 0 53<178 286 348 471.924> 336 50<249 358> 641 54<303 423 484 568.459>
VStem: 604 67<148.597 265.642> 646 66<479.33 583.88>
DStem2: 87.3094 -55 155.044 -55 0.207912 0.978148<124.496 413.786 464.98 725.635> 274 -55 325 -55 0.207912 0.978148<10.6035 56.2931 121.025 399.92 462.488 711.77 777.272 822.962>
LayerCount: 2
Fore
SplineSet
99 0 m 1
 246 694 l 1
 247 695 l 1
 434 695 l 1
 445 750 l 1
 496 750 l 1
 484 695 l 1
 612 694 712 634 712 544 c 0xe8
 712 508 689 407 494 363 c 1
 641 342 671 256 671 214 c 0
 671 113 541 5 377 0 c 1
 336 0 l 1
 325 -55 l 1
 274 -55 l 1
 286 0 l 1
 99 0 l 1
178 53 m 1
 298 53 l 1
 358 336 l 1
 238 336 l 1
 178 53 l 1
249 386 m 1
 368 386 l 1
 369 387 l 1
 423 641 l 1
 303 641 l 1
 249 386 l 1
348 53 m 1
 486 54 604 125 604 209 c 0xf0
 604 250 573 289 520 312 c 0
 472 332 455 332 409 336 c 1
 348 53 l 1
419 387 m 1xe8
 569 400 647 478 646 535 c 1
 643 562 638 587 571 619 c 1
 562 622 532 635 473 640 c 1
 419 387 l 1xe8
EndSplineSet
EndChar

StartChar: uni2116
Encoding: 8470 8470 341
Width: 825
Flags: HW
TeX: 694 0
ItalicCorrection: 78
HStem: 0 21G<100 167.229 357.7 462.23> 178 50<608 795> 289 52<695.346 775.988> 481 51<719.641 793.128> 675 20G<243.741 347.263 542 605>
VStem: 643 50<343.911 452.374> 796 51<361.876 477.943>
DStem2: 100 0 163 0 0.207912 0.978148<13.0984 656.006> 345 695 297 605 0.103572 -0.994622<60.57 611.243> 395.184 0 458 0 0.207912 0.978148<66.4521 709.359>
LayerCount: 2
Fore
SplineSet
100 0 m 1
 248 695 l 1
 345 695 l 1
 388 315 l 1
 396 230 409 122 409 75 c 2
 409 65 l 1
 542 694 l 1
 543 695 l 1
 605 695 l 1
 458 0 l 1
 360 0 l 1
 324 313 l 1
 309 457 l 1
 299 577 l 1
 297 605 l 1
 296 629 l 1
 163 0 l 1
 100 0 l 1
597 178 m 1
 608 228 l 1
 805 228 l 1
 795 178 l 1
 597 178 l 1
643 378 m 0
 643 452 704 532 771 532 c 0
 816 532 847 491 847 440 c 0
 847 357 780 289 720 289 c 0
 674 289 643 327 643 378 c 0
693 376 m 0
 693 348 712 341 731 341 c 0
 785 341 787 390 795 430 c 0
 795 434 796 438 796 442 c 0
 796 473 776 481 760 481 c 0
 700 481 693 383 693 376 c 0
EndSplineSet
EndChar

StartChar: uni2052
Encoding: 8274 8274 342
Width: 525
Flags: HW
TeX: 750 0
ItalicCorrection: 130
HStem: 0 118<348.142 447.718> 632 118<250 331.953>
VStem: 217 133<644.782 737.172> 334 132<13.1921 110.99> 347 119<22.709 116.718>
DStem2: 74 42 101 12 0.5899 0.807476<-23.9093 877.282>
LayerCount: 2
Fore
SplineSet
63 20 m 0
 63 29 71 38 74 42 c 2
 581 736 l 2
 585 741 591 749 601 749 c 0
 611 749 620 741 620 730 c 0
 620 721 611 708 605 700 c 2
 101 12 l 2
 96 6 90 1 82 1 c 0
 71 1 63 10 63 20 c 0
217 653 m 0
 217 661 230 721 235 738 c 1
 239 743 l 1
 244 747 l 1
 250 749 l 1
 262 750 l 1
 322 750 l 2
 337 750 350 746 350 728 c 0xe0
 350 720 337 660 332 644 c 1
 329 640 l 1
 322 634 321 632 307 632 c 2
 244 632 l 2
 231 632 217 635 217 653 c 0
334 22 m 0xd0
 334 37 340 60 347 93 c 0
 349 104 352 111 366 117 c 1
 377 118 l 1
 437 118 l 2xc8
 448 118 466 116 466 98 c 0
 466 90 456 37 448 12 c 1
 442 4 438 0 422 0 c 2
 360 0 l 2
 340 0 334 7 334 22 c 0xd0
EndSplineSet
EndChar

StartChar: estimated
Encoding: 8494 8494 343
Width: 700
Flags: HW
TeX: 694 0
ItalicCorrection: 100
HStem: -8 50<296.427 547.505> 361 40<196 692.342> 656 51<406.828 601.623>
VStem: 105 69<169.768 356.215> 695 65<401.316 562.032>
LayerCount: 2
Fore
SplineSet
105 271 m 0
 105 486 299 707 516 707 c 0
 626 707 760 659 760 470 c 0
 760 433 755 397 747 361 c 1
 184 361 l 1
 184 361 174 317 174 277 c 0
 174 149 253 42 393 42 c 0
 515 42 615 81 684 111 c 1
 677 57 l 1
 617 29 499 -8 381 -8 c 0
 208 -8 105 117 105 271 c 0
196 401 m 1
 690 401 l 1
 691 402 695 449 695 461 c 0
 695 617 590 656 506 656 c 0
 382 656 247 552 196 401 c 1
EndSplineSet
EndChar

StartChar: openbullet
Encoding: 9702 9702 344
Width: 525
Flags: HW
TeX: 470 -59
HStem: 60 40<208.493 361.777> 428 40<275.223 428.722>
VStem: 110 40<156.784 304.966> 487 40<222.819 370.794>
LayerCount: 2
Fore
SplineSet
110 226 m 0
 110 350 228 468 358 468 c 0
 454 468 527 400 527 302 c 0
 527 178 409 60 279 60 c 0
 184 60 110 126 110 226 c 0
150 226 m 0
 150 151 205 100 279 100 c 0
 388 100 487 200 487 302 c 0
 487 377 432 428 358 428 c 0
 249 428 150 327 150 226 c 0
EndSplineSet
EndChar

StartChar: uni2120
Encoding: 8480 8480 345
Width: 700
Flags: HW
TeX: 750 0
ItalicCorrection: 524
HStem: 375 50<36.5568 273.842> 483 21G<531.5 564> 556 50<148.113 300.697> 700 50<159.16 396.594>
VStem: 81 65<608.093 687.045> 302 64<448.871 554.441> 378 60<360.394 462.501>
LayerCount: 2
Fore
SplineSet
32 402 m 2
 32 409 36 425 73 425 c 2
 200 425 l 1
 244 427 250 424 275 440 c 1
 289 462 288 457 298 502 c 0
 300 513 302 522 302 529 c 0
 302 554 287 556 252 556 c 2
 188 556 l 2
 159 556 81 554 81 623 c 2
 81 634 l 1
 93 739 150 750 220 750 c 2
 356 750 l 2
 361 750 397 751 397 724 c 0
 397 716 391 700 358 700 c 2
 211 700 l 1
 180 699 164 696 154 669 c 1
 149 648 146 633 146 624 c 0
 146 610 153 606 190 606 c 0
 212 606 234 606 256 606 c 0
 285 606 315 604 339 587 c 1
 354 573 366 562 366 532 c 0
 366 507 359 425 305 394 c 0
 274 376 238 375 204 375 c 2
 84 375 l 2
 52 375 48 375 36 389 c 1
 33 395 l 1
 32 402 l 2
378 385 m 0
 378 391 380 399 383 414 c 2
 451 730 l 2
 452 737 454 766 485 766 c 0
 512 766 519 742 520 738 c 2
 566 579 l 1
 700 767 692 766 719 766 c 0
 739 766 750 752 750 741 c 0
 750 737 750 733 748 725 c 2
 677 390 l 2
 676 385 673 359 643 359 c 0
 633 359 611 366 611 384 c 0
 611 392 617 418 656 601 c 1
 573 485 576 483 552 483 c 0
 511 483 520 531 490 609 c 1
 441 375 443 379 438 372 c 0
 432 363 421 359 410 359 c 0
 394 359 378 369 378 385 c 0
EndSplineSet
EndChar

StartChar: uni2045
Encoding: 8261 8261 346
Width: 379
Flags: HW
TeX: 750 222
ItalicCorrection: 22
HStem: -272 50<155.541 258> 700 50<320.84 465>
VStem: 58 65<-189.091 -19.6014> 167 65<331.691 491.947>
LayerCount: 2
Fore
SplineSet
58 -135 m 0
 58 -113 65 -91 102 86 c 0
 109 120 120 246 312 264 c 1
 233 267 167 310 167 379 c 0
 167 396 172 414 214 610 c 0
 224 657 232 749 476 750 c 1
 465 700 l 1
 421 700 l 2
 391 700 309 698 287 645 c 0
 281 630 232 396 232 384 c 0
 232 327 291 290 378 289 c 1
 367 239 l 1
 280 238 204 200 180 140 c 0
 173 123 123 -114 123 -130 c 0
 123 -159 138 -222 229 -222 c 2
 269 -222 l 1
 258 -272 l 1
 141 -271 58 -217 58 -135 c 0
EndSplineSet
EndChar

StartChar: uni2046
Encoding: 8262 8262 347
Width: 379
Flags: HW
TeX: 750 222
ItalicCorrection: 126
HStem: -222 50<26 172.246> 700 50<222 346.806>
VStem: 258 65<32.5228 195.956> 366 66<546.571 682.052>
LayerCount: 2
Fore
SplineSet
15 -222 m 1
 26 -172 l 1
 41 -172 56 -172 71 -172 c 0
 100 -172 181 -169 203 -118 c 0
 210 -103 258 132 258 143 c 0
 258 200 200 238 113 239 c 1
 124 289 l 1
 202 290 276 321 305 376 c 0
 322 408 366 645 366 646 c 0
 366 695 292 700 250 700 c 2
 211 700 l 1
 222 750 l 1
 286 750 432 745 432 655 c 0
 432 643 426 618 388 440 c 0
 379 397 366 281 179 264 c 1
 257 261 323 218 323 149 c 0
 323 132 322 127 277 -83 c 0
 265 -139 251 -221 15 -222 c 1
EndSplineSet
EndChar

StartChar: cent
Encoding: 162 162 348
Width: 525
Flags: HW
TeX: 555 83
ItalicCorrection: 88
HStem: -7 52<216.543 264 325 421.842> 432 52<293.851 357 419 516.699>
VStem: 90 65<105.746 285.89>
DStem2: 248 -83 298 -83 0.207912 0.978148<10.3956 77.6658 141.212 525.43 590.163 657.225>
LayerCount: 2
Fore
SplineSet
90 186 m 0
 90 331 220 467 368 483 c 1
 384 560 l 1
 435 560 l 1
 419 484 l 1
 500 483 538 464 583 442 c 1
 561 387 l 1
 519 410 486 431 408 432 c 1
 407 432 l 1
 325 45 l 1
 402 50 451 73 513 111 c 1
 506 55 l 1
 446 19 386 -4 314 -7 c 1
 298 -83 l 1
 248 -83 l 1
 264 -7 l 1
 156 6 90 85 90 186 c 0
155 188 m 0
 155 107 202 55 275 45 c 1
 357 431 l 1
 219 413 155 281 155 188 c 0
EndSplineSet
EndChar

StartChar: currency
Encoding: 164 164 349
Width: 803
Flags: HW
TeX: 611 0
ItalicCorrection: 100
HStem: -8 40<308.017 507.257> 575 40<423.959 622.887>
VStem: 147 40<150.135 345.759> 743 41<262.015 459.219>
LayerCount: 2
Fore
SplineSet
46 -26 m 0
 46 -14 51 -12 188 101 c 1
 157 148 147 201 147 243 c 0
 147 346 200 444 275 512 c 1
 200 607 186 621 186 633 c 0
 186 646 195 649 201 652 c 1
 208 653 l 1
 223 649 234 630 306 538 c 1
 344 563 418 615 528 615 c 0
 643 615 698 557 718 538 c 1
 849 647 855 653 866 653 c 0
 876 653 885 645 885 633 c 0
 885 622 890 628 743 506 c 1
 774 459 784 406 784 364 c 0
 784 261 730 163 655 95 c 1
 743 -17 742 -14 744 -25 c 0
 745 -29 745 -38 730 -45 c 1
 723 -45 l 1
 707 -40 703 -31 625 69 c 1
 594 48 516 -8 403 -8 c 0
 288 -8 233 51 213 70 c 1
 82 -38 76 -46 65 -46 c 0
 51 -46 46 -34 46 -26 c 0
187 243 m 0
 187 116 280 32 403 32 c 0
 580 32 743 196 743 364 c 0
 743 491 651 575 528 575 c 0
 355 575 187 415 187 243 c 0
EndSplineSet
EndChar

StartChar: yen
Encoding: 165 165 350
Width: 675
Flags: HW
TeX: 694 0
ItalicCorrection: 173
HStem: 0 21G<303 375.3> 200 50<26.2116 345 425 742.772> 412 51<71.2715 268 379 480 603 788.578> 675 20G<150 245.086 723.466 819>
DStem2: 235 695 150 695 0.45226 -0.891886<0 221.842 317.529 394.936> 303 0 371 0 0.207912 0.978148<14.138 204.362> 414 342 555 412 0.68069 0.732572<2.47277 96.2056 217.292 481.864>
LayerCount: 2
Fore
SplineSet
26 225 m 0
 26 239 38 247 45 249 c 0
 52 251 60 250 67 250 c 2
 356 250 l 1
 358 261 360 266 360 272 c 0
 360 286 348 304 294 412 c 1
 105 412 l 2
 76 412 71 427 71 437 c 0
 71 461 93 463 104 463 c 2
 268 463 l 1
 150 695 l 1
 235 695 l 1
 352 463 l 1
 527 463 l 1
 742 695 l 1
 819 695 l 1
 603 463 l 1
 755 463 l 2
 784 463 789 447 789 437 c 0
 789 414 765 412 754 412 c 2
 555 412 l 1
 413 259 434 289 425 250 c 1
 710 250 l 2
 723 250 743 249 743 225 c 0
 743 211 732 203 725 201 c 0
 718 199 710 200 703 200 c 2
 414 200 l 1
 371 0 l 1
 303 0 l 1
 345 200 l 1
 65 200 l 2
 58 200 51 199 44 201 c 0
 34 204 26 214 26 225 c 0
379 412 m 1
 414 342 l 1
 480 412 l 1
 379 412 l 1
EndSplineSet
EndChar

StartChar: brokenbar
Encoding: 166 166 351
Width: 175
Flags: HW
TeX: 750 222
ItalicCorrection: 101
VStem: 25 43<-220.838 -150.162> 100 38<125.236 176.967> 146 44<351.155 421.838> 222 39<698.139 748.977>
LayerCount: 2
Fore
SplineSet
25 -200 m 0
 25 -193 27 -186 28 -179 c 2
 100 158 l 2
 104 172 112 177 120 177 c 0
 135 177 138 166 138 155 c 0
 138 148 137 141 136 136 c 2
 68 -183 l 2
 65 -197 63 -221 44 -221 c 0
 33 -221 25 -212 25 -200 c 0
146 372 m 0
 146 379 149 386 150 393 c 2
 222 731 l 2
 224 738 230 749 242 749 c 0
 251 749 261 741 261 728 c 0
 261 721 259 715 258 708 c 2
 190 389 l 2
 187 375 185 351 166 351 c 0
 155 351 146 360 146 372 c 0
EndSplineSet
EndChar

StartChar: dieresis.ts1
Encoding: 62030 62030 352
Width: 525
Flags: HW
TeX: 694 0
ItalicCorrection: 55
HStem: 620 75<270 329 474 534>
VStem: 254 295
LayerCount: 2
Fore
SplineSet
254 620 m 1
 270 695 l 1
 345 695 l 1
 329 620 l 1
 254 620 l 1
458 620 m 1
 474 695 l 1
 549 695 l 1
 534 620 l 1
 458 620 l 1
EndSplineSet
EndChar

StartChar: copyright
Encoding: 169 169 353
Width: 1091
Flags: HW
TeX: 750 222
HStem: -239 40<375.117 627.472> -17 53<511.912 748.01> 450 53<589.675 815.516> 727 40<574.35 824.09>
VStem: 103 40<36.948 293.035> 324 71<134.071 289.093> 1059 40<234.804 493.383>
LayerCount: 2
Fore
SplineSet
324 202 m 0
 324 355 508 503 727 503 c 0
 783 503 817 498 874 479 c 1
 847 410 l 1
 811 432 784 450 715 450 c 0
 536 450 395 327 395 210 c 0
 395 110 491 36 629 36 c 0
 721 36 757 62 796 81 c 1
 789 22 l 1
 719 -9 688 -17 620 -17 c 0
 398 -17 324 114 324 202 c 0
EndSplineSet
Refer: 300 9675 S 1 0 0 1 0 0 3
EndChar

StartChar: ordfeminine
Encoding: 170 170 354
Width: 467
Flags: HW
TeX: 750 0
ItalicCorrection: 111
HStem: 285 50<20.2607 418.679> 367 50<107.896 248.932> 485 30<164.379 311> 715 47<201.058 324.955>
VStem: 69 64<422.476 466.568> 338 65<518.886 702.186>
LayerCount: 2
Fore
SplineSet
20 309 m 0
 20 333 43 335 53 335 c 2
 384 335 l 2
 401 335 419 331 419 309 c 0
 419 301 415 284 386 284 c 0
 383 284 381 285 378 285 c 2
 50 285 l 1
 22 286 20 303 20 309 c 0
69 432 m 0
 69 469 89 482 128 493 c 0
 186 509 252 515 315 515 c 2
 318 515 l 1
 335 599 338 612 338 636 c 0
 338 667 330 715 286 715 c 0
 217 715 167 673 148 659 c 1
 154 715 l 1
 197 743 242 762 300 762 c 0
 373 762 402 697 402 634 c 0
 402 630 403 628 403 625 c 0
 403 609 399 593 353 375 c 1
 289 375 l 1
 299 419 l 1
 250 378 185 367 134 367 c 0
 82 367 69 406 69 432 c 0
133 444 m 0
 133 423 164 417 196 417 c 0
 309 417 311 485 311 485 c 1
 184 484 133 468 133 444 c 0
EndSplineSet
EndChar

StartChar: copyleft
Encoding: 61713 61713 355
Width: 1091
Flags: HW
TeX: 750 222
HStem: -239 40<375.117 627.472> -17 53<366.558 600.569> 450 53<455.789 682.454> 727 40<574.35 824.09>
VStem: 103 40<36.948 293.035> 798 71<195.442 351.216> 1059 40<234.804 493.383>
LayerCount: 2
Fore
SplineSet
311 22 m 1
 328 81 l 1
 373 52 399 36 477 36 c 0
 658 36 798 160 798 276 c 0
 798 381 697 450 568 450 c 0
 499 450 466 434 417 410 c 1
 419 479 l 1
 464 493 513 503 575 503 c 0
 751 503 869 410 869 284 c 0
 869 140 696 -17 465 -17 c 0
 387 -17 359 -5 311 22 c 1
EndSplineSet
Refer: 300 9675 S 1 0 0 1 0 0 3
EndChar

StartChar: logicalnot
Encoding: 172 172 356
Width: 642
Flags: HW
TeX: 430 0
ItalicCorrection: 62
HStem: 320 40<131.017 610>
LayerCount: 2
Fore
SplineSet
131 340 m 0
 131 361 154 360 163 360 c 2
 627 360 l 2
 650 360 654 348 654 339 c 0
 654 330 655 336 612 136 c 0
 610 128 608 104 589 104 c 0
 583 104 570 108 570 124 c 0
 570 139 579 175 610 320 c 1
 161 320 l 2
 150 320 131 322 131 340 c 0
EndSplineSet
EndChar

StartChar: uni2117
Encoding: 8471 8471 357
Width: 1091
Flags: HW
TeX: 750 222
HStem: -239 40<375.117 627.472> 0 21G<335 408.188> 191 52<456 760.864> 433 53<496 799.424> 727 40<574.35 824.09>
VStem: 103 40<36.948 293.035> 844 66<301.523 397.399> 1059 40<234.804 493.383>
DStem2: 284.199 -239 353.199 -239 0.207912 0.978148<258.685 453.828 507.187 701.351>
LayerCount: 2
Fore
SplineSet
335 0 m 1
 438 486 l 1
 633 486 l 2
 646 486 658 487 671 487 c 0
 729 487 802 483 861 441 c 0
 904 410 910 376 910 357 c 0
 910 290 820 191 614 191 c 2
 444 191 l 1
 404 0 l 1
 335 0 l 1
456 243 m 1
 603 243 l 2
 730 243 760 259 792 276 c 1
 819 292 844 318 844 351 c 0
 844 426 726 433 659 433 c 2
 496 433 l 1
 456 243 l 1
EndSplineSet
Refer: 300 9675 S 1 0 0 1 0 0 3
EndChar

StartChar: registered
Encoding: 174 174 358
Width: 1091
Flags: HW
TeX: 750 222
HStem: -239 40<375.117 627.472> 0 21G<335 408.22 781.662 866> 218 51<461 639> 433 53<496 804.845> 727 40<574.35 824.09>
VStem: 103 40<36.948 293.035> 846 67<317.629 399.27> 1059 40<234.804 493.383>
DStem2: 284.199 -239 353.199 -239 0.207912 0.978148<258.685 481.485 533.658 701.351> 703 224 639 219 0.588386 -0.80858<0 235.842>
LayerCount: 2
Fore
SplineSet
335 0 m 1
 438 486 l 1
 665 486 l 2
 829 486 913 427 913 366 c 0
 913 293 810 242 703 224 c 1
 866 0 l 1
 796 0 l 1
 639 219 l 1
 609 218 l 1
 450 218 l 1
 404 0 l 1
 335 0 l 1
461 269 m 1
 624 269 l 2
 802 269 846 323 846 360 c 0
 846 389 820 433 659 433 c 2
 496 433 l 1
 461 269 l 1
EndSplineSet
Refer: 300 9675 S 1 0 0 1 0 0 3
EndChar

StartChar: macron.uc
Encoding: 65547 -1 359
Width: 817
Flags: HW
TeX: 694 0
HStem: 655 40<231.029 870.984>
LayerCount: 2
Fore
SplineSet
231 674 m 0
 231 679 233 695 258 695 c 2
 836 695 l 2
 849 695 871 697 871 675 c 0
 871 655 849 655 843 655 c 2
 265 655 l 2
 263 655 262 654 260 654 c 0
 235 654 231 666 231 674 c 0
EndSplineSet
EndChar

StartChar: degree
Encoding: 176 176 360
Width: 350
Flags: HW
TeX: 694 0
HStem: 462 40<231.846 332.331> 654 40<261.174 362.556>
VStem: 179 40<514.987 612.51> 376 40<545.493 640.545>
LayerCount: 2
Fore
SplineSet
179 559 m 0
 179 629 244 694 317 694 c 0
 376 694 416 652 416 598 c 0
 416 526 348 462 277 462 c 0
 222 462 179 501 179 559 c 0
219 558 m 0
 219 525 243 502 278 502 c 0
 328 502 376 550 376 598 c 0
 376 631 352 654 317 654 c 0
 264 654 219 604 219 558 c 0
EndSplineSet
EndChar

StartChar: plusminus
Encoding: 177 177 361
Width: 642
Flags: HW
TeX: 523 -1
ItalicCorrection: 26
HStem: 89 40<82.0102 327 368 604.998> 331 40<133.014 370 420 656.81>
VStem: 429 37<519.997 612.985>
DStem2: 318.498 89 359.498 89 0.207912 0.978148<49.418 247.42 296.941 502.178>
LayerCount: 2
Fore
SplineSet
82 109 m 0
 82 116 86 122 92 126 c 0
 99 131 109 129 120 129 c 2
 327 129 l 1
 370 331 l 1
 161 331 l 2
 152 331 133 332 133 351 c 0
 133 370 151 371 162 371 c 2
 379 371 l 1
 428 599 427 597 429 601 c 0
 433 608 439 613 447 613 c 0
 458 613 466 601 466 594 c 0
 466 581 440 463 420 371 c 1
 628 371 l 2
 637 371 658 370 657 350 c 1
 653 335 646 331 627 331 c 2
 411 331 l 1
 368 129 l 1
 581 129 l 1
 607 128 605 110 605 107 c 0
 605 102 602 90 579 89 c 1
 112 89 l 2
 96 89 82 93 82 109 c 0
EndSplineSet
EndChar

StartChar: twosuperior
Encoding: 178 178 362
Width: 467
Flags: HW
TeX: 750 0
ItalicCorrection: 130
HStem: 347 56<192 487> 714 53<278.654 449.999>
VStem: 481 68<584.362 685.747>
DStem2: 137 403 192 403 0.890711 0.45457<48.9891 364.732>
LayerCount: 2
Fore
SplineSet
125 347 m 1
 137 403 l 1
 305 493 256 468 380 523 c 0
 399 532 481 571 481 641 c 0
 481 702 401 714 357 714 c 0
 268 714 234 661 210 629 c 1
 187 676 l 1
 187 677 l 1
 241 734 297 767 381 767 c 2
 382 767 l 2
 456 767 549 740 549 651 c 0
 549 542 426 523 337 477 c 2
 192 403 l 1
 499 403 l 1
 487 347 l 1
 125 347 l 1
EndSplineSet
EndChar

StartChar: threesuperior
Encoding: 179 179 363
Width: 467
Flags: HW
TeX: 750 0
ItalicCorrection: 130
HStem: 339 52<193.572 411.368> 536 50<300 416.325> 716 51<291.417 460.59>
VStem: 452 70<427.699 515.337> 469 67<630.418 705.525>
LayerCount: 2
Fore
SplineSet
125 382 m 1
 144 434 l 1
 195 408 249 391 320 391 c 0
 418 391 452 441 452 474 c 0
 452 502 430 517 421 522 c 0
 397 535 369 536 342 536 c 2
 289 536 l 1
 300 586 l 1
 370 592 410 592 452 634 c 1xf0
 460 644 469 658 469 674 c 0
 469 691 456 716 391 716 c 0
 322 716 271 688 226 655 c 1
 207 702 l 1
 258 737 323 767 401 767 c 0
 476 767 536 732 536 680 c 0xe8
 536 632 495 589 431 561 c 1
 493 544 522 510 522 476 c 0
 522 418 438 339 308 339 c 0
 253 339 190 349 125 382 c 1
EndSplineSet
EndChar

StartChar: uni00B5
Encoding: 181 181 365
Width: 517
Flags: HW
TeX: 470 166
ItalicCorrection: 48
HStem: -167 21G<45 114.192> -8 47<172.818 293.363> 0 21G<373 440.237> 452 20G<176.743 245 467.694 536>
DStem2: 45 -167 110 -167 0.207912 0.978148<13.5143 184.142 273.039 653.312> 337.503 -167 400.503 -167 0.207912 0.978148<183.829 258.386 265.817 653>
LayerCount: 2
Fore
SplineSet
45 -167 m 1
 181 472 l 1
 245 472 l 1
 173 132 l 2
 166 100 166 95 166 86 c 0
 166 49 195 39 246 39 c 0xd0
 338 39 386 109 400 144 c 0
 405 157 407 170 410 184 c 2
 472 472 l 1
 536 472 l 1
 436 0 l 1
 373 0 l 1xb0
 390 86 l 1
 342 25 263 -8 195 -8 c 0xd0
 176 -8 164 -6 145 -0 c 1xb0
 110 -167 l 1
 45 -167 l 1
EndSplineSet
EndChar

StartChar: paragraph
Encoding: 182 182 366
Width: 642
Flags: HW
TeX: 694 166
HStem: -166 21G<354.5 369.5 467.5 482.5> 655 40<551 624 664 753.718>
VStem: 455 40<-165.94 -108.988>
DStem2: 336.536 -166 376.348 -166 0.207912 0.978148<5.07888 419.017> 449.491 -166 489.491 -166 0.207912 0.978148<21.1664 839.342>
LayerCount: 2
Fore
SplineSet
154 434 m 0
 154 538 256 695 479 695 c 2
 724 695 l 2
 741 695 748 693 754 679 c 1
 755 666 751 655 728 655 c 2
 664 655 l 1
 495 -142 l 2
 494 -145 491 -166 474 -166 c 0
 461 -166 455 -154 455 -146 c 0
 455 -136 457 -127 459 -118 c 2
 624 655 l 1
 551 655 l 1
 384 -130 l 2
 382 -141 379 -166 360 -166 c 0
 349 -166 341 -156 341 -145 c 1
 423 244 l 1
 210 257 154 358 154 434 c 0
EndSplineSet
EndChar

